<svg xmlns="http://www.w3.org/2000/svg" data-name="Layer 1" viewBox="0 0 512 512"><path fill="#47441e" d="M388.63 430.48c1.047.229 2.097.44 3.14.69 7.236 1.736 14.391 3.763 21.524 5.884 5.074 1.508 10.221 2.768 15.319 4.2 6.777 1.902 13.412 4.263 20.116 6.4 3.192 1.02 6.404 1.982 9.566 3.085 2.459.857 4.98 1.508 7.427 2.391 2.458.887 4.938 1.717 7.377 2.653 2.44.936 4.85 1.95 7.257 2.967a84.225 84.225 0 0 1 11.543 6.116q9.066 5.62 18.114 11.266c.397.247.78.515 1.17.774V512H70.286c-2.953-3.206-5.687-6.616-8.905-9.577-6.785-6.243-14.23-11.439-23.045-14.427a40.034 40.034 0 0 0-19.072-1.703c-3.103.469-5.85 1.915-8.639 3.248-.8.382-1.556 1.148-2.595.634a7.606 7.606 0 0 1 .37-.927 81.528 81.528 0 0 1 14.015-19.094 79.864 79.864 0 0 1 12.738-10.156 146.54 146.54 0 0 1 23.564-12.19 166.427 166.427 0 0 1 24.393-8.164q6.949-1.67 14.038-2.647a160.209 160.209 0 0 0 31.818-7.726 121.987 121.987 0 0 0 16.84-7.65 13.454 13.454 0 0 0 1.155-.779.675.675 0 0 1 .54-.33.136.136 0 0 0 .233-.031c1.117.74.299 1.62.075 2.353-1.664 5.459-3.72 10.786-5.514 16.202a113.156 113.156 0 0 1-6.38 16.295 60.97 60.97 0 0 1-6.384 10.075c3.335-.187 6.574-.474 9.825-.331a6.227 6.227 0 0 1 2.189.22c.43.18.945.42.313.984a1.39 1.39 0 0 1-.764.236c-3.245-.464-5.339 1.178-7.331 3.53a64.73 64.73 0 0 1-6.223 5.713 10.262 10.262 0 0 0-1.181 1.092c-1.044 1.295-.815 2.24.782 2.697a22.194 22.194 0 0 0 5.371.778 194.218 194.218 0 0 0 22.911-1.058c8.024-.677 16.036-1.49 24.063-2.131 6.434-.514 12.763-1.82 19.163-2.583a121.113 121.113 0 0 1 14.85-1.068c1.077.004 2.14.166 3.209.242 3.564.252 5.683 1.985 6.299 5.593.46 2.695 2.276 4.084 4.882 4.717 4.355 1.057 8.809.922 13.214 1.092 11.612.45 23.197-.776 34.81-.912 4.757-.055 9.506.663 14.252.074 1.225-.237 2.193.442 3.214.924a366.034 366.034 0 0 0 36.821 15.083 4.856 4.856 0 0 0 4.697-.56c3.193-2.093 6.355-4.244 9.684-6.128a4.402 4.402 0 0 1 2.609-.905c2.684-.318 5.169-1.381 7.752-2.068 9.151-2.432 18.328-4.76 27.516-7.048a57.37 57.37 0 0 0 14.825-5.647 13.494 13.494 0 0 1 8.76-1.417c10.578 1.336 21.121 1.704 31.607-.928 8.163-2.048 16.58-2.524 24.89-3.663a3.838 3.838 0 0 0 1.571-.453c-1.648-.087-2.92-.015-4.184-.063-.85-.032-1.774.146-2.433-.639.2-1.076 1.11-.777 1.748-.814 1.675-.096 3.356.001 5.034-.054.518-.016 1.186.058 1.357-.593.168-.642-.458-.907-.876-1.21a101.558 101.558 0 0 0-12.476-7.36c-9.23-4.854-18.984-8.504-28.628-12.406-9.334-3.777-18.607-7.7-27.7-12.027a40.65 40.65 0 0 1-6.935-4.077c-.604-.452-1.51-.744-1.286-1.808a.96.96 0 0 1 .898.05Z"/><path fill="#47441e" d="M.904 512A3.457 3.457 0 0 1 1 510.212a83.851 83.851 0 0 1 5.552-17.2 2.828 2.828 0 0 1 .345-.474c8.105-3.658 15.65-1.414 22.824 2.537 7.014 3.863 13.005 9.153 18.71 14.74.576.563 1.439 1.118.879 2.185Z"/><path fill="#363415" d="M49.31 512a1.74 1.74 0 0 0-.614-1.22 55.547 55.547 0 0 0-8.553-7.575 37.685 37.685 0 0 1-3.08-2.554 48.64 48.64 0 0 0-4.859-3.539 34.43 34.43 0 0 0-8.815-4.3 21.814 21.814 0 0 0-6.436-1.406c-2.23-.793-4.341 0-6.467.511-1.038.25-2.054.591-3.09.854-.138.035-.331-.15-.5-.233a5.78 5.78 0 0 1 1.134-2.363l2.74-1.255c1.586-.723 3.146-1.51 4.763-2.153a19.163 19.163 0 0 1 7.241-1.392q1.814.01 3.628 0a36.4 36.4 0 0 1 9.68 1.408 53.603 53.603 0 0 1 7.927 2.843 50.292 50.292 0 0 1 4.576 2.52 78.227 78.227 0 0 1 8.61 5.884c1.428 1.101 2.75 2.342 4.081 3.563.94.862 1.774 1.84 2.724 2.69 1.858 1.662 3.298 3.7 5.011 5.493A3.898 3.898 0 0 1 70.286 512Z"/><path fill="#efefef" d="M346.957 492.942a3.465 3.465 0 0 0-1.425.716q-5.291 3.315-10.567 6.654c-.34.215-.688.422-1.01.664a2.062 2.062 0 0 1-2.073.354c-.946-.336-1.932-.561-2.883-.886-8.005-2.73-15.82-5.947-23.611-9.228a301.332 301.332 0 0 1-13.57-6.136 2.667 2.667 0 0 0-1.302-.49c-2.847-.283-5.097-1.99-7.51-3.25-7.682-4.01-15.315-8.116-22.94-12.234-9.216-4.978-19.003-8.884-27.741-14.753a2.726 2.726 0 0 0-3.346-.032c-11.347 7.38-24.103 10.388-37.325 11.75a293.226 293.226 0 0 1-37.623 1.256c-3.546-.09-7.085-.587-10.634-.812a1.434 1.434 0 0 1-1.23-.569 2.182 2.182 0 0 0-1.163-.253 47.443 47.443 0 0 0-11.427.54 3.236 3.236 0 0 1-.793.036.605.605 0 0 1-.394-.783 3.866 3.866 0 0 1 .49-.626 30.66 30.66 0 0 0 4.651-6.29 78.811 78.811 0 0 0 6.412-14.286q3.69-10.635 7.261-21.31c.266-.793.823-1.566.53-2.493a9.433 9.433 0 0 0 1.055-2.146 115.41 115.41 0 0 1 4.288-11.046c1.456-3.385 2.881-6.78 4.424-10.129.842-1.827 1.765-3.617 2.571-5.458 1.968-4.491 4.198-8.854 6.443-13.208 1.226-2.377 2.654-4.652 4.033-6.948.93-1.549 1.882-3.091 2.92-4.569 1.113-1.584 2.313-3.109 3.523-4.622a17.45 17.45 0 0 1 3.66-3.123 18.627 18.627 0 0 1 2.658-1.792 15.398 15.398 0 0 1 6.583-1.545c.94-.014 1.88-.006 2.822-.007a1.17 1.17 0 0 0 1.05-.472c1.274.562.799 1.722.925 2.677-.347 2.157-.536 2.299-2.54 1.888-.46-.095-.912-.223-1.37-.331-4.381-1.035-7.16 1.12-7.414 5.658-.36 6.45 1.474 12.344 4.517 17.911a54.201 54.201 0 0 0 5.916 8.619c.9 3.056 3.779 4.365 5.741 6.483.143.122.278.254.413.385.071.061.138.128.209.189 5.384 4.498 10.586 9.202 15.844 13.846 4.521 3.994 8.619 8.405 12.935 12.598.916.89 2.034 1.531 2.9 2.47a27.15 27.15 0 0 0 3.398 2.81c10.535 9.04 21.524 17.524 32.291 26.281 6.524 5.594 14.227 9.41 21.346 14.104 9.028 5.952 18.962 10.431 27.77 16.768a68.977 68.977 0 0 1 8.417 6.564c.466.46.96 1.135 1.694.863.665-.247.429-1.049.565-1.614.68-2.818 1.443-5.595 3.347-7.9a16.574 16.574 0 0 0 1.839-3.123 205.146 205.146 0 0 0 9.643-21.06 88.252 88.252 0 0 0 4.769-20.57c.65-5.433.26-10.875.34-16.315-.051-.69-.013-1.379-.029-2.07-.108-8.244-.593-16.474-.932-24.707-.183-4.428-.527-8.828.081-13.241.128-.928.115-1.901 1.04-2.49.343.207.791.336 1.01.634.963 1.306 2.341 2.233 3.284 3.52 1.35 1.841 3.176 3.245 4.456 5.142.669.991 1.619 1.759 2.368 2.714 1.526 1.946 2.866 4.024 4.377 5.97a526.487 526.487 0 0 1 4.37 5.725c.322.425.626.864.934 1.3 3.197 4.523 6.36 9.07 9.61 13.556a51.823 51.823 0 0 0 3.406 3.934 36.224 36.224 0 0 1 2.893 3.06 99.418 99.418 0 0 0 13.297 20.645 101.378 101.378 0 0 1-10.296-15.302c-.551-.992-1.583-1.914-1.008-3.283l1.21.382c.123.15.38.162.418.402.127.429.52.59.838.82a53.843 53.843 0 0 0 8.325 4.875c6.288 3.02 12.73 5.69 19.132 8.454 5.912 2.551 11.938 4.814 17.898 7.24a205.388 205.388 0 0 1 24 11.326c2.454 1.392 4.824 2.912 7.167 4.479a8.426 8.426 0 0 1 1.252 1.005.885.885 0 0 1-.406 1.566 4.81 4.81 0 0 1-1.382.192c-1.745.009-3.49-.02-5.235-.031-.602-.005-1.204-.001-1.806-.001-1.65.604-3.31.168-4.936-.056-9.721-1.34-19.324-3.405-29.034-4.805-6.015-.868-12.031-1.145-18.01.387a6.81 6.81 0 0 0-3.869 2.354c-2.368 2.98-5.668 4.431-9.207 5.465-4.905 1.434-9.939 2.35-14.846 3.781-9.217 2.687-17.333 7.551-25.362 12.617-1.685 1.063-3.236 2.43-5.31 2.766Z"/><path fill="#eaab86" d="M231.451 428.077a81.762 81.762 0 0 1-8.465-7.996c-3.248-3.399-6.838-6.432-10.17-9.739a6.423 6.423 0 0 0-.755-.664c-1.58-1.138-2.973-2.499-4.47-3.728-2.536-2.085-4.672-4.63-7.449-6.432-.155-.1-.237-.315-.353-.477.674-3.022 2.273-5.72 2.976-8.746a46.794 46.794 0 0 0 1.319-9.352 112.451 112.451 0 0 0-1.618-21.667 11.995 11.995 0 0 1-.112-.799c-.058-.592-.319-1.339.287-1.676.71-.395 1.232.29 1.717.715 3.337 2.92 6.73 5.772 10.153 8.593 14.179 11.68 30.509 18.647 48.388 22.247a153.22 153.22 0 0 0 27.955 3.249 70.057 70.057 0 0 0 23.105-4.042 3.953 3.953 0 0 1 .552-.202 80.829 80.829 0 0 1-18.833 4.014c-6.056.53-12.073-.103-18.076-.777a150.166 150.166 0 0 1-28.75-5.932 41.147 41.147 0 0 1-10.064-4.542c-6.265-4.058-12.533-8.142-18.124-13.099-3.829-3.395-6.679-7.703-9.649-11.855a115.872 115.872 0 0 1-9.491-15.684 106.132 106.132 0 0 1-7.036-19.49c-3.46-12.642-7.436-25.132-11.068-37.723a20.156 20.156 0 0 1-.784-5.356c-.298-4.929-.8-9.836-1.32-14.742a67.832 67.832 0 0 1-.692-9.966 4.372 4.372 0 0 0-.23-1.575 25.938 25.938 0 0 1-.153-4.66 49.837 49.837 0 0 1 2.304-13.023c.687-2.244 1.25-4.523 1.93-6.769a1.632 1.632 0 0 1 .58-.794c3.95-2.302 7.847-4.728 12.42-5.666a1.371 1.371 0 0 1 1.144.18c.37 2.096-.29 4.129-.446 6.188-.47 6.221-1.268 12.422-1.087 18.678.492 17.01 5.485 32.345 16.886 45.3 2.884 3.278 5.624 6.677 8.583 9.894 3.892 4.231 5.536 9.6 7.175 14.954 2.045 6.682 3.634 13.504 6.066 20.065a73.53 73.53 0 0 0 13.377 22.597c5.558 6.453 12.528 11.134 19.546 15.737 3.528 2.314 7.661 3.272 11.726 4.17a101.903 101.903 0 0 0 20.314 2.889 2.679 2.679 0 0 1 1.91.469c-.015 1.099-.88.837-1.47.844-11.713.151-23.39-.149-34.613-4.046-11.036-3.833-21.468-8.846-30.544-16.36-.464-.383-.922-.772-1.414-1.12 9.882 8.515 21.37 14.051 33.66 18.069a74.974 74.974 0 0 0 20.59 3.336 129.337 129.337 0 0 0 14.492-.032 40.396 40.396 0 0 0 16.67-4.485 41.983 41.983 0 0 1-11.124 3.72 3.455 3.455 0 0 1-1.975.017c-.061-.937-.073-.976 1.13-1.35a27.85 27.85 0 0 0 9.777-5.47c2.301-1.951 4.701-3.826 6.791-5.98 4.505-4.643 9.67-8.507 14.55-12.697 3.997-3.431 7.355-7.443 10.943-11.234 5.626-5.943 10.61-12.454 15.761-18.813 2.2-2.716 4.065-5.674 6.192-8.44.423-.551.66-1.384 1.61-1.31.957.614.271 1.698.706 2.462a15.996 15.996 0 0 1-.472 4.173 66.649 66.649 0 0 1-1.872 9.425 37.784 37.784 0 0 1-6.73 13.123 97.039 97.039 0 0 0-12.306 18.993c-.113.241-.267.464-.402.695-1.327 2.236-3.546 3.629-5.265 5.505-4.855 5.299-8.439 11.428-12.12 17.518a64.81 64.81 0 0 1-10.478 13.474c-3.92 3.757-7.378 7.963-11.497 11.546-3.183 2.769-6.215 5.723-9.356 8.551-3.85 3.468-6.982 7.608-10.47 11.415-.804.876-1.64 1.744-2.567 2.837 3.722.114 7.2-.01 10.674.089.668.019 1.825-.461 1.782.995a3.99 3.99 0 0 1-2.533.468c-5.167-.111-10.328.056-15.504-.299-8.048-.551-16.061-1.344-24.039-2.477q-13.571-1.926-26.973-4.854a16 16 0 0 1-2.822-1.054Z"/><path fill="#3c3641" d="M198.53 220.029a18.963 18.963 0 0 0-6.413 2.07c-1.75.963-3.554 1.827-5.328 2.745a6.468 6.468 0 0 0-1.835 1.188c-2.73 2.252-5.988 3.648-8.948 5.527-.614.39-1.268.72-1.871 1.132-1.371.831-2.747 1.655-4.115 2.493-2.043 1.187-3.944 2.587-5.883 3.934-1.84-.322-2.933-1.841-4.395-2.769-.22-.14-.081-.483.119-.69l.36-.384c2.283-2.411 5.219-3.975 7.807-5.99 2.596-2.023 5.371-3.808 8.129-5.609 1.569-.87 3.031-1.913 4.569-2.834 2.218-1.33 4.61-2.393 6.485-4.25a2.771 2.771 0 0 0 1.886-.449 114.888 114.888 0 0 1 10.577-5.134c3.438-1.016 7.03-1.056 10.534-1.664 4.164-.724 8.372-1.209 12.38-2.654a82.137 82.137 0 0 0 12.169-2.725c7.34-1.976 14.732-3.023 22.313-1.852a37.622 37.622 0 0 1 14.463 5.312 63.804 63.804 0 0 1 9.631 7.863 3.388 3.388 0 0 0 3.42 1.096 39.773 39.773 0 0 1 13.786-.08 3.286 3.286 0 0 0 3.226-1.09 24.245 24.245 0 0 1 4.892-3.831 9.842 9.842 0 0 0 3.478-3.225 4.168 4.168 0 0 0 3.103-.27c7.904-3.481 16.201-3.795 24.667-3.198 9.321.657 17.94 3.754 26.511 7.11a6.696 6.696 0 0 0 2.29.708c1.304.215 1.992 1.686 3.413 1.677a123.152 123.152 0 0 0 11.374 4.897 13.445 13.445 0 0 0 2.558.778c.81.05.523-1.323 1.445-1.118.005.262.027.525.012.786-.073 1.246-.077 1.248 1.101 1.614.189.058.393.072.575.143a1.623 1.623 0 0 1 1.218 1.807 4.023 4.023 0 0 1-.339 1.736c-.321.647-.628 1.302-.941 1.954-1.803 1.11-3.896 1.762-5.365 3.399a28.069 28.069 0 0 0-8.55 10.44c-2.598 3.978-4.46 8.389-7.287 12.242-2.424 3.302-4.796 6.62-8.154 9.073a12.37 12.37 0 0 1-2.049 1.26c-.323.16-.656.3-.98.462-.158.091-.32.172-.483.255-.25.14-.498.28-.751.42a4.569 4.569 0 0 1-.559.285 43.7 43.7 0 0 1-18.497 2.608c-5.636-.57-10.75-2.68-15.682-5.328-11.861-8.06-17.2-20.028-19.976-33.494-.446-2.167-.12-4.423-.138-6.637-.01-1.259-.36-2.121-1.82-2.047a38.251 38.251 0 0 0-9.423-.007 13.145 13.145 0 0 0-1.602.11c-1.486.13-2.144.814-2.329 2.406-.896 7.731-2.846 15.164-6.914 21.898a49.038 49.038 0 0 1-7.759 9.982c-3.447 2.827-7.616 3.947-11.819 4.993-6.146 1.185-12.308 1.889-18.573.97a48.662 48.662 0 0 1-12.424-3.906 9.287 9.287 0 0 1-.55-.316 5.165 5.165 0 0 1-.504-.353c-.082-.056-.162-.12-.246-.177-.332-.227-.68-.435-1.01-.67-4.312-2.83-6.68-7.052-8.361-11.746-2.15-6-3.746-12.177-5.851-18.194-1.703-4.866-1.625-4.828-6.625-4.69-1.372.038-2.766.642-4.142.008Z"/><path fill="#f7bc9a" d="M303.517 435.813c-1.475-.019-2.95-.05-4.426-.055-2.618-.01-5.237.005-7.855-.01-.377-.003-.794.147-1.123-.157-.127-.238.019-.397.15-.539 1.72-1.872 3.596-3.626 5.127-5.643 1.343-1.769 2.992-3.235 4.372-4.965a21.116 21.116 0 0 1 4.77-4.583 2.336 2.336 0 0 0 .46-.388c2.099-2.362 4.723-4.168 6.873-6.472 2.153-2.307 4.827-4.064 6.87-6.473 2.825-3.33 6.033-6.285 9.024-9.45a45.887 45.887 0 0 0 3.056-3.967 113.832 113.832 0 0 0 6.502-10.124 82.107 82.107 0 0 1 5.199-8.102c.778-1.004 1.872-1.75 2.397-2.953 1.635-1.497 2.773-3.45 4.467-4.89 1.067-.908 2.159-1.787 3.24-2.679-.117.378-.206.767-.355 1.132a108.987 108.987 0 0 0-4.55 13.847 9.555 9.555 0 0 0-.295 2.768 18.637 18.637 0 0 0-.469 3.37 42.465 42.465 0 0 0-.314 7.43 13.217 13.217 0 0 0 .258 3.402 10.99 10.99 0 0 1 .1 2.208c.083 2.209-.166 4.432.358 6.622a6.417 6.417 0 0 1 .043 1.407c.017 1.882.027 3.764.047 5.646a10.115 10.115 0 0 0 .26 2.999 4.152 4.152 0 0 1 .076 1.201c.009 2.15.009 4.3.012 6.45-3.158 2.208-6.767 3.53-10.248 5.067a97.801 97.801 0 0 1-26.14 7.762c-1.726.238-3.462.381-5.192.584a3.27 3.27 0 0 1-2.694-.445Z"/><path fill="#d0916c" d="M183.172 277.15a1.666 1.666 0 0 1 .058.399 11.967 11.967 0 0 0 .782 4.716c1.158 3.774 2.197 7.584 3.297 11.376.447 1.543.925 3.077 1.393 4.615 1.462 4.802 2.982 9.587 4.28 14.44.78 2.908 1.675 5.786 2.455 8.694 1.389 5.182 3.51 10.109 5.222 15.178a16.975 16.975 0 0 0 1.217 2.543 149.142 149.142 0 0 0 10.183 16.617c1.558 2.165 3.232 4.263 4.896 6.36a33.697 33.697 0 0 0 6.95 6.875c1.53 1.074 2.92 2.351 4.456 3.42a614.87 614.87 0 0 0 10.312 6.992 37.908 37.908 0 0 0 10.743 4.868c3.41.972 6.792 2.049 10.256 2.822 2.605.58 5.209 1.164 7.859 1.533 2.178.303 4.332.784 6.51 1.096 1.65.236 3.322.327 4.984.49a6.84 6.84 0 0 1 1.385.199 6.19 6.19 0 0 0 1.793.197 9.896 9.896 0 0 1 3.188.322 4.443 4.443 0 0 0 1.401.075c1.613.009 3.227-.023 4.839.016a50.756 50.756 0 0 0 8.779-.744 89.339 89.339 0 0 0 13.828-3.325 3.677 3.677 0 0 1 1.755-.356c.181.03.442.114.5.245.14.326-.137.451-.396.544a75.046 75.046 0 0 1-11.386 3.235c-2.033.38-4.064.766-6.102 1.117a11.425 11.425 0 0 1-1.607.083 7.887 7.887 0 0 0-2.192.232 5.682 5.682 0 0 1-1.591.159 35.383 35.383 0 0 1-4.03-.018c-2.267-.227-4.55-.236-6.804-.46-2.32-.23-4.65-.434-6.965-.736-1.322-.172-2.644-.367-3.948-.64-1.115-.232-2.25-.289-3.37-.473q-6.339-1.039-12.54-2.673c-2.975-.781-5.942-1.617-8.86-2.59-2.473-.826-4.863-1.9-7.303-2.834a89.65 89.65 0 0 1-8.715-4.17 70.75 70.75 0 0 1-11.37-7.171c-2.741-2.14-5.55-4.194-8.275-6.353-1.416-1.121-2.716-2.387-4.067-3.588a36.35 36.35 0 0 1-3.462-3.058c-.169-.193-.381-.5-.649-.382-.425.187-.134.55-.085.848.213 1.315.43 2.63.627 3.948.235 1.582.45 3.168.677 4.752a2.048 2.048 0 0 1 .082.392c-.146 2.155.542 4.245.468 6.402-.077 2.216-.046 4.436-.004 6.654a38.776 38.776 0 0 1-3.045 15.445 12.12 12.12 0 0 1-1.792 3.563l-.016-.006a2.643 2.643 0 0 0-.439-.35c-1.321-1.137-2.613-2.311-3.973-3.4a3.893 3.893 0 0 1-1.635-3.08 5.69 5.69 0 0 1-.594-3.896 206.145 206.145 0 0 0 .71-24.27c-.038-1.94.662-3.808.323-5.743-.132-.96.137-1.975-.4-2.88a63.745 63.745 0 0 0-1.22-8.962 180.895 180.895 0 0 0-5.634-22.02 74.14 74.14 0 0 0-1.528-4.157 15.018 15.018 0 0 0-2.562-4.312c-1.402-1.848-1.05-4.1-1.347-6.178-1.047-7.31-.775-14.706-1.309-22.051-.139-1.92-.08-3.896-.93-5.707-.325-.667.08-1.038.617-1.192a3.328 3.328 0 0 0 2.638-3.077.703.703 0 0 1 .682-.61Z"/><path fill="#282828" d="M167.544 142.9a7.3 7.3 0 0 1 .892-2.437 93.055 93.055 0 0 1 22.884-31.09 52.615 52.615 0 0 1 6.36-4.915c4.15.802 8.216 2.035 12.428 2.528a150.418 150.418 0 0 0 27.138.782c4.954-.316 9.92-.473 14.868-.926 5.815-.532 11.627-1.11 17.454-1.481 5.716-.364 11.421-.315 16.955 1.514a14.242 14.242 0 0 1 2.92 1.355 7.989 7.989 0 0 1 4.1 8.848 13.05 13.05 0 0 1-2.055 5.21c-.81 1.222-1.636 1.221-2.229-.098-1.709-3.8-4.928-5.289-8.71-6.07a46.037 46.037 0 0 0-16.238-.539c-6.896 1.042-13.633.167-20.424-.768a55.406 55.406 0 0 0-19.992 1.227c-14.828 3.368-28.217 9.925-40.983 17.952-4.21 2.647-8.377 5.363-12.605 7.982-.838.519-1.636 1.238-2.763.927Z"/><path fill="#282828" d="M160.656 169.93a33.246 33.246 0 0 1 .876-6.146 135.51 135.51 0 0 1 4.817-18.014 2.267 2.267 0 0 1 .32-.495 4.794 4.794 0 0 0 2.78-1.04c6.939-4.243 13.686-8.79 20.703-12.907a119.026 119.026 0 0 1 39.172-14.924 48.126 48.126 0 0 1 16.837.148c.583.1 1.462.03 1.55.665.112.803-.783.986-1.412 1.159a111.167 111.167 0 0 0-16.129 5.75c-8.837 3.968-17.137 8.815-23.734 16.01-2.52 2.748-5.517 4.32-8.725 5.89-9.287 4.546-18.837 8.629-27.136 14.976a67.85 67.85 0 0 0-8.202 7.72c-.472.504-.8 1.302-1.717 1.208Z"/><path fill="#eaab86" d="M179.184 281.607c1.169.32 1.2.32 1.212 1.213.04 2.742.675 5.453.428 8.21.726 3.386.258 6.818.392 10.227a5.273 5.273 0 0 0 .261 1.98.868.868 0 0 1 .089.39c-.137 1.888.378 3.719.485 5.588.101 1.79.437 3.567.659 5.35.057.464.075.933.11 1.4a7.025 7.025 0 0 0-.782.615 10.025 10.025 0 0 1-7.244 2.987c-.604.019-1.21.002-1.815-.013a7.702 7.702 0 0 1-7.269-4.844 23.51 23.51 0 0 1-1.85-6.356c-.299-1.988-.538-3.986-.86-5.97a32.754 32.754 0 0 0-2.464-7.646c-.743-1.726-1.57-3.423-2.21-5.187a16.058 16.058 0 0 1-1.03-8.682 8.415 8.415 0 0 0 .087-1.407q.047-1.915.073-3.83a39.081 39.081 0 0 0-.805-9.402c-.795-3.46-1.377-6.968-2.08-10.449-.187-.918-.468-1.818-.73-2.72a20.241 20.241 0 0 1-.93-6.144c.035-1.478.106-2.955.126-4.433a3.141 3.141 0 0 1 .694-2.048c7.828 3.652 12.739 10.183 17.05 17.3a394.776 394.776 0 0 1 3.316 5.547c.589-.705-.38-2.326 1.366-2.287.923.817.542 2.054.987 3.025.322 4.711 1.468 9.34 1.385 14.094a6.378 6.378 0 0 0 1.35 3.492Z"/><path fill="#282828" d="M199.745 102.935a1.317 1.317 0 0 1 .242-.309c3.707-2.546 7.434-5.063 11.333-7.31a409.655 409.655 0 0 1 8.42-4.734c2.532-1.38 5.103-2.688 7.662-4.018a2.385 2.385 0 0 1 .579-.135c4.138 2.685 8.832 3.903 13.548 4.983a70.527 70.527 0 0 0 16.598 1.72 53.285 53.285 0 0 1 30.716 8.798 38.338 38.338 0 0 1 7.808 6.645 10.797 10.797 0 0 1 1.905 12.185c-.185.433-.35.872-.505 1.317-1.115 1.77-3.031 2.22-4.81 2.873a.67.67 0 0 1-.91-.522 5.319 5.319 0 0 1 .916-2.417c1.137-2.533 2.202-5.132 1.753-7.956-.652-4.101-3.271-6.657-7.037-8.122a32.41 32.41 0 0 0-10.65-1.968c-7.813-.295-15.573.498-23.312 1.306-9.844 1.027-19.7 1.1-29.573 1.16a99.525 99.525 0 0 1-19.432-1.736c-1.809-.347-3.77-.38-5.25-1.76Z"/><path fill="#1e1e1e" d="M199.745 102.935a25.317 25.317 0 0 1 2.545.539c1.921.608 3.933.721 5.874 1.165 1.375.315 2.806.163 4.143.669a3.735 3.735 0 0 0 1.198.08 8.465 8.465 0 0 1 2.781.305 4.875 4.875 0 0 0 1.597.097q11.174.007 22.349.001a3.946 3.946 0 0 0 1.201-.041 15.952 15.952 0 0 1 4.788-.357 6.052 6.052 0 0 0 2.18-.268 2.891 2.891 0 0 1 .99-.13 11.486 11.486 0 0 0 3.975-.392c2.288.23 4.511-.619 6.793-.416 1.227.11 2.341-.513 3.575-.435a7.783 7.783 0 0 0 3.383-.282 4.04 4.04 0 0 1 1.396-.092c3.356-.007 6.716-.116 10.066.026a28.098 28.098 0 0 1 10.315 2.224 10.47 10.47 0 0 1 5.405 4.604c1.072 2.097 1.822 4.21 1.234 6.724a21.115 21.115 0 0 1-2.857 7.219 1.626 1.626 0 0 0-.12.584c-1.18 1.75-3.02 1.829-4.857 1.917-.924-.41-.955-1.275-.902-2.06.178-2.668-1.453-4.04-3.548-5.065a15.005 15.005 0 0 0-4.063-1.119c-9.087-1.595-18.067-.442-26.962 1.312a91.69 91.69 0 0 0-35.713 15.08 45.687 45.687 0 0 0-10.582 9.806 15.532 15.532 0 0 1-4.87 3.017c-1.439-.082-2.535.83-3.712 1.396-8.456 4.063-17.04 7.888-24.636 13.536a58.87 58.87 0 0 0-10.098 9.733 4.756 4.756 0 0 1-1.752 1.616c-.34.135-.848.274-.666-.46a9.856 9.856 0 0 1 .461-3.537c.719-.79 1.41-1.607 2.162-2.365 1.31-1.32 2.521-2.725 3.901-3.997a71.263 71.263 0 0 1 9.656-7.163 76.903 76.903 0 0 1 9.325-5.13c4.311-2.018 8.437-4.418 12.868-6.188 1.491-.596 2.887-1.429 4.334-2.137a4.173 4.173 0 0 0 1.5-1.317 27.82 27.82 0 0 1 5.366-5.387c1.107-.858 2.07-1.888 3.194-2.746 2.346-1.791 4.875-3.294 7.345-4.889a66.757 66.757 0 0 1 8.382-4.368 88.537 88.537 0 0 1 15.032-5.606 62.09 62.09 0 0 0 3.081-.893.693.693 0 0 0 .588-.603c-1.608.074-3.118-.592-4.724-.467-2.575-.683-5.204-.285-7.808-.395a30.331 30.331 0 0 0-5.163.596 81.755 81.755 0 0 0-9.556 2.21 99.69 99.69 0 0 0-12.2 3.996 107.754 107.754 0 0 0-11.291 5.278c-3.42 1.834-6.827 3.697-10.124 5.759-4.086 2.555-8.182 5.092-12.203 7.75-1.786 1.18-3.636 2.265-5.469 3.373a8.465 8.465 0 0 1-1.45.697c-.596.22-.628-.285-.733-.663a5.102 5.102 0 0 1 .875-2.375 43.692 43.692 0 0 0 5.177-3.086c3.545-2.16 6.947-4.553 10.497-6.702 2.806-1.698 5.619-3.39 8.493-4.983 2.94-1.63 5.929-3.15 8.95-4.604a96.11 96.11 0 0 1 16.127-6.145c2.515-.694 5.026-1.4 7.574-1.954 2.146-.467 4.237-1.272 6.486-1.18 3.59-.786 7.225-.3 10.837-.34a26.455 26.455 0 0 1 4.742.668c.987.172 1.981.125 2.981.378a33.763 33.763 0 0 0 4.366.529c.462.054.918.161 1.378.237.329.055.703.222.982.124 1.355-.475 2.802-.201 4.162-.575a1.883 1.883 0 0 1 .581-.148c2.09.154 4.12-.469 6.198-.454 1.95.013 3.899.032 5.847-.004a38.32 38.32 0 0 1 9.7 1.345 11.602 11.602 0 0 1 6.163 3.962 7.616 7.616 0 0 1 .948 2.191 6.6 6.6 0 0 0 .252.54.418.418 0 0 0 .677.016c.978-1.824 2.169-3.564 2.294-5.73a1.701 1.701 0 0 1 .056-.598c.682-1.446.02-2.76-.446-4.056a6.5 6.5 0 0 0-2.846-3.294 18.954 18.954 0 0 0-9.493-2.842 2.918 2.918 0 0 1-.604-.023c-3.05-.76-6.152-.213-9.225-.376-1.97.56-4.053.072-5.98.489-2.057.445-4.17-.04-6.174.677a5.18 5.18 0 0 1-1.604.041 5.381 5.381 0 0 0-2.184.256 1.271 1.271 0 0 1-.587.12c-2.424-.201-4.782.636-7.209.442a5.872 5.872 0 0 0-2.385.258 5.276 5.276 0 0 1-1.595.128c-1.344.016-2.688.002-4.033.009a7.314 7.314 0 0 0-2.389.25 5.078 5.078 0 0 1-1.592.144q-6.452.015-12.904.005a3.45 3.45 0 0 1-1.004-.029 17.93 17.93 0 0 0-5.196-.372 5.2 5.2 0 0 1-1.786-.23 2.693 2.693 0 0 0-.985-.161 37.515 37.515 0 0 1-5.347-.714c-2.201-.27-4.313-.902-6.471-1.334a22.55 22.55 0 0 1-2.873-.9c-.168-.058-.282-.274-.42-.418a5.796 5.796 0 0 1 2.065-1.523Z"/><path fill="#282828" d="M229.907 85.526a24.678 24.678 0 0 1 4.126-2.007 89.674 89.674 0 0 1 13.354-4.9 67.625 67.625 0 0 1 24.1-1.812 5.966 5.966 0 0 1 .95.263c-1.25.622-1.25.622-3.002.291a3.824 3.824 0 0 1 1.987 1.052 200.266 200.266 0 0 1 25.463 22.737c3.99 4.153 5.14 9.427 5.915 14.859-.294.705-.545 1.487-1.583.938a1.432 1.432 0 0 1-.257-.754c.306-5.762-3.323-9.347-7.29-12.512a52.739 52.739 0 0 0-24.473-11.132 55.446 55.446 0 0 0-8-.745c-9.001-.18-17.982-.608-26.53-3.87-1.656-.633-3.535-.895-4.76-2.408ZM160.195 173.468c.117.174.298.343.476.19a5.918 5.918 0 0 0 1.275-1.268 16.682 16.682 0 0 1 2.375-2.71 6.85 6.85 0 0 0 1.055-1.204 6.858 6.858 0 0 1 1.578-1.806c1.725-1.472 3.443-2.958 5.255-4.316a84.664 84.664 0 0 1 13.88-8.382q4.52-2.194 8.986-4.501c1.6-.83 3.403-1.227 4.869-2.348.36-.276.748.136 1.117.255a1.361 1.361 0 0 1-.498 1.246c-3.188 3.161-4.738 7.18-6.026 11.352-.22.714-.155 1.652-1.112 1.975a.612.612 0 0 1-.27-.85c-.216.124-.26.378-.412.55-1.205 1.36-2.503 2.631-3.82 3.877-7.687 7.27-14.254 15.533-21.009 23.63-2.067 2.478-3.953 5.104-6.033 7.56a10.332 10.332 0 0 0-2.719 8.695c-.04.642.002 1.312-.597 1.762a4.323 4.323 0 0 1-.254-1.979 113.557 113.557 0 0 1 .192-12.691c.232-2.474.295-4.964.493-7.442.287-3.615.624-7.227.953-10.84a3.522 3.522 0 0 1 .246-.755Z"/><path fill="#282828" d="m158.565 207.175.12-2.22a18.765 18.765 0 0 1 3.412-5.89c9.12-11.883 18.573-23.48 29.429-33.852.373-.356.762-1.89 1.712-.424-.448 4.51-1 9.011-1.098 13.547-2.403 4.025-5.252 7.753-7.884 11.628-6.473 9.532-13.35 18.799-19.113 28.8a59.17 59.17 0 0 0-4.76 9.962 1.638 1.638 0 0 1-.598 1.01 2.49 2.49 0 0 1-.284-1.353c-.39-6.87-.877-13.735-1.013-20.617a3.909 3.909 0 0 1 .077-.591Z"/><path fill="#f7bc9a" d="M390.604 231.212a2.09 2.09 0 0 1 .349 1.53c.01 2.014.086 4.033-.007 6.043a27.534 27.534 0 0 1-1.964 9.39c-.643 1.548-1.27 3.104-1.97 4.627a46.908 46.908 0 0 0-3.625 12.918c-.019.133-.029.267-.036.401-.142 2.81-.34 5.62-.407 8.433a73.722 73.722 0 0 0 .064 8.256c.257 2.882.249 5.76.355 8.639.04 1.07.349 2.106.324 3.195a100.275 100.275 0 0 1-.81 10.81 14.71 14.71 0 0 1-1.24 4.021 2.107 2.107 0 0 1-3.345.828 18.974 18.974 0 0 1-1.438-1.407c-.505-.498-.506-.497-1.155.253a35.387 35.387 0 0 1-1.002-8.298c-.112-5.492.34-10.984.57-16.476.259-6.235.3-12.475-.044-18.712-.166-3.01-.737-5.997-.543-9.026a50.018 50.018 0 0 1 1.31-6.963c3.774-5.679 7.304-11.589 13.077-15.562 1.151-.791.685-2.128 1.537-2.9Z"/><path fill="#282828" d="M176.387 223.998c-.917.654-1.817 1.335-2.755 1.957-2.716 1.798-5.315 3.756-7.962 5.65a34.314 34.314 0 0 1-5.449 3.67 2.021 2.021 0 0 1-.013-1.197c.288-2.638 1.496-4.973 2.56-7.326 3.417-7.548 7.943-14.45 12.62-21.26 5.012-7.3 10.105-14.545 15.089-21.866a5.617 5.617 0 0 0 .787-2.455c.07-.466-.144-1.382.925-1.082.918 1.626.59 3.41.467 5.094a133.492 133.492 0 0 1-1.655 16.103 9.027 9.027 0 0 1-.677 2.7c-1.118-.063-1.68.593-2.27 1.48-4.052 6.076-7.85 12.309-11.667 18.532ZM272.797 77.132a34.892 34.892 0 0 1 6.724 1.024 121.283 121.283 0 0 1 21.986 6.817c1.854.741 3.697 1.51 5.545 2.266.943 7.778 1.066 15.513-1.298 23.099-.26.833-.28 2.246-1.33 2.2-1.02-.044-1.023-1.432-1.203-2.305a22.356 22.356 0 0 0-6.573-11.527c-5-4.956-9.972-9.94-15.352-14.487-2.456-2.075-5.163-3.841-7.63-5.91-.377-.316-1.042-.446-.87-1.177ZM385.327 218.743c-.586.393-.294 1.065-.502 1.575-.184.449-.459.311-.718.05-5.56-10.497-12.506-20.074-19.566-29.58a5.55 5.55 0 0 0-1.633-1.333 70.848 70.848 0 0 1-1.386-15.76c.396-.955.855-.629 1.26-.023 6.446 9.625 14.499 18.121 19.968 28.432a19.007 19.007 0 0 1 1.73 3.618c.249.874.341-.085.507-.012a7.908 7.908 0 0 1 .556 2.914 30.095 30.095 0 0 1 .126 8.564c-.069.524-.226 1.037-.342 1.555Z"/><path fill="#da9b76" d="m375.195 256.215.053 2.611a5.398 5.398 0 0 0 .23 1.983 1.37 1.37 0 0 1 .128.584c-.178 2.352.464 4.648.448 6.991-.033 4.825-.01 9.65-.014 14.476a7.97 7.97 0 0 1-.216 2.187 7.067 7.067 0 0 0-.16 1.789c-.025 1.742-.013 3.484-.028 5.227a17.985 17.985 0 0 1-.276 3.385 21.884 21.884 0 0 0-.112 3.607 32.372 32.372 0 0 0 .716 7.146 2.563 2.563 0 0 1-.07 1.58 2.263 2.263 0 0 0-.195 1.368l-1.298 8.805a7.028 7.028 0 0 1-.769-2.4c-.811-.91-.53-2.031-.566-3.08-.068-1.93.072-3.867-.114-6.137a28.704 28.704 0 0 1-3.711 2.99 7.83 7.83 0 0 1-2.724 1.256 2.764 2.764 0 0 1-2.876-1.01 2.73 2.73 0 0 1-.345-2.853 5.17 5.17 0 0 1 .836-1.37c4.547-5.81 5.985-12.668 6.466-19.777.43-6.35.962-12.69 1.516-19.028.257-2.933.368-5.879.778-8.798a3.713 3.713 0 0 1 2.303-1.532Z"/><path fill="#282828" d="M353.088 115.019a26.495 26.495 0 0 1 10.619 13.254c.647 1.836 1.552 3.545 2.258 5.346-1.006.25-1.645-.453-2.295-.973a35.628 35.628 0 0 0-18.006-7.257 14.597 14.597 0 0 0-3.003-.01c-3.102-1.565-5.592-3.992-8.376-6.007a.622.622 0 0 1-.003-1.033 31.098 31.098 0 0 1 13.023-3.402 30.64 30.64 0 0 1 5.783.082ZM376.131 175.038a14.065 14.065 0 0 1 .96 3.463 107.352 107.352 0 0 0 3.618 11.507c.956 2.648 2 5.266 2.744 7.988a5.29 5.29 0 0 1 .33 1.768c-.651.256-.822-.3-1.03-.67-4.444-7.857-10.245-14.74-15.677-21.886a47.038 47.038 0 0 1-3.467-4.933c-.557-.971-1.148-1.354-2.184-.818-.866-1.409-.477-3.01-.617-4.508-.303-3.248-.753-6.486-.89-9.746.327-.95.725-.684 1.245-.115 5.182 5.67 10.643 11.108 14.628 17.764a.478.478 0 0 0 .34.186Z"/><path fill="#1e1e1e" d="M229.907 85.526c2.26.84 4.509 1.717 6.785 2.511a46.453 46.453 0 0 0 8.768 2.07 51.602 51.602 0 0 0 8.774.764 2.651 2.651 0 0 1 .803.024c2.243.663 4.54.276 6.81.373a10.906 10.906 0 0 1 3.785.349 1.016 1.016 0 0 0 .399.044 27.854 27.854 0 0 1 7.494 1.237 46.623 46.623 0 0 1 8.879 3.19 65.36 65.36 0 0 1 8.22 4.655 40.994 40.994 0 0 1 7.618 6.52 14.481 14.481 0 0 1 3.044 5.615 5.22 5.22 0 0 1 .133 1.394c.02.94.008 1.882.009 2.823-.349 2.048-1.701 3.471-3.045 4.902a.605.605 0 0 1-.544-.047c-.07-.107-.218-.236-.195-.318a4.997 4.997 0 0 1 .358-.923 10.631 10.631 0 0 0-1.973-12.072 40.417 40.417 0 0 0-6.687-5.744 54.237 54.237 0 0 0-17.32-7.755 25.742 25.742 0 0 0-7.713-1.047 2.25 2.25 0 0 1-.802-.022c-2.172-.651-4.398-.285-6.598-.375-1.667-.068-3.356.194-4.988-.372a2.026 2.026 0 0 0-.6-.03c-1.269-.026-2.524-.171-3.784-.304-1.868-.197-3.688-.57-5.522-.906a47.414 47.414 0 0 1-5.436-1.371 77.574 77.574 0 0 1-8.25-3.138c-.618-.27-.521-.676-.348-1.144a4.005 4.005 0 0 1 1.926-.903Z"/><path fill="#282828" d="M319.998 92.105a40.032 40.032 0 0 1 6.798 2.83 92.612 92.612 0 0 1 9.673 5.62c.324.218.608.497.91.748-2.748 1.485-5.645 2.668-8.344 4.26a68.325 68.325 0 0 0-8.42 6.428c-.838.688.877.842.042 1.251a3.054 3.054 0 0 1-2.47-.186c-1.208-.561-2.615.073-3.799-.628-.566-.628-.262-1.275.02-1.873a72.485 72.485 0 0 0 5.412-18.092 1.047 1.047 0 0 1 .178-.358Z"/><path fill="#282828" d="M339.015 102.424a27.45 27.45 0 0 1 4.887 3.802c2.182 2.06 4.228 4.263 6.332 6.404-1.487.936-3.213.712-4.834.967a39.318 39.318 0 0 0-13.162 4.029 1.313 1.313 0 0 1-1.17.022 60.087 60.087 0 0 0-9.48-3.87.832.832 0 0 1-.509-.58c5.583-4.25 11.235-8.384 17.936-10.774Z"/><path fill="#1e1e1e" d="M272.797 77.132a31.504 31.504 0 0 1 3.958 2.973 15.568 15.568 0 0 0 1.897 1.47c1.662 1.012 3.066 2.356 4.614 3.515.798.597 1.418 1.425 2.174 2.086 4.04 3.527 7.707 7.44 11.572 11.147a22.55 22.55 0 0 1 6.827 12.218c.113.582.315 1.147.555 2.005a29.09 29.09 0 0 0 1.857-6.068c.255-1.373.476-2.752.687-4.132a10.89 10.89 0 0 0 .127-1.595c.012-2.951.007-5.902.005-8.852a7.866 7.866 0 0 0-.228-1.983 2.815 2.815 0 0 1 .21-2.677 4.332 4.332 0 0 1 2.081.774 3.437 3.437 0 0 1 .881 2.184 62.36 62.36 0 0 1-1.379 19.668 6.79 6.79 0 0 1-1.692 3.564c-1.132.818-2.384 1.46-3.517 2.285a1.787 1.787 0 0 1-.564.16l-.294-.008c-.533-.88-.435-1.92-.73-2.868-.573-1.847-.914-3.758-1.556-5.593a15.309 15.309 0 0 0-3.47-5.58c-3.255-3.381-6.62-6.658-9.94-9.977-2.321-1.502-4.01-3.715-6.145-5.446-2.437-1.977-5.023-3.758-7.402-5.796a33.493 33.493 0 0 1-3.913-3.37l3.026-.166a.256.256 0 0 1 .359.062Z"/><path fill="#282828" d="M370.856 150.066a7.196 7.196 0 0 1 .6 2.703c.554 3.014 1.251 5.995 1.934 8.98.639 2.791 1.228 5.593 1.829 8.391a2.792 2.792 0 0 1 0 .595c-1.707-1.553-2.84-3.574-4.335-5.304q-4.927-5.699-10.34-10.93a3.778 3.778 0 0 0-1.023-.63 2.74 2.74 0 0 1-.95-1.263c-1.636-3.864-3.429-7.658-5.11-11.502a1.513 1.513 0 0 1-.107-.974c.837-.679 1.538-.062 2.202.301a59.357 59.357 0 0 1 13.331 9.313c.563.55 1.143 1.27 1.97.32Z"/><path fill="#da9b76" d="M175.208 261.078a1.005 1.005 0 0 0-.434.856c-.009.67-.003 1.341-.023 2.011-.005.18.018.437-.274.43a.47.47 0 0 1-.328-.17c-.345-.492-.699-.983-.993-1.506-2.101-3.73-4.404-7.335-6.858-10.84a35.104 35.104 0 0 0-9.277-9.047 21.884 21.884 0 0 0-2.487-1.311 1.3 1.3 0 0 1-.803-1.065 3.439 3.439 0 0 1 2.752-3.088 4.464 4.464 0 0 0 1.436-.675 4.576 4.576 0 0 1 1.941-1.014c.053.254.04.612.31.684a5.537 5.537 0 0 1 2.717 1.859 2.857 2.857 0 0 0 1.339.805c1.47.28 1.774 1.8 2.76 2.595a3.334 3.334 0 0 1 .323.43 6.59 6.59 0 0 0 .59.873c.479.55.883 1.155 1.323 1.736 2.91 4.64 5.356 9.473 6.303 14.941a1.592 1.592 0 0 1-.317 1.496Z"/><path fill="#282828" d="M367.596 137.228a12.478 12.478 0 0 1 1.251 3.532 40.95 40.95 0 0 1 1.662 7.36c-.92.4-1.333-.385-1.85-.834a72.024 72.024 0 0 0-15.414-9.785 5.151 5.151 0 0 0-1.545-.429 2.02 2.02 0 0 1-1.174-1.03 61.735 61.735 0 0 0-4.664-6.519c-.453-.577-1.25-1.113-.833-2.079a4.018 4.018 0 0 1 2.916-.163c6.405.988 11.812 4.007 16.706 8.116.88.739 1.561 1.873 2.945 1.83Z"/><path fill="#1e1e1e" d="M191.757 179.919a11.198 11.198 0 0 1-.224 2.987 12.034 12.034 0 0 1-1.679 2.473c-2.104 3.099-4.137 6.248-6.312 9.297-2.448 3.431-4.762 6.955-7.222 10.373-2.427 3.372-4.632 6.884-6.856 10.381a86.747 86.747 0 0 0-7.69 14.998 14.139 14.139 0 0 1-1.566 3.65 18.196 18.196 0 0 1-.423-4.342 12.33 12.33 0 0 1 1.566-4.727 120.446 120.446 0 0 1 10.146-17.323c2.99-4.361 5.918-8.764 8.908-13.125 3.367-4.909 6.774-9.79 10.159-14.687a2.745 2.745 0 0 1 1.167-1.071.8.8 0 0 1 .026 1.116Z"/><path fill="#282828" d="M306.263 113.467c1.392-1.167 1.616-2.88 1.984-4.479.49-2.133.85-4.301 1.161-6.47a28.038 28.038 0 0 0 .087-3.208 6.939 6.939 0 0 1 .253-2.58 1.461 1.461 0 0 0 .061-.976 9.423 9.423 0 0 1-.286-3.975c.076-1.296-.386-2.5-.39-3.766.381.1.774.167 1.141.303q4.017 1.485 8.022 3a2.52 2.52 0 0 1 .483.322c-1.335 4.265-1.981 8.717-3.535 12.924-.601 1.629-1.186 3.262-1.933 4.83-.93 1.956-.932 1.955.983 2.783.995.025 1.99.054 2.986.072a1.301 1.301 0 0 1 1.086.374 1.036 1.036 0 0 1-.65.437c-3.703.318-7.43.194-11.128.628-.101.012-.219-.138-.325-.22Z"/><path fill="#da9b76" d="M390.604 231.212a8.978 8.978 0 0 1-.166 2.393c-.274.799-1.295.863-1.947 1.312a7.875 7.875 0 0 0-.936.758 43.974 43.974 0 0 0-6.299 7.287c-1.048 1.547-2.285 2.967-3.415 4.46-.481.636-.905 1.316-1.355 1.975-1.103-1.58-.597-3.372-.537-5.05.156-4.327 1.019-8.482 3.599-12.123a8.69 8.69 0 0 1 1.781-2.137 7.803 7.803 0 0 1 5.624-3.304 3.399 3.399 0 0 1 2.996 1.962 4.61 4.61 0 0 1 .655 2.467Z"/><path fill="#1e1e1e" d="m361.874 171.65.141-1.753a.754.754 0 0 1 .868.44 107.543 107.543 0 0 0 6.268 8.785c1.31 1.678 2.651 3.332 3.95 5.02 1.381 1.793 2.784 3.575 4.078 5.43a165.79 165.79 0 0 1 5.692 8.698c.3.494.27 1.211.913 1.494a20.206 20.206 0 0 1 1.203 5.946l-.184 1.607a60.185 60.185 0 0 0-3.715-7.11c-1.604-2.616-3.245-5.214-4.965-7.755-1.27-1.875-2.677-3.658-4.053-5.458-1.294-1.692-2.662-3.328-3.938-5.033-1.836-2.455-3.604-4.961-5.437-7.418-.326-.437-.244-1.064-.744-1.386a1.043 1.043 0 0 1-.077-1.506ZM367.596 137.228c-.061.318.044.674-.265 1.015-.879-.687-1.797-1.333-2.634-2.07a39.73 39.73 0 0 0-8.566-5.837 30.595 30.595 0 0 0-7.203-2.347 12.782 12.782 0 0 0-3.959-.404 2.45 2.45 0 0 1-2.396-2.45c1.042-.737 2.21-.427 3.293-.269a52.631 52.631 0 0 1 5.87 1.165 28.297 28.297 0 0 1 8.449 3.628c1.949 1.287 3.855 2.638 5.78 3.96a9.937 9.937 0 0 1 1.63 3.609ZM359.855 153.909c.108-.18.272-.352.464-.215a7.436 7.436 0 0 1 .89.796c1.892 1.885 3.895 3.676 5.638 5.69 2.04 2.36 4.26 4.562 6.115 7.092a20.583 20.583 0 0 1 2.258 3.463 18.564 18.564 0 0 1 .911 4.303c-.113.168-.321.383-.458.226a13.344 13.344 0 0 1-1.585-2.046 43.234 43.234 0 0 0-3.9-5.325 85.737 85.737 0 0 0-8.401-9.167 15.064 15.064 0 0 1-1.457-2.108 1.861 1.861 0 0 1-.475-2.71ZM351.767 137c.142-.233.312-.467.617-.405a3.224 3.224 0 0 1 .74.293 83.33 83.33 0 0 1 11.263 6.468 29.483 29.483 0 0 1 5.138 4.11 1.79 1.79 0 0 0 .984.654 3.431 3.431 0 0 1 .347 1.946l-.147 1.449a5.947 5.947 0 0 1-2.342-1.561 45.957 45.957 0 0 0-8.739-6.6c-1.323-.769-2.615-1.594-3.951-2.34a5.815 5.815 0 0 0-2.192-.94c-1.552-.477-1.804-1.68-1.718-3.073Z"/><path fill="#1f1f1e" d="M314.294 112.175c-.671.013-1.343.048-2.014.032-.546-.013-.731-.307-.53-.79.59-1.425 1.345-2.769 1.93-4.204a65.883 65.883 0 0 0 3.043-9.769c.32-1.363.737-2.703.93-4.105.09-.639.138-1.549 1.126-1.7a1.675 1.675 0 0 1 1.218.465 2.147 2.147 0 0 1 .295 1.33 107.502 107.502 0 0 1-3.573 13.054c-.482 1.31-1.083 2.575-1.632 3.859-.261.61-.529 1.219-.793 1.828Z"/><path fill="#1e1e1e" d="M339.015 102.424c-.294.777-.997 1.03-1.68 1.3a49.34 49.34 0 0 0-9.327 4.938 20.183 20.183 0 0 0-3.116 2.474 23.718 23.718 0 0 1-2.023 1.61c-.522.42-1.152.242-1.73.346a.23.23 0 0 1-.347-.056c-.176-.426-.745-.275-1.011-.736.537-.555 1.052-1.176 1.655-1.693a45.29 45.29 0 0 1 9.669-6.755c1.269-.612 2.539-1.225 3.779-1.892a5.23 5.23 0 0 1 2.495-.657 3.698 3.698 0 0 1 1.636 1.121ZM332.06 117.547a1.123 1.123 0 0 1 .803-1.036 49.135 49.135 0 0 1 9.682-3.019 39.66 39.66 0 0 1 7.69-.861 16.471 16.471 0 0 1 2.853 2.388 1.164 1.164 0 0 1-1.057.451c-.805 0-1.61.02-2.414 0a35.669 35.669 0 0 0-14.788 3.052 5.635 5.635 0 0 1-.773.204c-1.099.34-1.717-.131-1.995-1.18Z"/><path fill="#ccc" d="M386.12 429.724a9.865 9.865 0 0 0 .395 1.127c.94 1.928 2.069 3.749 3.172 5.586 1.863 3.1 3.962 6.034 6.081 8.96.75 1.033 1.842 1.776 2.396 2.959.084.18.238.328.31.51.042.105.03.315-.036.36a.894.894 0 0 1-.53.18 1.454 1.454 0 0 1-.96-.673c-.997-1.256-2.031-2.488-2.956-3.796a104.918 104.918 0 0 1-8.124-12.896c-.606-1.193-1.288-2.347-1.936-3.518a.582.582 0 0 1 .195-.86 5.8 5.8 0 0 1 1.615 1.641c.135.132.245.287.383.417Z"/><path fill="#c58972" d="M387.748 430.508a.358.358 0 0 1-.419-.402 1.692 1.692 0 0 1 1.3.373l-.88.029Z"/><path fill="#efefef" d="M147.502 420.511a.517.517 0 0 1-.541.331.528.528 0 0 1 .54-.33ZM386.125 429.72l-.383-.416Z"/><path fill="#363415" d="M142.167 465.946c1.274.057 2.55.084 3.82.175 2.48.178 4.952.464 7.434.576 6.783.308 13.573.402 20.356.056 4.897-.25 9.784-.7 14.678-1.013 2.953-.19 5.893-.47 8.815-.93a90.826 90.826 0 0 0 22.281-6.04 69.86 69.86 0 0 0 8.367-4.41 11.134 11.134 0 0 0 1.199-.739 2.327 2.327 0 0 1 3.094.008 147.178 147.178 0 0 0 17.457 9.596c7.256 3.5 14.347 7.325 21.439 11.144 6.264 3.373 12.507 6.787 18.921 9.872a3.396 3.396 0 0 1 .488.349 1.226 1.226 0 0 1-1.09.383c-2.016-.002-4.031.01-6.047-.014a7.584 7.584 0 0 1-1.381-.213 10.153 10.153 0 0 0-4.191-.007 10.16 10.16 0 0 1-2.188.231c-3.225.004-6.45-.004-9.675.01a11.209 11.209 0 0 0-3.79.324 4.44 4.44 0 0 1-1.4.069c-1.545.007-3.09 0-4.636.007a7.774 7.774 0 0 0-2.587.272 5.027 5.027 0 0 1-1.595.122q-6.148.012-12.295.004a6.49 6.49 0 0 1-2.186-.258 4.632 4.632 0 0 0-1.392-.135c-.873-.02-1.749-.041-2.62 0a21.84 21.84 0 0 1-7.088-1.178 5.06 5.06 0 0 1-3.648-3.676c-.355-1.22-.773-2.422-1.093-3.65a2.445 2.445 0 0 0-1.556-1.713 5.696 5.696 0 0 0-1.514-.525 29.848 29.848 0 0 0-4.364-.57c-1.207.05-2.418.005-3.628.013a6.231 6.231 0 0 0-2.582.284 1.243 1.243 0 0 1-.592.093c-2.357-.218-4.66.45-7.004.423a33.143 33.143 0 0 0-3.37.468 63.119 63.119 0 0 0-6.307 1.034c-.985.191-1.98.13-2.979.387-1.407.362-2.937.236-4.356.57-1.904.45-3.876.13-5.76.679a6.584 6.584 0 0 1-1.603.09 11.995 11.995 0 0 0-3.79.332 4.653 4.653 0 0 1-1.4.072 9.617 9.617 0 0 0-3.384.33 3.023 3.023 0 0 1-1 .071 8.393 8.393 0 0 0-2.983.32 3.67 3.67 0 0 1-1.198.084 8.13 8.13 0 0 0-2.784.307 4.41 4.41 0 0 1-1.397.097 12.157 12.157 0 0 0-3.59.324 6.478 6.478 0 0 1-1.802.082 10.68 10.68 0 0 0-3.388.315 5.471 5.471 0 0 1-1.6.087 14.309 14.309 0 0 0-4.192.34 5.354 5.354 0 0 1-1.603.063c-2.956.004-5.912-.006-8.868.006a31.128 31.128 0 0 1-6.34-.825 3.329 3.329 0 0 1-1.113-.432 1.594 1.594 0 0 1-.549-2.112 6.212 6.212 0 0 1 1.843-2.099 8.95 8.95 0 0 0 .98-.692c1.741-1.967 3.962-3.413 5.754-5.322a12.694 12.694 0 0 0 1.831-2.129 2.701 2.701 0 0 1 2.718-1.339c1.335.083 2.681-.023 4.023-.048ZM346.957 492.942a1.631 1.631 0 0 1 .277-.28c4.578-2.805 9.125-5.663 13.747-8.393a79.742 79.742 0 0 1 22.957-8.977 90.04 90.04 0 0 0 9.351-2.389c.887-.306 1.776-.612 2.639-.979a12.392 12.392 0 0 0 5.262-3.937 6.857 6.857 0 0 1 4.162-2.597 43.258 43.258 0 0 1 14.81-.816c6.874.758 13.649 2.156 20.462 3.31 4.3.728 8.61 1.389 12.92 2.062a25.265 25.265 0 0 1 3.987.487c.322.449.804.42 1.274.422 1.745.006 3.49.008 5.236.017a4.6 4.6 0 0 1 1 .06c.15.035.29.247.364.41.036.08-.064.261-.151.348a2.503 2.503 0 0 1-1.602.757 43.258 43.258 0 0 0-5.538.781 7.74 7.74 0 0 1-1.406.047 5.937 5.937 0 0 0-2.184.252 2.49 2.49 0 0 1-.987.14 38.457 38.457 0 0 0-5.744.719c-3.256.37-6.438 1.091-9.648 1.686-1.704.316-3.359.858-5.1 1.01-1.457.126-2.898.438-4.34.675-4.276.702-8.567.174-12.844.365-1.09.049-2.075-.491-3.173-.427a7.873 7.873 0 0 1-3.184-.291 5.284 5.284 0 0 0-1.598-.093 18.672 18.672 0 0 1-2.184-.23c-2.472-.35-4.93-.409-7.232.894-1.4.792-2.876 1.447-4.315 2.171a41.317 41.317 0 0 1-6.72 2.611c-2.881.868-5.765 1.74-8.689 2.418q-6.147 1.428-12.25 3.02c-4.783 1.245-9.549 2.557-14.316 3.862-1.417.389-2.813.857-4.221 1.28a.791.791 0 0 1-1.022-.395Z"/><path fill="#f7bc9a" d="M347.708 424.857c.038 3.425.018 6.852.134 10.275a43.722 43.722 0 0 1-.55 7.611 78.626 78.626 0 0 1-2.053 10.227c-.525 1.87-.968 3.761-1.485 5.633a55.659 55.659 0 0 1-2.563 6.553c-.595 1.423-1.236 2.832-1.724 4.292a17.685 17.685 0 0 1-1.63 3.448c-.517.868-.929 1.778-1.363 2.686-1.477 3.09-3.017 6.148-4.549 9.21a4.71 4.71 0 0 1-.77 1.177c-1.905 1.97-2.421 4.556-3.183 7.037a2.536 2.536 0 0 0-.099 1.761c.202.522-.174.876-.551 1.184a.873.873 0 0 1-1.117-.022 7.074 7.074 0 0 1-1.108-.853 71.883 71.883 0 0 0-11.208-8.485c-1.962-1.288-3.966-2.514-5.911-3.828a77.622 77.622 0 0 0-6.761-3.975 124.782 124.782 0 0 1-11.862-6.813c-2.376-1.633-4.808-3.187-7.25-4.72-1.987-1.249-4.019-2.427-6.044-3.613a56.846 56.846 0 0 1-8.907-6.51 63.386 63.386 0 0 1 7.772-8.562c3.33-2.991 6.87-5.743 10.032-8.924a6.09 6.09 0 0 1 2.79-1.889 39.802 39.802 0 0 1 6.434-.13c17.79.52 34.425-3.795 50.191-11.844 1.02-.52 1.988-1.483 3.335-.926Z"/><path fill="#eaab86" d="M287.29 438.196c-.645.58-1.322 1.125-1.927 1.743a63.419 63.419 0 0 1-6.618 5.829 1.192 1.192 0 0 0-.151.132c-2 2.173-4.536 3.782-6.439 6.048a46.518 46.518 0 0 1-3.78 4.154c-.388.363-.813.688-1.221 1.03l-6.907-5.49c-2.88-2.289-5.768-4.57-8.641-6.868a628.604 628.604 0 0 1-5.606-4.555c-1.967-1.61-3.944-3.21-5.878-4.858a60.032 60.032 0 0 1-5.136-4.448c.784-.685 1.664-.352 2.497-.188 11.203 2.203 22.442 4.17 33.801 5.385 4.2.45 8.396.96 12.626 1.094 1.196.038 2.439.032 3.38.992Z"/><path fill="#cacaca" d="M194.165 358.296a1.775 1.775 0 0 1 .343 1.327q-.01 9.37-.025 18.741c-.458 2.457-.142 4.967-.446 7.417-.266 2.147-.174 4.285-.31 6.423a7.166 7.166 0 0 1-2.394-2.655 54.412 54.412 0 0 1-4.682-7.471 42.128 42.128 0 0 1-3.267-9.034 25.55 25.55 0 0 1-.493-8.576 6.311 6.311 0 0 1 3.455-5.313 5.274 5.274 0 0 1 3.526-.3c1.112.22 2.201.55 3.305.812.771.183.818.133.936-.77.026-.2.035-.4.052-.6Z"/><path fill="#1f1e1e" d="M287.29 438.196c-1.066-.116-2.128-.281-3.196-.34-5.491-.306-10.95-.928-16.41-1.569-10.59-1.242-21.073-3.112-31.507-5.277a9.364 9.364 0 0 0-1.192-.098 17.976 17.976 0 0 1-3.534-2.834 31.005 31.005 0 0 1 5.73 1.048q9.38 1.889 18.82 3.446 8.454 1.385 16.972 2.26a191.613 191.613 0 0 0 26.755 1.326 11.85 11.85 0 0 0 3.789-.345 58.055 58.055 0 0 0 9.965-1.047 105.305 105.305 0 0 0 29-9.712c1.324-.644 2.656-1.27 3.976-1.919a1.808 1.808 0 0 1 1.333-.29l-.082 2.012c-3.892 1.79-7.709 3.74-11.669 5.385a98.314 98.314 0 0 1-38.702 7.991c-2.883 0-5.765-.054-8.647-.078-.467-.004-.935.026-1.402.041Z"/><path fill="#eaab86" d="m199.334 398.685.44.35a.489.489 0 0 1-.44-.35Z"/><path fill="#f7bc9a" d="M373.248 257.506a22.967 22.967 0 0 1-.374 5.2 8.438 8.438 0 0 0-.054 2.007 7.055 7.055 0 0 1-.308 2.781.854.854 0 0 0-.06.396c.181 2.157-.423 4.258-.44 6.4a3.498 3.498 0 0 1-.038 1.003c-.524 1.64-.204 3.34-.4 4.992-.259 2.2-.2 4.418-.44 6.6a54.822 54.822 0 0 1-1.365 7.881 30.134 30.134 0 0 1-5.438 11.309 7.395 7.395 0 0 0-.513.619 2.554 2.554 0 0 0 .051 2.482 2.441 2.441 0 0 0 2.461.938 6.888 6.888 0 0 0 2.362-1.08c1.418-1.1 3.074-1.927 4.026-3.559a.382.382 0 0 1 .343-.138c.164.077.387.22.411.366a9.906 9.906 0 0 1 .143 1.591c.016 2.753.013 5.507.017 8.26l-4.59 6.32c-1.53 2.113-3.097 4.19-4.826 6.151-1.368 1.552-2.575 3.245-3.89 4.844-1.742 2.115-3.334 4.347-5.253 6.324-1.486 1.53-2.784 3.243-4.19 4.854-.616.707-1.294 1.36-1.94 2.042-2.398 2.529-4.742 5.11-7.21 7.57-1.415 1.41-3.029 2.622-4.555 3.92-.153.13-.339.226-.477.369a54.057 54.057 0 0 1-4.762 3.992 72.634 72.634 0 0 0-5.923 5.431 58.862 58.862 0 0 1-5.589 4.876c-.366.29-.684.644-1.026.965a27.031 27.031 0 0 1-12.26 6.936c-.178.042-.322.224-.481.34-1.275.771-2.565 1.394-4.022.421-1.343-.003-2.687-.001-4.03-.01a18.25 18.25 0 0 1-2.785-.27c-1.377-.22-2.782-.315-4.168-.532a111.168 111.168 0 0 1-14.9-3.013c-1.926-.58-3.842-1.173-5.695-1.936a29.637 29.637 0 0 1-6.236-3.64c-3.013-2.221-6.036-4.432-8.964-6.762-2.296-1.827-4.723-3.546-6.36-6.076a1.78 1.78 0 0 0-.267-.3 44.478 44.478 0 0 1-6.572-8.595 79.25 79.25 0 0 1-5.986-11.138 114.718 114.718 0 0 1-4.68-14.079c-.72-2.576-1.517-5.131-2.297-7.69-.742-2.434-1.47-4.873-2.274-7.286a26.203 26.203 0 0 0-3.383-6.806A24.96 24.96 0 0 0 221 299.05a56.025 56.025 0 0 1-4.46-5.155c-.8-.985-1.631-1.951-2.462-2.908a76.422 76.422 0 0 1-7.55-10.122 48.232 48.232 0 0 1-3.728-7.113c-1.002-2.486-2.03-4.958-2.86-7.507a62.161 62.161 0 0 1-2.101-8.56c-.31-1.769-.486-3.566-.848-5.332a8.064 8.064 0 0 1-.043-1.408 9.902 9.902 0 0 0-.308-3.188 4.992 4.992 0 0 1-.09-1.6q-.01-3.627-.002-7.255a5.354 5.354 0 0 1 .252-2.185 1.286 1.286 0 0 0 .12-.587c-.205-2.424.458-4.794.435-7.206a6.643 6.643 0 0 1 .27-2.385 3.484 3.484 0 0 0 .118-1.393c-.112-1.56.44-3.037.542-4.57a1.77 1.77 0 0 1 .246-.547c.857-.141 1.71-.322 2.572-.414 1.73-.185 3.466-.307 5.196-.483a1.354 1.354 0 0 1 1.575.91c.536 1.297 1.189 2.55 1.668 3.867 1.463 4.022 2.73 8.11 3.97 12.207a75.45 75.45 0 0 0 3.686 10.39 20.033 20.033 0 0 0 5.77 7.096c.362.292.706.607 1.058.911.11.38.528.304.754.512l.022.015c.124.152.234.325.458.345l-.01-.027c.727.842.228 1.179-.578 1.32a23.186 23.186 0 0 1-3.019.098c-5.159.224-9.407 2.06-12.004 6.806-1.257 2.297-3.23 4.05-5.04 6.493a5.846 5.846 0 0 0 2.827-2.101c.844-1.227 2.112-1.136 2.244.242.498 5.194 5 6.629 8.26 9.238a2.912 2.912 0 0 0 2.289.57c5.222-.714 10.394-1.563 14.582-5.189a5.475 5.475 0 0 1 2.571-1.099 76.618 76.618 0 0 0 11.095-3.635c4.534-1.682 8.142-4.118 8.531-9.49 1.271-.383 2.544-.761 3.813-1.15a23.533 23.533 0 0 0 7.509-3.689c1.19.428.464 1.14.194 1.691a55.968 55.968 0 0 1-2.851 5.083 37.514 37.514 0 0 0-3.187 6.924 5.735 5.735 0 0 1-2.379 3.095 76.122 76.122 0 0 0-9.254 6.393c-4.769 4.063-8.728 8.684-10.582 14.835-.501 1.665-1.262 3.245-1.928 4.855a13.113 13.113 0 0 1-2.737 2.343c-2.704 2.274-5.106 4.74-5.951 8.364a7.84 7.84 0 0 0 .155 4.353c.804 2.454 2.167 3.092 4.451 1.806q4.39-2.471 8.905-4.684a6.528 6.528 0 0 1 2.237-.87 2.84 2.84 0 0 1 1.94 1.068c.141.121.272.254.402.388.138.127.267.264.397.4.465.497.981.938 1.478 1.404a53.052 53.052 0 0 0 17.77 11.892 26.944 26.944 0 0 0 7.664 1.55 178.838 178.838 0 0 0 18.496.407c4.481-.03 8.95.325 13.446.078a50.454 50.454 0 0 0 10.926-1.567c5.28-1.482 9.133-4.933 12.06-9.484.285-.44.648-.817.971-1.226.64-.774 1.142-1.75 2.379-1.682a46.342 46.342 0 0 1 6.171 2.9 21.414 21.414 0 0 0 4.124 1.577c3.266.767 5.43-1.397 4.697-4.693a11.387 11.387 0 0 0-2.928-5.409c-3.828-4.074-8.53-6.928-13.424-9.429-6.109-3.12-12.048-6.454-17.233-11-.601-.526-1.327-.936-1.506-1.81-.037-1.194.91-1.38 1.734-1.606a12.416 12.416 0 0 0 3.933-1.512 5.546 5.546 0 0 1 5.834-.422 88.075 88.075 0 0 1 8.392 3.918c3.715 2.036 6.598 4.842 7.95 9.006a14.777 14.777 0 0 0-2.421-5.084c-3.393-4.86-7.874-8.605-12.518-12.159a8.563 8.563 0 0 1-3.215-4.457 30.018 30.018 0 0 0-3.48-7.021c-.468-.751-1.3-1.463-.68-2.53a65.825 65.825 0 0 0 7.995 3.569 20.75 20.75 0 0 0 5.413 1.295 5.303 5.303 0 0 1 1.934.42c1.367.47 2.776.171 4.162.19 1.947.025 3.886-.105 5.632 1.03 1.083.704 2.249-.113 3.321.044 4.7.69 9.312-1.154 14.025-.374 1.106.183 3.038.32 2.975-1.448-.053-1.479-1.837-1.234-2.973-1.286a19.652 19.652 0 0 0-5.805.104c-.792.198-1.777.091-2.002-1.082l.036-.018c.214-.214.568-.133.773-.366l.057-.026c.196-.233.55-.149.749-.375 4.504-2.65 7.584-6.656 10.482-10.867a75.944 75.944 0 0 0 5.874-10.019c.303-.626.467-1.444 1.349-1.62a1.568 1.568 0 0 1 .45 1.465 131.356 131.356 0 0 0 .04 15.413Z"/><path fill="#282828" d="M175.126 259.566c-.377-1.342-.77-2.68-1.127-4.029a16.405 16.405 0 0 0-1.17-3.194 65.627 65.627 0 0 0-3.97-7.423 1.637 1.637 0 0 1-.136-.371 37.783 37.783 0 0 1 5.228-12.116 1.886 1.886 0 0 1 .858-.81q4.604-2.658 9.192-5.344a1.729 1.729 0 0 1 .953-.247 52.947 52.947 0 0 1-1.552 6.003c-.455 1.674-.907 3.35-1.38 5.02a45.354 45.354 0 0 0-1.203 8.71 109.93 109.93 0 0 0-5.693 13.801ZM179.184 281.607a1.699 1.699 0 0 1-1.662-1.693c-.088-.799-.246-1.595-.266-2.396a98.861 98.861 0 0 0-1.088-10.597c-.133-.992-.133-2.002-.194-3.003.281-4.409 2.01-8.375 3.787-12.323a1.693 1.693 0 0 1 1.11-1.076 8.184 8.184 0 0 1 .228 1.17c.118 2.278.2 4.555.467 6.826q.608 5.194 1.063 10.406c.238 2.739.366 5.486.543 8.23a2.783 2.783 0 0 0-.324 1.517 2.607 2.607 0 0 1-1.816 2.332c-.604.26-1.318.151-1.848.607Z"/><path fill="#db9b76" d="M302.639 380.91c1.376.204 2.663-.449 4.02-.421a20.538 20.538 0 0 0 5.883-1.105 42.633 42.633 0 0 0 7.654-3.019c1.206-.619 1.676-.662 1.71-.237.066.836-.693.891-1.177 1.157a36.248 36.248 0 0 1-8.379 3.356 23.358 23.358 0 0 1-6.297 1.07 1.929 1.929 0 0 0-.602.023c-1.97.624-3.995.348-5.997.369-3.693.037-7.387.015-11.08.004a9.276 9.276 0 0 1-3.582-.338.99.99 0 0 0-.398-.045 20.528 20.528 0 0 1-3.58-.364c-1.184-.163-2.38-.222-3.575-.407a67.187 67.187 0 0 1-8.757-2.112 98.258 98.258 0 0 1-10.903-4.085c-3.273-1.407-6.453-2.998-9.578-4.68a68.176 68.176 0 0 1-11.014-7.324 20.965 20.965 0 0 0-3.263-2.658 1.077 1.077 0 0 1-.392-.66.756.756 0 0 1 .198-.52.383.383 0 0 1 .367-.001c.801.6 1.59 1.216 2.379 1.832 1.948 1.522 3.84 3.124 5.859 4.545 1.583 1.113 3.348 1.963 4.987 3.001 1.99 1.26 4.129 2.23 6.221 3.29a101.642 101.642 0 0 0 10.512 4.526 71.919 71.919 0 0 0 13.114 3.62c2.106.357 4.238.505 6.338.827 2.074.319 4.169.079 6.195.405 3.816.615 7.632.185 11.442.335.583.023 1.227.164 1.695-.385Z"/><path fill="#1f1e1e" d="M180.87 250.519a50.531 50.531 0 0 0-4.476 12.536 1.274 1.274 0 0 1-.42.863c-.13-.51-.277-1.015-.386-1.528a2.693 2.693 0 0 0-.38-1.312l-.082-1.512c-.22-2.094.85-3.867 1.486-5.733a56.124 56.124 0 0 1 3.205-6.879c.239-.478.448-.978 1.002-1.189a31.524 31.524 0 0 1 .052 4.754Z"/><path fill="#f7bc9a" d="m297.84 121.95.322-.08a2.367 2.367 0 0 1 1.763-.153c8.974 2.186 17.799 4.722 25.395 10.316 6.467 4.762 10.782 11.165 14.009 18.37a171.152 171.152 0 0 1 8.081 23.622 80.439 80.439 0 0 0 14.733 29.315 34.84 34.84 0 0 0 6.074 6.135c.879.901.977 2.117 1.308 3.24.097.361.196.724.258 1.095a.6.6 0 0 1-.185.496 2.264 2.264 0 0 1-2.267-.865c-.194-.242-.361-.507-.54-.76a45.31 45.31 0 0 0-12.716-7.538 40.26 40.26 0 0 0-14.719-2.802c-8.45-.005-16.887.065-25.233 1.618-.528.098-1.059.176-1.58.3-2.308.547-2.435.71-2.371 3.055a1.334 1.334 0 0 1-.259.942c0 .333-.012.666.004.999a.867.867 0 0 1-.428.84c-.227.142-.459.275-.69.41a34.727 34.727 0 0 0-7.469 5.722 2.334 2.334 0 0 1-2.302.717 42.442 42.442 0 0 0-15.169.102c-.327.069-.66.111-.992.154a1.172 1.172 0 0 1-1.071-.422c-.222-.25-.434-.51-.651-.764a22.408 22.408 0 0 0-3.654-3.426c-1.824-1.36-3.624-2.75-5.425-4.141a3.914 3.914 0 0 1-.52-.602 1.723 1.723 0 0 1-.314-1.133c.035-2.777.023-2.747-2.679-3.478a79.717 79.717 0 0 0-20.192-3.257 42.997 42.997 0 0 0-22.67 5.927 8.97 8.97 0 0 1-2.022.874 2.615 2.615 0 0 1-.613.226l-.326.028c-2.26 1.28-4.798 1.589-7.286 2.029-4.348.768-8.704 1.51-13.107 1.882-1.023.086-1.92.59-2.932.616-.842-1.827-.138-3.683-.041-5.513.152-2.879.587-5.748.604-8.631a167.196 167.196 0 0 1 2.718-27.839 131.662 131.662 0 0 1 4.975-20.965 45.9 45.9 0 0 1 2.554-6.136 4.783 4.783 0 0 1 2.607-1.759c10.124-4.368 20.847-6.374 31.658-8.027 1.388-.213 2.789-.346 4.157-.677 2.033-.228 4.044-.604 6.062-.936 4.734-.487 9.422-1.323 14.152-1.848 3.26-.362 6.533-.636 9.767-1.201 1.5-.29 3.017-.508 4.5-.89a15.128 15.128 0 0 1 4.674-.717 13.591 13.591 0 0 0 4.764-1.66 28.707 28.707 0 0 0 4.986-2.325c.143-.07.2-.319.297-.485Z"/><path fill="#f5c4a8" d="M354.682 212.711c5.438 1.82 10.504 4.503 15.736 6.8.545.24 1.05.569 1.574.856a6.338 6.338 0 0 1 1.962 6c-.39 2.015.338 4.163-.743 6.09a10.25 10.25 0 0 1-.876 2.24c-1.332 2.558-2.634 5.131-3.945 7.7a75.067 75.067 0 0 1-8.457 13.187 19.999 19.999 0 0 1-10.187 6.842 42.374 42.374 0 0 1-11.89 1.808 27.966 27.966 0 0 1-12.317-2.488 1.916 1.916 0 0 0-.18-.089c-7.818-2.791-13.092-8.402-17.069-15.434a68.456 68.456 0 0 1-3.221-6.708c-.265-.615-.559-1.217-.839-1.825a2.465 2.465 0 0 1 .26-2.274 18.446 18.446 0 0 0 1.571-9.095c.77-2.176 2.68-3.493 4.215-4.946 2.52-2.39 4.76-5.106 7.627-7.13-2.92 1.859-4.967 4.72-7.749 6.736-.573.415-.948 1.18-1.84 1.01.057-.996-.61-1.528-1.306-2.04-.375-.907-.963-1.79-.317-2.812a41.721 41.721 0 0 1 7.234-4.27 29.39 29.39 0 0 1 2.823-1.007 73.906 73.906 0 0 1 37.934.85Z"/><path fill="#f7bc9a" d="M286.885 219.197a36.463 36.463 0 0 1 10.11.064 1.948 1.948 0 0 1 .28 1.905c-1.654 9.26.422 17.85 4.503 26.146 2.34 4.755 5.27 9.223 6.84 14.36a41.055 41.055 0 0 1 1.78 14.727c-.096 1.502-.089 3.152-1.608 4.151a2.615 2.615 0 0 1-.602.268c-3.18-.133-5.663 1.346-7.907 3.402a7.886 7.886 0 0 1-6.555 1.838 10.465 10.465 0 0 1-6.02-3.37 14.396 14.396 0 0 0-5.12-3.477c-5.42-2.31-7.684-6.872-8.29-12.371-.556-5.035 1.184-9.652 3.111-14.194 1.808-4.261 4.123-8.29 5.74-12.641a38.284 38.284 0 0 0 2.84-14.517 14.695 14.695 0 0 1 .898-6.29Z"/><path fill="#f5c4a8" d="M276.013 236.894a34.593 34.593 0 0 1-4.272 7.962c-1.132 1.584-2.369 3.093-3.56 4.634a13.627 13.627 0 0 1-6.162 4.369 47.027 47.027 0 0 1-9.354 2.354 59.912 59.912 0 0 1-7.012.69 33.887 33.887 0 0 1-12.502-1.702q-2.188-.753-4.332-1.634a14.84 14.84 0 0 1-8.477-8.414c-1.014-2.495-1.766-5.069-2.537-7.639-1.079-3.6-2.12-7.21-2.86-10.9a21.118 21.118 0 0 1-.399-5.212 11.21 11.21 0 0 1 2.699-6.395 5.447 5.447 0 0 1 2.199-1.387c.428-.186.864-.355 1.297-.532 6.2-2.626 12.738-3.446 19.396-3.839a76.4 76.4 0 0 1 28.695 3.717c.903.298 1.861.158 2.73.532l4.104 3.217c.325 1.599-.455 2.816-1.376 3.984-.542.477-1.123.918-1.617 1.441-.601.637-.446 1.204.43 1.89.723.588.63 1.425.65 2.213.039 1.532-.029 3.066.037 4.598a9.385 9.385 0 0 0 2.223 6.053Z"/><path fill="#f4b996" d="M257.008 258.611a3.576 3.576 0 0 0 .15.988 1.631 1.631 0 0 1-.11 1.53 3.752 3.752 0 0 0-.383 1.13 4.044 4.044 0 0 1-1.839 2.761c-.216.156-.509.238-.671.433-1.404 1.682-3.458 2.18-5.334 3.029-2.505 1.133-5.14 1.885-7.706 2.836a36.72 36.72 0 0 1-4.268 1.061 3.51 3.51 0 0 0-1.934.993 10.911 10.911 0 0 1-4.186 2.656 16.17 16.17 0 0 1-5.552 1.631 3.617 3.617 0 0 0-.967.246 30.049 30.049 0 0 1-4.527.772 2.347 2.347 0 0 1-1.866-.593c-1.674-1.448-3.631-2.49-5.383-3.822a6.603 6.603 0 0 1-2.983-5.209 3.351 3.351 0 0 0-.105-.791c-.127-.467-.698-.936-.99-.835a.792.792 0 0 0-.498.798 1.172 1.172 0 0 1-.742 1.092 5.443 5.443 0 0 0-1.487 1.017 1.699 1.699 0 0 1-.69.379.833.833 0 0 1-.928-.199.724.724 0 0 1 .045-.923 1.717 1.717 0 0 1 .396-.452c1.35-.919 2.003-2.457 3.168-3.546a14.787 14.787 0 0 0 2.406-3.681 6.548 6.548 0 0 1 1.971-2.244 18.078 18.078 0 0 1 4.528-2.547 15.98 15.98 0 0 1 4.291-.856c1.274-.046 2.55-.003 3.826-.013.609-.006.608-.021.61-.893 1.866.735 3.728 1.48 5.6 2.204a36.501 36.501 0 0 0 12.976 2.366 65.996 65.996 0 0 0 11.194-1.059c.66-.107 1.325-.173 1.988-.259Z"/><path fill="#eaab86" d="M210.603 142.415a1.973 1.973 0 0 1-.276 1.153 68.597 68.597 0 0 0-3.396 9.423c-1.062 3.524-1.788 7.117-2.57 10.698-.569 2.6-.934 5.245-1.377 7.872-.387 2.296-.897 4.583-1.086 6.896a33.708 33.708 0 0 0-.518 5.175 2.206 2.206 0 0 1-.023.802 16.967 16.967 0 0 0-.378 4.985 2.548 2.548 0 0 1-.02.602c-.692 2.574-.265 5.201-.379 7.802a10.541 10.541 0 0 1-.308 3.184 5.356 5.356 0 0 0-.094 1.597 10.718 10.718 0 0 1-.352 3.778.964.964 0 0 0-.039.399 23.103 23.103 0 0 1-.382 4.778c-2.435 1.193-4.877 2.37-7.301 3.584-1.422.712-2.804 1.505-4.228 2.214-.622.31-.565-.286-.671-.625-.572-1.64.3-3.137.484-4.7.148-1.262.574-2.478.72-3.744.44-1.337.255-2.878 1.3-4.018a6.747 6.747 0 0 0 .634-2.722 89.946 89.946 0 0 0 1.432-12.6c.069-2.283.173-4.565.222-6.848a4.579 4.579 0 0 0-.24-2.181 1.86 1.86 0 0 0-.026-1.116c.015-.866.046-1.73.043-2.596a51.564 51.564 0 0 1 1.063-11.127 4.85 4.85 0 0 0 .042-.793 2.039 2.039 0 0 1 .513-2.28 9.635 9.635 0 0 0 .754-2.463 29.212 29.212 0 0 1 4.24-9.213c.79-1.088 1.836-1.922 2.675-2.953l4.393-2.8c1.553-1.11 2.938-2.618 5.149-2.163Z"/><path fill="#da9b76" d="M286.885 219.197a18.93 18.93 0 0 1-.296 4.198 11.298 11.298 0 0 0-.072 3.011 29.937 29.937 0 0 1-1.522 9.868 65.299 65.299 0 0 1-4.016 10.072c-1.19 2.404-2.376 4.815-3.417 7.285a36.015 36.015 0 0 0-2.684 8.806 16.821 16.821 0 0 0 3.501 13.233 9.189 9.189 0 0 0 4.405 3.068 14.172 14.172 0 0 1 4.871 3.1 4.717 4.717 0 0 1 .57.57 8.072 8.072 0 0 0 5.269 3.031c.116.016.217.148.326.226-.487.603-1.183.54-1.846.582-4.902-.333-9.158-2.008-12.13-6.117-.941-1.301-2.098-1.22-3.39-1.01-.93.15-1.699.818-2.672.828a16.202 16.202 0 0 0-3.812-.181 9.38 9.38 0 0 1-5.748-1.494 2.06 2.06 0 0 0-2.249-.321c-5.721 2.945-11.816 5.294-16.65 9.702-2.142 1.954-4.342 4.083-4.264 7.412a2.566 2.566 0 0 1-3 1.444c-.005-1.121.738-1.99 1.025-3.02.322-1.153.835-2.253 1.238-3.385a23.161 23.161 0 0 1 4.659-7.886c.895-.99 1.682-2.066 2.626-3.022a55.95 55.95 0 0 1 9.986-7.672c.959-.61 1.886-1.273 2.877-1.823a2.49 2.49 0 0 0 1.361-1.871 8.321 8.321 0 0 1 .834-2.243c.33-.73.634-1.472.941-2.211a44.917 44.917 0 0 1 2.603-4.746c.788-1.396 1.604-2.776 2.383-4.177.145-.261-.036-.506-.263-.682a56.125 56.125 0 0 0 5.836-7.147 45.986 45.986 0 0 0 7.077-15.882 70.096 70.096 0 0 0 1.453-7.695c.101-.796.147-1.6.194-2.403a.934.934 0 0 1 .83-.977 12.335 12.335 0 0 1 3.166-.47ZM308.314 280.485c1.414-.944 1.419-2.512 1.532-3.91a32.377 32.377 0 0 0-.007-6.032 40.281 40.281 0 0 0-2.83-11.637c-.792-1.85-1.71-3.62-2.666-5.39a90.351 90.351 0 0 1-6.085-13.116 32.603 32.603 0 0 1-1.758-7.794c-.163-1.8-.27-3.591-.327-5.394a25.177 25.177 0 0 1 .758-6.949 5.4 5.4 0 0 0 .063-1.002 3.723 3.723 0 0 1 .796.018c.973.23 1.1.373 1.117 1.347.03 1.676-.003 3.355.045 5.03a34.88 34.88 0 0 0 2.235 10.986 77.873 77.873 0 0 0 4.87 10.811 38.193 38.193 0 0 0 7.991 10.275c1.297 1.157 2.746 2.144 4.122 3.213.207.16.396.343.592.515a3.641 3.641 0 0 0 .787 1.82 31.26 31.26 0 0 1 4.28 8.82 3.68 3.68 0 0 0 1.447 2.093 78.625 78.625 0 0 1 6.528 5.311 29.69 29.69 0 0 1 3.256 2.97c2.07 2.444 4.345 4.746 5.705 7.714.446.973.84 1.97 1.244 2.961a.503.503 0 0 1-.012.386 1.223 1.223 0 0 1-.386.43.365.365 0 0 1-.528-.1 13.594 13.594 0 0 1-.892-1.79 13.228 13.228 0 0 0-5.267-6.625 50.283 50.283 0 0 0-10.036-5.02c-.812-.312-1.635-.6-2.43-.952a1.442 1.442 0 0 0-1.491.167 16.604 16.604 0 0 1-5.871 2.517 5.746 5.746 0 0 0-1.137.398c-.361.146-.427.482-.472.82-1.113.417-1.68-.538-2.4-1.015a18.86 18.86 0 0 1-2.773-1.876Z"/><path fill="#282828" d="M309.913 208.256c-.222-.842-.459-1.68-.66-2.525a1.13 1.13 0 0 1 .617-1.336 5.97 5.97 0 0 1 1.328-.437 92.819 92.819 0 0 1 12.93-1.8c5.159-.357 10.317-.4 15.48-.372a37.918 37.918 0 0 1 11.302 1.625 53.342 53.342 0 0 1 11.15 5.04 27.207 27.207 0 0 1 2.942 2.103 5.143 5.143 0 0 1 1.789 2.126c-.07.341-.149.678-.626.491-1.307-.512-2.608-1.04-3.919-1.542a100.438 100.438 0 0 0-16.208-5.203 32.626 32.626 0 0 0-7.318-1.008 3.216 3.216 0 0 1-1.188-.137 6.122 6.122 0 0 0-2.183-.253c-1.811-.003-3.624.038-5.434-.015a43.022 43.022 0 0 0-7.555.72 38.068 38.068 0 0 0-9.927 3.052 9.51 9.51 0 0 1-.947.325c-.82.264-.817.261-1.303-.564a1.819 1.819 0 0 0-.27-.29Z"/><path fill="#292828" d="M223.14 206.753c4.743-2.83 9.642-5.322 15.125-6.357a54.25 54.25 0 0 1 13.627-.786 98.02 98.02 0 0 1 18.354 3.461c.194.05.385.119.575.184.976.334 1.187.554 1.123 1.603-.062 1-.26 1.992-.398 2.987a2.673 2.673 0 0 1-1.478-.585 24.019 24.019 0 0 0-5.617-2.649 40.352 40.352 0 0 0-6.951-1.916 8.521 8.521 0 0 0-1.403-.087 7.282 7.282 0 0 1-1.99-.223 5.693 5.693 0 0 0-1.587-.173c-1.678-.02-3.36-.068-5.035.012a28.714 28.714 0 0 0-4.173.476 71.27 71.27 0 0 0-7.241 1.524c-3.39 1.041-6.881 1.66-10.308 2.545-.838.216-1.687.395-2.539.546-.143.025-.328-.183-.494-.283l.042-.023a2.537 2.537 0 0 1 .368-.256Z"/><path fill="#282828" d="M369.236 213.096c-.589-1.014-.55-2.266-1.228-3.247a10.823 10.823 0 0 1-1.498-3.907c-.899-3.02-1.574-6.098-2.36-9.148a3.753 3.753 0 0 1-.098-2.366c.954-.866 1.255.176 1.615.64a208.145 208.145 0 0 1 11.902 17.106q1.599 2.547 3.09 5.156c.384.675.967 1.32.636 2.211-1.847-.719-3.702-1.42-5.54-2.163-1.472-.597-2.905-1.297-4.392-1.852a5.299 5.299 0 0 1-1.765-1.22.315.315 0 0 1-.05-.314c-.155-.28-.101-.634-.312-.896Z"/><path fill="#4b4c4b" d="M271.563 213.498c-.7-.24-1.277.454-1.954.273a38.293 38.293 0 0 1-2.693-.812 66.44 66.44 0 0 0-12.762-2.685c-2.863-.402-5.749-.416-8.62-.654a28.16 28.16 0 0 0-4.218.153c-1.939.13-3.878.186-5.816.394a89.83 89.83 0 0 0-13.39 2.665 3.457 3.457 0 0 1-1.37.256c.214-.374.614-.487.958-.676a38.691 38.691 0 0 1 8.518-3.2 8.337 8.337 0 0 1 1.77-.148c.463-.024.94.03 1.268-.403a71.802 71.802 0 0 1 24.685-.79 2.28 2.28 0 0 1 1.12.399 1.577 1.577 0 0 0 1.492.378 7.92 7.92 0 0 1 4.229 1.047 32.138 32.138 0 0 1 5.419 3.04c.425.335 1.082.208 1.364.763Z"/><path fill="#292828" d="M373.248 257.506a2.675 2.675 0 0 1-.864-1.973c-.007-.403-.054-.806-.049-1.208.052-4.568.008-9.14.424-13.697a6.178 6.178 0 0 1 1.401-3.26c.756-1.02 1.68-1.911 2.417-2.925a49.05 49.05 0 0 1 4.1-4.384c.208-.224.447-.27.652.028-.705 1.294-1.376 2.607-2.123 3.877a17.969 17.969 0 0 0-2.45 7.793c-.21 2.55-.257 5.091-.27 7.64l-1.29 6.818c-.453.727-.886 1.482-1.948 1.291Z"/><path fill="#1e1e1e" d="M381.295 219.541c-1.149-2.188-2.438-4.292-3.722-6.404-1.91-3.141-4.044-6.13-6.032-9.217-1.663-2.583-3.59-4.972-5.445-7.412a8.696 8.696 0 0 0-1.82-2.35 3.439 3.439 0 0 1-.778-4.368c.068-.183.088-.418.216-.537.179-.168.359.005.471.162 2.96 4.122 5.87 8.28 8.887 12.36 2.67 3.608 5.041 7.403 7.374 11.227a72.2 72.2 0 0 1 3.63 6.476c.135.281.397.581.03.89a7.209 7.209 0 0 1-2.81-.827Z"/><path fill="#f2b694" d="M353.439 263.92c.29.45.83.392 1.239.602a1.122 1.122 0 0 0 1.314-.13 1.247 1.247 0 0 1 1.09-.399 20.244 20.244 0 0 0 4.758.327 6.753 6.753 0 0 1 2.695.726.916.916 0 0 1 .595.955c-.058 1.058-.832 1.628-1.548 2.233a.227.227 0 0 1-.193.039c-1.158-.507-2.375.477-3.526-.14-1.65.004-3.276-.337-4.958.047a15.911 15.911 0 0 1-7.504.247 1.044 1.044 0 0 0-1.118.26 1.095 1.095 0 0 1-1.446.217 13.334 13.334 0 0 1-2.772-1.152 3.43 3.43 0 0 0-2.244-.605c-1.478.006-2.957.002-4.436 0-.469 0-.953.038-1.281-.407.87.006 1.74.004 2.61.018a42.798 42.798 0 0 0 16.137-2.73 3.23 3.23 0 0 1 .588-.109Z"/><path fill="#59515f" d="M276.013 236.894c-1.512-.267-2.003-1.411-2.308-2.703a27.725 27.725 0 0 1-.631-7.161c.027-1 .02-2 .028-3a4.77 4.77 0 0 0 1.99-.908 13.448 13.448 0 0 1 3.819-1.763c.4-.107.679.07.696.467a7.504 7.504 0 0 1-.004 1.807c-.81 3.918-1.279 7.928-2.975 11.615-.248.54-.019 1.248-.615 1.646Z"/><path fill="#1e1e1e" d="M189.71 204.27a13.017 13.017 0 0 1-.815 3.979 100.634 100.634 0 0 1-8.08 12.915 20.136 20.136 0 0 1-4.428 2.833c-.274-.212-.194-.463-.058-.703.62-1.102 1.202-2.23 1.88-3.297q4.935-7.75 9.924-15.467a5.273 5.273 0 0 1 1.307-1.697c.373.503.169.994.27 1.437Z"/><path fill="#4b4c4c" d="M354.682 212.711c-1.843-.327-3.683-.676-5.531-.976a83.071 83.071 0 0 0-9.179-1.095c-1.606-.08-3.21-.268-4.816-.303a98.58 98.58 0 0 0-14.029.992 23.804 23.804 0 0 1-4.38.533 2.47 2.47 0 0 1 1.375-.775 60.957 60.957 0 0 1 6.393-1.621c1.249-.223 2.533-.258 3.761-.47 3.54-.61 7.086-.332 10.621-.292a30.493 30.493 0 0 1 7.676 1.242c2.576.708 5.108 1.577 7.654 2.39.174.056.304.247.455.375Z"/><path fill="#4c4c4c" d="M373.211 232.456c.06-2.063.014-4.136.214-6.185a7.508 7.508 0 0 0-.766-4.249 4.681 4.681 0 0 1-.667-1.655 3.343 3.343 0 0 1 .774.18 50.931 50.931 0 0 0 6.25 2.746c.487.168.55.532.19.943a45.544 45.544 0 0 0-5.159 7.392 1.728 1.728 0 0 1-.836.828Z"/><path fill="#292928" d="M180.815 221.164c-.041-.747.555-1.187.879-1.745 2.093-3.612 4.3-7.154 6.692-10.577a7.59 7.59 0 0 1 .508-.593 38.489 38.489 0 0 1-.932 5.223c-.177 1.099-.5 2.174-.757 3.26-.638 1.23-.657 1.201-2.004 2.05a33.166 33.166 0 0 1-4.386 2.382Z"/><path fill="#1e1e1e" d="M173.951 232.433a2.8 2.8 0 0 1-.443 1.323 73.514 73.514 0 0 0-4.051 9.62 2.038 2.038 0 0 1-.734 1.173 4.991 4.991 0 0 1-1.203-1.668c-.276-.16-.17-.58-.484-.713l-.002.012c.173-2.747 1.459-5.054 2.886-7.306a14.032 14.032 0 0 1 4.031-2.44Z"/><path fill="#5b5260" d="M306.297 226.044a.618.618 0 0 1 .422.604 23.63 23.63 0 0 1-1.056 7.453 5.557 5.557 0 0 1-1.12 2.092c-.426.46-.32.976-.313 1.497-.09-.097-.244-.184-.26-.292a35.245 35.245 0 0 0-1.365-4.77 8.485 8.485 0 0 1-.401-2.555.463.463 0 0 1-.052-.51c1.452-1.088 2.376-2.802 4.145-3.519Z"/><path fill="#fcfbfa" d="M306.297 226.044c-.998 1.073-2.003 2.14-2.99 3.223a1.038 1.038 0 0 1-1.07.362c-.39-1.31.523-2.105 1.248-2.896 1.207-1.317 2.476-2.578 3.668-3.91.55-.05.834-.472 1.161-.832q3.06-2.595 5.948-5.383c1.154-1.116 2.399-2.138 3.612-3.191a1.108 1.108 0 0 1 .525-.267.808.808 0 0 1 .546.122.353.353 0 0 1 .042.53 8.697 8.697 0 0 1-1.268 1.28 39.246 39.246 0 0 0-3.87 3.51 34.217 34.217 0 0 1-3.104 2.859 11.221 11.221 0 0 0-1.179 1.356c-1.075 1.094-2.177 2.16-3.269 3.237Z"/><path fill="#595260" d="M307.153 222.822a2.588 2.588 0 0 1-.895 1.731c-1.144 1.217-2.27 2.45-3.403 3.678-.365.395-.744.785-.617 1.398l-.034.444c-.082-.103-.219-.197-.238-.311a26.13 26.13 0 0 1-.55-5.904 3.544 3.544 0 0 1 .891-2.159c.703-.83.888-.88 1.849-.384a11.42 11.42 0 0 1 1.187.722 4.45 4.45 0 0 0 1.81.785Z"/><path fill="#2a292a" d="M259.058 208.27a15.828 15.828 0 0 1-4.187-.34 5.417 5.417 0 0 0-1.6-.069q-5.53-.009-11.061-.004a19.472 19.472 0 0 0-3.385.285c-1.83.323-3.711.36-5.571.519-.115-.13-.122-.302.019-.332a56.038 56.038 0 0 1 6.03-1.169 37.162 37.162 0 0 1 5.35-.534c1.199.059 2.405.056 3.604 0a37.41 37.41 0 0 1 11.64 1.345c-.155.416-.548.224-.839.299Z"/><path fill="#292929" d="M169.92 234.874c-.285 1.782-1.347 3.267-1.892 4.952-.262.807-.658 1.57-.994 2.354a25.148 25.148 0 0 1-2.808-3.173 1.159 1.159 0 0 1 .442-.864c1.62-1.068 3.235-2.141 4.859-3.202a1.05 1.05 0 0 1 .393-.067Z"/><path fill="#5c525f" d="M274.29 220.7a9.895 9.895 0 0 1 .904-2.73c.17-.413.315-.837.472-1.255a12.295 12.295 0 0 1 2.153 2.085 4.07 4.07 0 0 1-1.702 1.082c-.584.318-1.216.549-1.827.817Z"/><path fill="#615661" d="M306.691 217.139a8.028 8.028 0 0 1 .317 2.812c-.06-.027-.124-.048-.181-.08-1.852-1.015-2.153-1.4-.136-2.732Z"/><path fill="#f4b996" d="M224.78 255.025c-.368.001-.679-.083-.754-.512a1.01 1.01 0 0 1 .754.512Z"/><path fill="#f2b694" d="M355.054 263.134a.723.723 0 0 1-.749.375.785.785 0 0 1 .749-.375ZM354.248 263.535a.726.726 0 0 1-.773.366.784.784 0 0 1 .773-.366Z"/><path fill="#f4b996" d="M225.26 255.385a.5.5 0 0 1-.458-.345.437.437 0 0 1 .458.345Z"/><path fill="#da9b76" d="M172.293 276.656a8.133 8.133 0 0 1-1.094 5.274c-.066.116-.107.247-.17.365a4.01 4.01 0 0 0 .007 4.001c.442.828.872 1.664 1.346 2.473a16.874 16.874 0 0 1 1.712 3.63 5.046 5.046 0 0 1-.287 4.086c-.683 1.231-1.36 2.466-2.086 3.672a1.687 1.687 0 0 1-1.497.873 1.419 1.419 0 0 1-1.493-.792c-.638-1.404-1.333-2.786-1.883-4.224a18.358 18.358 0 0 0-1.977-3.943 5.322 5.322 0 0 1-.78-4.788c.337-1.097-.011-2.299.542-3.356.031-1.941.58-3.828.485-5.797a9.436 9.436 0 0 0-.92-3.872 71.713 71.713 0 0 1-1.933-4.203 23.585 23.585 0 0 1-.721-2.505c-.326-1.082.244-2.097.545-3.112.096-.323.476-.438.825-.493a4.889 4.889 0 0 1 3.934 1.177 16.072 16.072 0 0 1 5.415 8.973 10.845 10.845 0 0 1 .03 2.56ZM165.466 258.605a1.573 1.573 0 0 1-1.03 1.804 1.594 1.594 0 0 1-2.171-.328c-1.157-1.11-2.28-2.256-3.405-3.399a4.086 4.086 0 0 1-.608-.789 2.551 2.551 0 0 1 .727-3.368 1.364 1.364 0 0 1 1.512-.145 6.848 6.848 0 0 1 2.984 2.262 14.87 14.87 0 0 1 1.652 2.49 2.782 2.782 0 0 1 .339 1.473ZM176.341 308.415c.316 1.907-.758 3.082-2.059 4.109a3.184 3.184 0 0 1-2.471.586 1.156 1.156 0 0 1-1.076-1.223 2.906 2.906 0 0 1 .584-1.877 5.308 5.308 0 0 1 .804-.89 1.948 1.948 0 0 0 .624-1.622 8.55 8.55 0 0 1 .012-1.203 1.21 1.21 0 0 1 1.682-1.144 2.506 2.506 0 0 1 1.89 2.113 6.529 6.529 0 0 1 .01 1.15Z"/><path fill="#282828" d="M210.603 142.415a14.965 14.965 0 0 0-3.136 1.296 8.469 8.469 0 0 1-2.013.867 11.843 11.843 0 0 1 2.154-2.872 68.24 68.24 0 0 1 14.768-11.323 92.448 92.448 0 0 1 13.592-6.468 84.326 84.326 0 0 1 11.65-3.723c2.917-.693 5.85-1.376 8.812-1.796 1.44-.204 2.92-.373 4.359-.578 1.94-.277 3.892-.097 5.792-.391a33.133 33.133 0 0 1 4.993-.335 7.486 7.486 0 0 1 2.783.298 4.256 4.256 0 0 0 1.396.098 28.02 28.02 0 0 1 6.496 1.08 9.176 9.176 0 0 1 4.587 3.105 1.818 1.818 0 0 1 .47 1.285c-.007.806.005 1.611.006 2.417a1.155 1.155 0 0 0 .48 1.045 15.998 15.998 0 0 1-4.524 1.149c-12.08-3.765-23.438-1.82-34.267 4.327-.242.137-.467.258-.328.594a17.948 17.948 0 0 1-3.924.722c-6.271 1.037-12.55 2.03-18.714 3.624a106.903 106.903 0 0 0-14.22 4.9 11.466 11.466 0 0 0-1.212.68Z"/><path fill="#da9b76" d="M363.498 189.79a13.455 13.455 0 0 0 .778 4.367 40.564 40.564 0 0 0 1.47 6.814c.638 2.581 1.386 5.136 2.073 7.705a11.288 11.288 0 0 1 .189 1.173c-1.554-1.25-3.332-2.259-4.362-4.069a75.658 75.658 0 0 1-8.086-10.972 47.39 47.39 0 0 1-5.16-10.419c-.899-2.664-1.865-5.305-2.762-7.97-.427-1.266-.74-2.57-1.147-3.845-1.118-3.503-2.37-6.967-3.355-10.507-.829-2.978-1.981-5.83-3.089-8.694a49.879 49.879 0 0 0-4.988-9.839 40.492 40.492 0 0 0-4.76-6.442 41.733 41.733 0 0 0-3.977-3.671 44.367 44.367 0 0 0-9.044-5.574c-1.042-.457-2.064-.983-3.141-1.335-4.261-1.392-8.448-3.025-12.834-4.016-1.041-.235-2.094-.418-3.141-.626l3.266-4.775a2.956 2.956 0 0 0 1.14-1.229l.057-.055a.844.844 0 0 0 .354-.342l3.284-2.002a.69.69 0 0 0 .2 0 30.28 30.28 0 0 1 10.905-.832c.331.021.665-.008.998-.014a5.909 5.909 0 0 0 2.426.415.372.372 0 0 0 .346.056c.542.468 1.262.4 1.89.612a46.777 46.777 0 0 1 7.761 3.271c.406.224.847.383 1.272.572a5.861 5.861 0 0 0 1.995 1.18c.744.539 1.47 1.105 2.235 1.614 2.199 1.462 4.194 3.189 6.282 4.793a16.01 16.01 0 0 0 2.396 2.45 9.684 9.684 0 0 0 .577.809 48.722 48.722 0 0 1 5.618 7.819 7.314 7.314 0 0 0 .603.789 11.268 11.268 0 0 0 1.718 3.073q2.971 6.585 5.947 13.168a5.47 5.47 0 0 0 .423.666 9.622 9.622 0 0 0 .475 2.71 28.71 28.71 0 0 0 .485 4.149c.19 2.916.476 5.827.733 8.739a4.838 4.838 0 0 0 .326 2.144 3.415 3.415 0 0 0 .077 1.507c.017 1.13-.035 2.265.065 3.387.372 4.173.79 8.341 1.207 12.51a3.055 3.055 0 0 0 .275.736Z"/><path fill="#1e1e1e" d="M193.392 162.007a5.302 5.302 0 0 1-.513 2.28c-.666.743-1.304 1.515-2.004 2.225q-3.247 3.291-6.536 6.54a44.547 44.547 0 0 0-4.976 5.742 1.84 1.84 0 0 1-.265.302 27.69 27.69 0 0 0-3.313 3.748c-2.257 2.887-4.66 5.66-7.01 8.464-2.19 2.612-4.203 5.344-6.268 8.042-.89 1.163-1.673 2.412-2.452 3.655a10.362 10.362 0 0 1-1.37 1.95c-.016-.872.033-1.75-.065-2.613a4.52 4.52 0 0 1 1.04-3.345c1.767-2.345 3.497-4.715 5.312-7.026 2.102-2.675 4.43-5.161 6.438-7.915a38.546 38.546 0 0 1 3.443-3.906 38.208 38.208 0 0 0 2.703-3.219 96.284 96.284 0 0 1 8.425-9.142q3.34-3.347 6.7-6.675c.296-.294.526-.18.63.296.043.195.055.398.081.597Z"/><path fill="#db9c77" d="M378.782 262.002c.575-1.335 1.157-2.666 1.72-4.006.18-.431.297-.89.47-1.324a.415.415 0 0 1 .492-.24c.287.064.547.33.489.56a18.009 18.009 0 0 1-.883 2.867 27.906 27.906 0 0 0-1.984 6.084 21.2 21.2 0 0 0-.624 4.956c.041.87.021 1.744-.002 2.616a20.272 20.272 0 0 0 .619 6.161 1.82 1.82 0 0 1 .02.584c-.012.217-.473.442-.627.298-.24-.224-.587-.448-.65-.726a12.5 12.5 0 0 1-.571-2.942c.032-2.616-.131-5.244.06-7.847a33.76 33.76 0 0 0-.006-5.338 22.525 22.525 0 0 1 1.685-9.603 8.47 8.47 0 0 1 2.588-3.532 1.55 1.55 0 0 1 .524-.277.53.53 0 0 1 .676.27.887.887 0 0 1-.032.566c-.033.11-.17.2-.278.275-1.656 1.141-2.283 2.876-2.846 4.701a24.19 24.19 0 0 0-.84 5.897Z"/><path fill="#282828" d="M302.98 115.47a.376.376 0 0 1-.355.341Z"/><path fill="#292929" d="M167.036 242.168a.685.685 0 0 1 .484.713.806.806 0 0 1-.484-.713Z"/><path fill="#282828" d="M308.314 280.485a2.677 2.677 0 0 1 1.796.601c1.09.812 2.247 1.532 3.377 2.29a72.17 72.17 0 0 0 17.504 11.681 75.413 75.413 0 0 1 10.504 6.32 25.168 25.168 0 0 1 4.764 4.308 12.577 12.577 0 0 1 2.509 4.769 6.236 6.236 0 0 1 .22 2.188 3.962 3.962 0 0 1-4.57 3.714 14.496 14.496 0 0 1-4.37-1.458q-3.392-1.76-6.794-3.502a6.448 6.448 0 0 1-2.71-.585 75.11 75.11 0 0 0-29.702-7.27c-6.986-.334-13.962-.379-20.933-.253-10.756.195-21.451 1.128-31.748 4.62a5.77 5.77 0 0 1-2.372.306 76.444 76.444 0 0 0-10.033 5.06 18.717 18.717 0 0 1-2.118 1.14 2.793 2.793 0 0 1-4.068-1.688 9.143 9.143 0 0 1-.13-6.675 12.09 12.09 0 0 1 1.83-3.33 25.038 25.038 0 0 1 5.336-5.141c.49-.35.969-.713 1.453-1.07a13.35 13.35 0 0 0 2.854-1.54c1.26-1.67 3.28-1.956 5.038-2.645 3.804-1.49 7.772-2.505 11.655-3.774a38.214 38.214 0 0 0 13.063-7.29c.85-.724 1.67-1.59 2.94-1.556.6-.286 1.207-.556 1.795-.862a4.95 4.95 0 0 1 2.736-.47 2.155 2.155 0 0 1 2.035 1.302 9.629 9.629 0 0 0 4.064 3.787 19.993 19.993 0 0 0 20.608-1.005 13.119 13.119 0 0 1 3.45-1.97Z"/><path fill="#7c4e51" d="M245.789 308.215a47.332 47.332 0 0 1 10.333-3.11c3.216-.596 6.442-1.175 9.687-1.576a60.006 60.006 0 0 1 6.8-.546c3.814-.037 7.62-.41 11.445-.35 3.891.062 7.785.011 11.677.027a14.098 14.098 0 0 1 3.799.285 4.862 4.862 0 0 0 1.602.073 42.062 42.062 0 0 1 7.205.513 62.514 62.514 0 0 1 10.778 2.265 69.397 69.397 0 0 1 12.345 4.783c.586.297 1.196.547 1.795.818a1.79 1.79 0 0 0-1.12.692c-.276.35-.583.676-.876 1.013-5 1.826-10.262 2.124-15.472 2.179-13.033.139-26.072.25-39.104.009a84.888 84.888 0 0 1-20.403-3.356c-2.972-.799-6.04-1.26-8.906-2.445l-1.585-1.274Z"/><path fill="#7c4e51" d="M330.612 313.99a21.922 21.922 0 0 1-6.4 7.104 20.142 20.142 0 0 1-8.814 3.684 51.511 51.511 0 0 1-8.582.929 25.146 25.146 0 0 0-4.015.212 5.322 5.322 0 0 1-1.405.024c-4.484-.457-8.982-.18-13.473-.265-2.28-.043-4.568.063-6.842-.077a66.982 66.982 0 0 1-10.982-1.117 12.573 12.573 0 0 1-2.507-.704c-2.554-1.183-5.112-2.363-7.621-3.637a39.592 39.592 0 0 1-6.335-4.599c-1.262-.993-2.419-2.123-3.603-3.213a3.22 3.22 0 0 1-1.022-1.219c1.137-.961 2.333-.307 3.447-.028 5.713 1.43 11.399 2.995 17.269 3.65 6.724.752 13.456 1.468 20.24.71 1.937-.216 3.89-.058 5.836-.084 9.051-.118 18.113.337 27.152-.423a33.572 33.572 0 0 0 5.732-.962c.644-.169 1.286-.438 1.925.014Z"/><path fill="#6a4345" d="M330.612 313.99a28.679 28.679 0 0 1-9.448 1.566 2.667 2.667 0 0 0-.803.026c-1.905.608-3.863.356-5.8.363-7.592.026-15.186.01-22.78.016a8.082 8.082 0 0 0-2.787.281 4.977 4.977 0 0 1-1.597.11c-2.217.01-4.435.006-6.653.004a3.96 3.96 0 0 1-1.203-.04 15.248 15.248 0 0 0-4.592-.36 5.28 5.28 0 0 1-1.791-.2 2.24 2.24 0 0 0-.979-.18 15.321 15.321 0 0 1-3.978-.447c-2.373-.362-4.75-.742-7.089-1.27-3.325-.75-6.626-1.611-9.919-2.492a8.66 8.66 0 0 0-2.182-.255 3.275 3.275 0 0 1-1.246-1.214l-.377-.392-.014-.017c.248-.316.532-.26.888-.17 4.21 1.059 8.416 2.125 12.64 3.122 1.942.458 3.896.866 5.883 1.145 2.111.297 4.234.524 6.333.84a50.44 50.44 0 0 0 6.807.31c2.404.04 4.81.079 7.216.024 2.415-.055 4.832-.013 7.249-.013l7.047-.001 7.25-.002c2.416 0 4.832.003 7.249-.003a7.022 7.022 0 0 0 2.78-.3 2.397 2.397 0 0 1 .995-.09 34.729 34.729 0 0 0 10.466-1.482c.416-.11.788-.157 1.082.233a1.68 1.68 0 0 1-.647.887Z"/><path fill="#e0a17d" d="M307.606 347.015c-1.476 0-2.953.005-4.43-.002a5.898 5.898 0 0 1-2.383-.266 1.309 1.309 0 0 0-.59-.104c-2.622.196-5.185-.617-7.806-.445a5.954 5.954 0 0 1-1.99-.207 7.154 7.154 0 0 0-1.789-.172c-1.745-.023-3.49.005-5.236-.019a33.675 33.675 0 0 0-9.656 1.537 60.149 60.149 0 0 0-7.179 2.58 8.983 8.983 0 0 1-1.527.483c-.136.03-.357-.144-.482-.278a.372.372 0 0 1 .06-.535 1.788 1.788 0 0 1 .499-.331 54.342 54.342 0 0 1 12.315-4.192 24.626 24.626 0 0 1 5.785-.493c1.876.087 3.759.017 5.638.03a9.88 9.88 0 0 1 3.386.316 3.982 3.982 0 0 0 1.199.076 14.797 14.797 0 0 1 4.19.344 6.03 6.03 0 0 0 1.602.066 9.496 9.496 0 0 1 2.986.297 5.03 5.03 0 0 0 1.598.098c2.215.01 4.43.015 6.646.004a11.284 11.284 0 0 0 3.588-.315 5.874 5.874 0 0 1 1.6-.082 8.454 8.454 0 0 0 2.586-.27 4.658 4.658 0 0 1 1.59-.072.354.354 0 0 1 .372.382 1.145 1.145 0 0 1-.255.5.59.59 0 0 1-.342.193 13.11 13.11 0 0 1-3.163.49 7.383 7.383 0 0 0-2.384.25 10.756 10.756 0 0 1-2.4.134c-1.342.017-2.685.005-4.028.005Z"/><path fill="#e1a37f" d="M342.11 328.68c0 .661.026 1.399-.014 2.133a2.198 2.198 0 0 1-.3.738.525.525 0 0 1-.633.345.684.684 0 0 1-.505-.571 1.928 1.928 0 0 1 .072-.782 5.968 5.968 0 0 0 .003-3.36 2.832 2.832 0 0 1-.154-.783c.038-2.168-.942-3.989-1.926-5.816a18.645 18.645 0 0 1-.84-1.818.564.564 0 0 1 .996-.5c1.138 2.26 2.593 4.374 2.996 6.967a11.282 11.282 0 0 1 .305 3.448Z"/><path fill="#e2a47f" d="M295.868 355.08a13.095 13.095 0 0 1-2.98-.29 10.985 10.985 0 0 0-2.8-.1 6.584 6.584 0 0 1-3.074-.792.495.495 0 0 1-.313-.644c.132-.354.476-.605.782-.426 1.492.871 3.118.616 4.71.64 1.607.025 3.215.004 4.823.015a6.486 6.486 0 0 1 1.195.092.72.72 0 0 1 .633.673.661.661 0 0 1-.58.708 12.063 12.063 0 0 1-1.592.122c-.267.014-.536.002-.804.003Z"/><path fill="#e0a27d" d="M212.106 235.257a.631.631 0 0 1-.429.668 11.582 11.582 0 0 0-2.594 1.487 20.356 20.356 0 0 0-5.974 5.57c-.483.667-.982.822-1.31.485-.27-.28-.212-.714.192-1.263a24.69 24.69 0 0 1 8.21-6.896 2.023 2.023 0 0 1 1.523-.377c.196.052.383.132.382.326Z"/><path fill="#e1a27e" d="M203.04 254.749c-.231-.15-.44-.38-.3-.648a14.436 14.436 0 0 1 .946-1.522c.645-.93 1.272-1.876 1.981-2.754a12.194 12.194 0 0 1 4.784-3.529 1.036 1.036 0 0 1 .389-.07.422.422 0 0 1 .45.299.452.452 0 0 1-.058.368 2.398 2.398 0 0 1-.609.495 16.916 16.916 0 0 0-4.81 4.444 21.095 21.095 0 0 1-2.23 2.807c-.15.125-.32.263-.543.11Z"/><path fill="#e1a37e" d="M239.28 327.029c.176-1.106.353-2.422.605-3.724.202-1.042.473-2.073.763-3.094a2.097 2.097 0 0 1 .534-.824.601.601 0 0 1 .543-.065.58.58 0 0 1 .312.437 5.13 5.13 0 0 1-.243.954 15.999 15.999 0 0 0-.909 4.688 11.25 11.25 0 0 1-.334 1.756 4.972 4.972 0 0 0 .13 1.786.65.65 0 0 1-.409.816c-.36.079-.567-.278-.738-.555-.38-.614-.169-1.305-.254-2.175Z"/><path fill="#7c4e51" d="m247.388 309.506.377.392a.442.442 0 0 1-.377-.392Z"/><path fill="#1e1e1e" d="m248.673 132.49-1.114-.226a34.713 34.713 0 0 1 6.248-3.416c1.034-.467 2.082-.916 3.152-1.29a58.706 58.706 0 0 1 8.545-2.06 37.937 37.937 0 0 1 8.81-.276 30.733 30.733 0 0 1 8.04 1.456c.475.153.898.296.914.89a13.724 13.724 0 0 1-4.374.851 22.063 22.063 0 0 1-4.573.014c-5.479-.74-10.693.402-15.86 1.964-1.28.387-2.572.745-3.832 1.201a29.186 29.186 0 0 1-5.956.892Z"/><path fill="#db9c77" d="M296.282 174.373c-1.88 0-3.76-.015-5.64.005a13.805 13.805 0 0 0-4.391.34 3.498 3.498 0 0 1-1.001.048 63.16 63.16 0 0 0-8.534 1.04c-3.691.594-7.325 1.488-11.005 2.113-2.36.4-4.74.737-7.139.953a23.202 23.202 0 0 0-6.686 1.172c-.559.224-1.104.485-1.67.691a.472.472 0 0 1-.65-.27.422.422 0 0 1 .191-.525 7.863 7.863 0 0 1 1.95-1.008 69.583 69.583 0 0 1 4.904-.988c1.78-.287 3.578-.388 5.36-.637 4.304-.603 8.506-1.693 12.778-2.415 2.296-.389 4.638-.618 6.926-1.014 2.192-.38 4.43.022 6.574-.645a4.165 4.165 0 0 1 1.202-.061q7.352-.01 14.704-.013c.268 0 .537-.002.805.011.351.018.727.108.693.529a.742.742 0 0 1-.713.608 12.022 12.022 0 0 1-1.407.057q-3.625.007-7.251.002ZM303.034 161.87c-1.342 0-2.685-.006-4.028.003a6.978 6.978 0 0 0-2.782.302 1.274 1.274 0 0 1-.596.068 31.363 31.363 0 0 0-6.39.504 32.795 32.795 0 0 0-4.56.583 27.218 27.218 0 0 1-3.77.457c-1.457.157-2.923.36-4.365.572-1.313.194-2.645.339-3.96.552-1.843.3-3.69.563-5.516.967a1.363 1.363 0 0 1-.597-.043.499.499 0 0 1-.287-.233.355.355 0 0 1 .208-.489 5.162 5.162 0 0 1 1.117-.417c1.37-.288 2.743-.573 4.124-.795 2.566-.414 5.135-.817 7.71-1.16 1.653-.22 3.324-.306 4.983-.486 1.393-.15 2.785-.329 4.173-.503a49.675 49.675 0 0 1 7.164-.705 6.886 6.886 0 0 0 2.388-.254 4.515 4.515 0 0 1 1.394-.125c2.685-.013 5.371-.012 8.057-.013.268 0 .538-.003.805.02.638.056 1.075.398.968.765-.156.533-.633.408-1.003.412-1.745.019-3.491.009-5.237.009Z"/><path fill="#292a29" d="M254.629 131.598a15.575 15.575 0 0 1 5.284-2.32 52.814 52.814 0 0 1 5.256-1.229 8.857 8.857 0 0 1 1.404-.07 7.58 7.58 0 0 0 1.4-.088 12.31 12.31 0 0 1 5.95 0 2.637 2.637 0 0 0 .799.078 14.44 14.44 0 0 1 4.172.45 13.299 13.299 0 0 1-3.73.671c-2.315.366-4.657.555-6.982.854-3.92.504-7.835 1.043-11.755 1.552-.594.077-1.198.07-1.798.102Z"/><path fill="#dc9c78" d="M314.974 178c1.206 0 2.417.068 3.616-.018 1.694-.12 3.297.516 4.975.495.295-.004.604.258.884.432a.371.371 0 0 1-.117.614 5.383 5.383 0 0 1-2.58-.073 6.901 6.901 0 0 0-2.182-.236c-2.479-.009-4.958.026-7.436-.022a26.154 26.154 0 0 0-9.233 1.49c-.378.133-.767.237-1.152.35-.288.086-.528.032-.632-.28a.49.49 0 0 1 .31-.65c1.328-.451 2.656-.911 4.006-1.287a28.184 28.184 0 0 1 8.536-.826c.335.011.67.002 1.005.002Z"/><path fill="#dc9d78" d="M245.932 166.528c-.067.112-.107.275-.206.328a4.436 4.436 0 0 1-1.257.589 49.237 49.237 0 0 0-7.11 2.006 22.938 22.938 0 0 0-4.613 1.89 1.181 1.181 0 0 1-.567.127.45.45 0 0 1-.329-.179.454.454 0 0 1-.027-.37 1.804 1.804 0 0 1 1.007-.925 57.616 57.616 0 0 1 9.647-3.287c.97-.229 1.939-.465 2.911-.685.194-.044.591.348.544.506Z"/><path fill="#3c3641" d="M369.236 213.096a.782.782 0 0 1 .312.896.907.907 0 0 1-.312-.896ZM223.14 206.753l-.369.256a.295.295 0 0 1 .369-.256Z"/><path fill="#4b4b4b" d="M311.893 231.307a2.895 2.895 0 0 1 .683-2.535c.478-.612.938-1.239 1.406-1.86.969-1.925 2.746-3.007 4.4-4.22 7.077-4.655 14.462-4.618 22-1.342a50.369 50.369 0 0 1 10.753 6.19c.34.253.69.492 1.029.747 1.593 1.759 1.638 2.156.27 3.953-2.077 2.728-5.064 4.241-8.084 5.493a30.331 30.331 0 0 1-26.118-.98 15.033 15.033 0 0 1-6.339-5.446Z"/><path fill="#dda98b" d="M311.893 231.307c1.287 1.066 2.58 2.126 3.86 3.201a18.014 18.014 0 0 0 7.102 3.615 65.703 65.703 0 0 0 7.072 1.46 15.81 15.81 0 0 0 4.012.046 42.162 42.162 0 0 0 6.724-1.127 29.844 29.844 0 0 0 10.274-5.337 11.54 11.54 0 0 0 1.72-1.684 1.459 1.459 0 0 0-.062-2.154c-.264-.3-.57-.563-.858-.842a.29.29 0 0 0-.051-.372 3.985 3.985 0 0 1-.212-.365c-.075-.114-.147-.232-.225-.345-.044-.053-.084-.109-.128-.162a3.072 3.072 0 0 1-.245-.33 4.238 4.238 0 0 1-.202-.354c-.074-.114-.143-.23-.219-.341-.043-.053-.081-.108-.124-.161a3.163 3.163 0 0 1-.242-.328 3.602 3.602 0 0 1-.197-.353c-.07-.113-.136-.229-.208-.34-.005.003-.12-.16-.125-.156-.095-.095-.184-.194-.275-.292l-.14-.146a1.725 1.725 0 0 1-.25-.314 1.98 1.98 0 0 1-.19-.346c-.065-.111-.126-.225-.192-.335-.005.004-.111-.156-.115-.153-.088-.092-.171-.19-.256-.284l-.133-.138a4.356 4.356 0 0 1-.27-.273l-.134-.136a4.213 4.213 0 0 1-.27-.272l-.136-.136a4.21 4.21 0 0 1-.27-.272l-.135-.136a4.174 4.174 0 0 1-.271-.27l-.135-.136a4.185 4.185 0 0 1-.272-.271l-.136-.136a4.234 4.234 0 0 1-.273-.272l-.136-.136a4.204 4.204 0 0 1-.274-.271l-.137-.136a4.23 4.23 0 0 1-.274-.27l-.138-.135c-.097-.083-.19-.17-.286-.255-.004.004-.153-.117-.157-.112-.115-.062-.227-.129-.342-.191a1.827 1.827 0 0 1-.346-.203 2.837 2.837 0 0 1-.31-.257l-.147-.138c-.101-.087-.197-.18-.295-.27-.004.005-.156-.124-.16-.12-.116-.066-.229-.137-.345-.204a3.042 3.042 0 0 1-.35-.207 4.164 4.164 0 0 1-.324-.245c-.055-.039-.107-.081-.162-.12-.116-.068-.23-.14-.345-.21a3.299 3.299 0 0 1-.346-.207 2.424 2.424 0 0 1-.315-.243c-.003.004-.152-.126-.155-.121-.11-.07-.217-.142-.328-.21a3.259 3.259 0 0 1-.339-.191 5.932 5.932 0 0 0-.516-.274 2.467 2.467 0 0 1-.362-.171c-.184-.092-.369-.18-.559-.262-.136-.048-.268-.102-.402-.156a16.372 16.372 0 0 0-.645-.192 4.926 4.926 0 0 1-.455-.135 6.247 6.247 0 0 0-.967-.204 7.285 7.285 0 0 1-.786-.147 10.861 10.861 0 0 0-3.855.008 6.469 6.469 0 0 1-.777.152 7.446 7.446 0 0 0-.96.2 8.006 8.006 0 0 1-.665.178 9.33 9.33 0 0 0-.616.204 2.916 2.916 0 0 1-.396.126c-.193.054-.389.103-.577.173a4.862 4.862 0 0 1-.359.154 3.206 3.206 0 0 0-.507.278c-.099.087-.202.167-.306.247a1.866 1.866 0 0 1-.327.232 6.132 6.132 0 0 1-.353.199c-.113.078-.228.153-.34.235-.055.047-.11.089-.166.135a2.847 2.847 0 0 1-.358.259 3.107 3.107 0 0 1-.412.203 1.818 1.818 0 0 1-.46.123c-.08-.013-.159-.028-.24-.043a.715.715 0 0 1-.347-.611.842.842 0 0 1 .204-.444 1.446 1.446 0 0 0 .423-.257l-.001.001c.14-.127.272-.263.406-.398l.004-.002c.217-.235.593-.159.8-.411l-.002.003a5.348 5.348 0 0 0 .405-.393q.194-.016.389-.013c.142-.13.29-.253.42-.395l.004-.002c.216-.237.593-.15.802-.4q.194-.015.388-.012c.227-.23.608-.143.822-.398.33-.354.89-.019 1.212-.402q.195-.011.39-.005c.472-.421 1.162.055 1.626-.397l.8-.004a2.425 2.425 0 0 1 2.031 0q.198-.007.396.002c.603.498 1.417-.068 2.025.401q.2-.003.398.009c.212.255.595.155.816.393q.197-.002.394.011c.211.249.587.164.806.396.213.248.585.176.809.402h-.002c.21.25.585.176.806.405.21.247.585.172.802.406l.004.002c.134.135.265.273.41.397l-.004-.004c.207.254.584.178.802.41l.002.002c.133.137.265.274.409.4l-.003-.003a3.617 3.617 0 0 0 .421.401 3.634 3.634 0 0 1 .387.017q.198.198.398.394l.002.001c.132.137.265.273.407.4l-.002-.002a4.49 4.49 0 0 0 .408.404l-.003-.003a3.414 3.414 0 0 0 .42.403 3.771 3.771 0 0 1 .387.02q.198.193.392.39l.007.008q.2.197.399.396l.005.005.399.398.004.004.4.4.003.004.4.4.004.003.398.4.005.004q.2.198.396.4l.005.007c.238.212.159.592.417.794l-.006-.004a3.475 3.475 0 0 0 .405.408l-.003-.003a5.096 5.096 0 0 0 .402.41l-.001-.002c.128.14.264.272.398.406l.004.004q.197.196.39.394.018.196.019.392a4.974 4.974 0 0 0 .401.418l-.001-.001c.127.14.263.271.395.407l.004.006c.237.214.16.591.412.798l-.004-.004a4.874 4.874 0 0 0 .396.407q.015.193.012.386a4.648 4.648 0 0 0 .398.422c.23.221.156.595.406.807l-.002-.003c.231.222.147.6.4.81q.014.194.009.388a1.762 1.762 0 0 1 .01 1.655 16.379 16.379 0 0 1-4.03 6.623 32.386 32.386 0 0 1-3.446 3.067 23.086 23.086 0 0 1-8.245 3.559 18.56 18.56 0 0 1-11.605-.859 42.537 42.537 0 0 1-6.238-3.213 31.428 31.428 0 0 1-3.26-2.655c-.51-.428-.878-1.022-1.516-1.303l.002-.002c.233 1.646 1.437 2.732 2.465 3.81a32.2 32.2 0 0 0 11.847 8.052 48.268 48.268 0 0 0 6.894 2.101 29.228 29.228 0 0 0 4.561.537 15.105 15.105 0 0 0 5.65-1.18 16.076 16.076 0 0 0 3.8-1.766c.047-.03.211.118.32.182a.567.567 0 0 1-.514.752 3.933 3.933 0 0 1-2.156 1.666 36.754 36.754 0 0 1-4.799 1.425 10.253 10.253 0 0 1-3.805.105 38.638 38.638 0 0 1-8.776-1.98 36.138 36.138 0 0 1-8.733-4.486 29.14 29.14 0 0 1-7.134-7.007 22.161 22.161 0 0 1-2.64-5.407 4.956 4.956 0 0 1-.227-1.582Z"/><path fill="#fefdfc" d="M362.769 243.792a25.634 25.634 0 0 0-2.891 3.57.645.645 0 0 1-.377.404c-2.471 2.885-4.88 5.818-7.127 8.883a7.843 7.843 0 0 1-.967 1.011.588.588 0 0 1-.733.125c-.387-.278-.102-.63.07-.863.673-.911 1.395-1.787 2.092-2.68q2.52-3.23 5.032-6.465a1.704 1.704 0 0 1 .288-.75 23.705 23.705 0 0 1 2.64-3.393 2.42 2.42 0 0 1 1.11-.728l3.363-4.183c.209-.26.404-.532.634-.77.22-.228.416-.543.826-.396.268.096.304.62-.008 1.052-1.053 1.451-2.134 2.882-3.204 4.321a.973.973 0 0 1-.748.862Z"/><path fill="#deaa8c" d="M323.204 216.719a.848.848 0 0 0 .407.813c-.751 1.997-2.761 2.853-4.002 4.41-.36.45-1.053.594-1.187 1.264l-4.44 3.706c-.088-.508.231-.853.447-1.263.363-.693 1.089-1.191 1.124-2.059-.27-.637.169-1.007.558-1.35 1.992-1.756 4.058-3.427 6.01-5.23a.952.952 0 0 1 1.083-.291Z"/><path fill="#fdfaf9" d="M323.204 216.719c-2.2 1.898-4.405 3.79-6.591 5.703a13.115 13.115 0 0 0-1.06 1.168c-.118.06-.236.121-.355.18-.367.177-.698.87-1.14.254-.336-.469.102-.91.464-1.18 1.558-1.165 2.811-2.67 4.334-3.856 1.06-.826 1.983-1.785 2.989-2.66.454-.394.91-.579 1.368-.003q.148.137.094.267-.054.13-.105.13Z"/><path fill="#fdfbf9" d="m350.163 248.573.514-.752a10.843 10.843 0 0 0 2.245-2.283 43.997 43.997 0 0 1 3.41-3.688c.492-.526.558-.488 1.172.294-.002.08-.004.16-.004.242a2.04 2.04 0 0 1-.157.457 7.23 7.23 0 0 1-2.013 2.089l-.241.052a6.202 6.202 0 0 0-1.985 1.94 17.205 17.205 0 0 1-2.051 2.188c-.35.335-.587.18-.89-.54Z"/><path fill="#e3b396" d="m356.24 243.746.9-1.203a2.707 2.707 0 0 1 .36-.398l.004-.001a7.917 7.917 0 0 1 4.403.762 1.546 1.546 0 0 1-.785.847 4.744 4.744 0 0 1-4.882-.007Z"/><path fill="#e3b193" d="m358.284 247.34-.416.437a3.774 3.774 0 0 1-2.197-1.198 1.831 1.831 0 0 1-.582-1.595l.004-.008a2.81 2.81 0 0 1 3.19 2.363Z"/><path fill="#e5b497" d="M359.5 247.766q.19-.201.378-.403c.457.056.942-.08 1.365.21a.643.643 0 0 1 .113.722 1.268 1.268 0 0 1-1.123.274c-.5-.025-.673-.367-.732-.803Z"/><path fill="#e6b497" d="M362.769 243.792a1.482 1.482 0 0 1 .748-.862 1.157 1.157 0 0 1 .862.337.908.908 0 0 1 .184.5c.006.216-.19.317-.385.34-.504.06-1.024.164-1.41-.315Z"/><path fill="#deaa8c" d="M334.105 213.09h-2.032a1.422 1.422 0 0 1 2.032 0ZM336.526 213.493c-.684-.088-1.455.265-2.025-.4.685.08 1.451-.245 2.025.4ZM353.477 230.868l-.01-1.655a1.027 1.027 0 0 1 .01 1.655ZM331.274 213.094c-.43.591-1.063.348-1.626.397.435-.571 1.063-.35 1.626-.397ZM329.258 213.496c-.291.475-.768.391-1.212.402.294-.465.767-.391 1.212-.402ZM339.749 214.704a.824.824 0 0 1-.81-.402.842.842 0 0 1 .81.402ZM337.74 213.895a.829.829 0 0 1-.816-.393.847.847 0 0 1 .816.393ZM328.046 213.898a.821.821 0 0 1-.821.398.87.87 0 0 1 .821-.398Z"/><path fill="#deaa8c" d="M338.94 214.302a.83.83 0 0 1-.806-.396.83.83 0 0 1 .806.396ZM341.355 215.515a.827.827 0 0 1-.802-.406.827.827 0 0 1 .802.406ZM324.818 215.508a.82.82 0 0 1-.8.41.837.837 0 0 1 .8-.41ZM353.06 228.018a.824.824 0 0 1-.405-.807.844.844 0 0 1 .406.807ZM351.853 226a.821.821 0 0 1-.412-.798.834.834 0 0 1 .412.798Z"/><path fill="#deaa8c" d="M353.46 228.825a.83.83 0 0 1-.4-.81.84.84 0 0 1 .4.81ZM340.553 215.11a.822.822 0 0 1-.806-.407.841.841 0 0 1 .806.406ZM349.034 222.367a.811.811 0 0 1-.417-.794.831.831 0 0 1 .417.794ZM342.567 216.32a.816.816 0 0 1-.802-.41.841.841 0 0 1 .802.41ZM326.836 214.307a.831.831 0 0 1-.802.4.831.831 0 0 1 .802-.4ZM346.192 219.145l-.392-.392ZM345.413 218.734l-.42-.403ZM352.245 226.403l-.396-.407ZM351.437 225.196l-.395-.407ZM344.996 218.334l-.408-.403ZM326.03 214.71l-.42.395.42-.395ZM325.221 215.118l-.405.393ZM351.043 224.79l-.402-.418.402.418ZM344.59 217.932l-.407-.4ZM346.597 219.548l-.398-.396ZM350.622 223.98l-.39-.394ZM347.809 220.758l-.4-.4ZM347.002 219.951l-.4-.398ZM350.228 223.582l-.397-.406ZM343.396 217.12l-.42-.401ZM347.406 220.355l-.4-.4ZM349.832 223.177l-.402-.409ZM349.433 222.771l-.405-.408.405.408ZM348.211 221.162l-.398-.4ZM342.978 216.721l-.409-.399ZM323.202 216.722a1.845 1.845 0 0 1 .011-.397q.198-.005.396-.007ZM348.611 221.565l-.395-.399ZM324.014 215.921l-.406.398ZM352.655 227.211q-.2-.21-.399-.422l.399.422ZM341.769 215.914l-.41-.397ZM344.18 217.53l-.398-.393Z"/><path fill="#d99874" d="M308.298 280.487a37.488 37.488 0 0 1-5.015 3.643 13.73 13.73 0 0 1-7.272 1.998 78.899 78.899 0 0 1-3.016-.057 2.141 2.141 0 0 1-1.341-.33l2.165-.076a15.012 15.012 0 0 0 3.954-.443 2.81 2.81 0 0 0 1.247-.603 23.944 23.944 0 0 0 2.458-2.033 11.512 11.512 0 0 1 3.06-1.864 2.806 2.806 0 0 1 1.358-.274q1.2.017 2.402.039Z"/><path fill="#4b4b4b" d="M261.852 229.317a7.138 7.138 0 0 0 .668.719 1.736 1.736 0 0 1 .541 1.959 2.015 2.015 0 0 1-1.579 1.23l-.46.366c-3.52 3.458-8.115 4.301-12.684 4.907a74.482 74.482 0 0 1-22.392-.265 8.788 8.788 0 0 1-3.936-1.384c-.339-.373-.85-.356-1.266-.56-.821-.406-1.016-.776-.702-1.58.218-.557.51-1.086.765-1.63.14-.3.271-.606.406-.91 1.18-2.72 3.415-4.502 5.616-6.317 3.98-3.042 8.542-4.196 13.48-4.477a28.716 28.716 0 0 1 16.174 3.756c1.867 1.294 3.956 2.307 5.369 4.186Z"/><path fill="#dda98b" d="m222.01 236.85 5.13.95a36.497 36.497 0 0 0 6.388.665c2.616.023 5.233.077 7.849.028a47.945 47.945 0 0 0 11.339-1.413 27.12 27.12 0 0 0 7.752-3.264 3.253 3.253 0 0 1 .554-.225 25.358 25.358 0 0 1-5.038 6.174 17.798 17.798 0 0 1-6.692 3.525 9.777 9.777 0 0 1-3.558.47 2.563 2.563 0 0 0-.998.05 11.477 11.477 0 0 1-4.579.315 34.398 34.398 0 0 1-12.228-2.66 19.007 19.007 0 0 1-5.652-4.088 1.986 1.986 0 0 1-.267-.528ZM261.852 229.317a1.358 1.358 0 0 1-.369-.126q-2.464-1.761-4.918-3.536c-4.406-4.207-9.3-7.58-15.601-7.895a13.36 13.36 0 0 0-10.98 4.512 21.96 21.96 0 0 0-3.177 4.129c-1.095 1.03-2.222 2.03-3.274 3.102-.822.84-1.55 1.774-2.32 2.666a10.071 10.071 0 0 1 1.737-4.006 43.495 43.495 0 0 1 3.871-5.836c2.531-3.144 5.487-5.64 9.591-6.497a12.013 12.013 0 0 1 2.57-.322c.537.005 1.074.024 1.608-.004 4.115-.214 7.699 1.283 11.158 3.321a31.795 31.795 0 0 1 7.32 6.2 36.99 36.99 0 0 1 2.632 3.524 2.009 2.009 0 0 1 .152.768Z"/><path fill="#deaa8c" d="M261.482 233.225a4.457 4.457 0 0 1 1.58-1.23 5.437 5.437 0 0 1-.308 2.532c-.471 1.302-.855 2.637-1.276 3.957-.103 1.598-1.435 2.39-2.285 3.493-.22.13-.518.217-.354.59a.405.405 0 0 1-.135.368c-.061.028-.145.04-.18.087a24.174 24.174 0 0 1-4.275 4.183 15.065 15.065 0 0 1-2.259 1.66 33.404 33.404 0 0 1-11.22 4.198c-1.184.18-2.343.537-3.529.685a4.305 4.305 0 0 1-3.125-.34c-.16-.107-.317-.275-.182-.496a.51.51 0 0 1 .29-.231 3.481 3.481 0 0 1 .8-.053c3.274.189 6.349-.778 9.429-1.655a27.234 27.234 0 0 0 7.632-3.52 24.396 24.396 0 0 0 7.926-8.893 38.833 38.833 0 0 0 1.751-4.265.84.84 0 0 0-.28-1.07Z"/><path fill="#fefcfb" d="M269.531 236.96a1.316 1.316 0 0 1-.085.52 12.19 12.19 0 0 1-1.023 1.483c-1.768 2.09-3.567 4.155-5.338 6.242-1.165 1.375-2.286 2.787-3.46 4.154a14.746 14.746 0 0 1-1.445 1.372.366.366 0 0 1-.358-.037c-.121-.136-.273-.353-.239-.495a1.56 1.56 0 0 1 .39-.672c2.12-2.231 3.921-4.726 5.89-7.082q2.247-2.69 4.535-5.345a1.746 1.746 0 0 1 .642-.46c.185-.076.369.068.491.32Z"/><path fill="#fefcfa" d="M216.837 225.953c-.266-.114-.414-.27-.363-.478a1.283 1.283 0 0 1 .296-.513c1.29-1.45 2.684-2.817 3.86-4.352 1.634-2.135 3.747-3.827 5.34-5.993a4.084 4.084 0 0 1 1.463-1.348.424.424 0 0 1 .361.061.43.43 0 0 1 .17.335 1.651 1.651 0 0 1-.265.724c-.859 1.025-1.71 2.06-2.633 3.026-2.314 2.418-4.525 4.926-6.704 7.463a7.283 7.283 0 0 1-1.026.953 1.182 1.182 0 0 1-.5.122Z"/><path fill="#fdfbf9" d="m258.704 242.935-.081-.39a.294.294 0 0 1 .017-.405l2.838-3.656c1.098-1.234 2.205-2.46 3.289-3.705.348-.4.617-.888 1.16-1.05a.769.769 0 0 1 .544.099.35.35 0 0 1 .076.522c-.426.593-.84 1.2-1.315 1.75-1.217 1.41-2.462 2.795-3.703 4.183a12.579 12.579 0 0 0-1.816 2.117 1.117 1.117 0 0 1-1.01.535Z"/><path fill="#fefaf8" d="M231.515 215.086a1.217 1.217 0 0 1-.06.386 3.554 3.554 0 0 1-.523.854c-1.738 1.778-3.494 3.537-5.25 5.296a.65.65 0 0 1-.35.184.493.493 0 0 1-.354-.109.522.522 0 0 1-.155-.348 1.493 1.493 0 0 1 .602-1.004c1.316-1.345 2.622-2.7 3.96-4.022.479-.473.69-1.178 1.321-1.495a.963.963 0 0 1 .577-.033c.093.018.156.189.232.291Z"/><path fill="#f7bc9a" d="M273.61 279.705c-1.644 1.269-3.256 2.582-4.938 3.797a35.858 35.858 0 0 1-9.576 5.043c-1.779.598-3.554 1.212-5.352 1.747a93.568 93.568 0 0 0-12.831 4.678c-.41-.084-.79-.15-.622-.755a14.462 14.462 0 0 1 2.217-4.24c1.9-2.776 4.611-4.606 7.399-6.32 3.995-2.458 8.308-4.314 12.467-6.464a1.116 1.116 0 0 1 1.443.126 7.744 7.744 0 0 0 5.53 1.938c1.071-.035 2.143-.003 3.215 0a1.094 1.094 0 0 1 1.047.45Z"/><path fill="#fbfbfb" d="M313.544 230.287c2.323-2.746 4.72-5.14 7.958-6.453.487.297.215.638.166.919-.909 5.162 3.771 9.225 7.636 9.711a13.952 13.952 0 0 0 3.62 0 8.587 8.587 0 0 0 7.027-6.382 7.334 7.334 0 0 0 .025-3.196c-.071-.32-.264-.625-.103-.97.273-.144.509.013.72.123a86.782 86.782 0 0 1 9.83 5.91c.575.403.599.642.066 1.08a27.258 27.258 0 0 1-11.157 5.79 40.541 40.541 0 0 1-5.169.806 19.98 19.98 0 0 1-5.616-.231q-2.976-.545-5.88-1.352a14.887 14.887 0 0 1-5.038-2.461 39.344 39.344 0 0 1-4.085-3.294Z"/><path fill="#f5c4a8" d="M318.422 223.206c-.294-.193-.264-.429-.043-.637 1.624-1.528 2.995-3.327 4.894-4.562.151-.099.227-.314.338-.475.145-.128.28-.266.416-.4q.198-.003.395-.021.205-.185.394-.388l.004-.003c.138-.133.284-.257.416-.396q.198-.001.396-.019.206-.187.399-.387c.22-.232.593-.158.805-.404l.002-.002c.22-.233.597-.149.809-.4l.405-.016q.207-.19.412-.385l.8-.02c.22-.23.596-.133.806-.385l.806-.013a11.086 11.086 0 0 1 4.428.003l.8.012c.215.249.595.152.815.39q.2.013.4.012c.211.253.596.153.812.397q.194.013.388.008c.13.14.288.25.417.39q.197.014.394.012c.127.142.285.251.413.392q.195.015.39.013c.135.136.281.262.42.395l.003.003q.187.202.394.384.2.019.4.022c.128.142.274.265.413.395l.006.006a5.275 5.275 0 0 0 .391.385q.198.02.397.022c.132.14.28.264.415.4.13.137.262.272.405.395l.007.008a5.403 5.403 0 0 0 .39.389q.196.019.391.02c.138.137.287.261.418.403l-.002-.002c.136.133.27.27.407.402.132.136.266.27.405.4l.002.002c.128.138.261.272.402.399l.004.004q.192.206.4.398l.004.005q.192.207.399.399l.004.004q.192.207.399.4l.004.004a5.411 5.411 0 0 0 .4.4l.003.003c.127.14.26.274.4.402l.001.002c.13.14.265.273.4.406v-.001c.133.136.269.27.402.408l-.003-.003c.143.131.268.28.404.418q0 .195.018.39.188.205.391.395l.003.004c.128.14.264.273.399.407l-.002-.002c.14.134.265.282.402.418q0 .196.018.391.188.206.39.398l.002.001c.134.138.258.284.398.416q.001.198.019.396.186.206.388.398c.14.134.25.296.398.421q-.007.192.002.385a.522.522 0 0 1-.787-.01c-1.634-1.044-3.247-2.123-4.905-3.128a36.477 36.477 0 0 0-13.016-5.056 17.816 17.816 0 0 0-10.953 1.483c-1.263.615-2.508 1.266-3.76 1.9Z"/><path fill="#f6f6f6" d="M331.777 226.719a2.087 2.087 0 0 1-2.014 2.073 2.117 2.117 0 0 1-.12-4.231 2.097 2.097 0 0 1 2.134 2.158Z"/><path fill="#cdd1d1" d="M325.275 227.757a.676.676 0 0 1-.156 1.32.74.74 0 0 1-.651-.817.804.804 0 0 1 .807-.503Z"/><path fill="#deaa8c" d="m351.057 228.008.787.009c.353.243.13.357-.106.468a.838.838 0 0 1-.681-.477ZM335.305 214.296l-4.429-.003c.157-.11.31-.312.47-.315q1.744-.04 3.49 0c.159.005.313.207.469.318ZM326.836 215.514a.84.84 0 0 1-.805.403.828.828 0 0 1 .805-.403ZM327.647 215.112a.846.846 0 0 1-.81.4.83.83 0 0 1 .81-.4ZM338.13 215.107a.845.845 0 0 1-.81-.397.83.83 0 0 1 .81.397ZM336.919 214.699a.842.842 0 0 1-.814-.39.83.83 0 0 1 .814.39ZM330.07 214.306a.82.82 0 0 1-.807.386.831.831 0 0 1 .807-.386ZM344.989 219.549l-.408-.402ZM351.842 227.632l-.397-.42ZM345.393 219.95l-.405-.402ZM350.637 226l-.39-.398ZM344.584 219.15l-.419-.404.419.403ZM343.775 218.726l-.39-.39Z"/><path fill="#f5c4a8" d="M315.14 236.085c-.058-.03-.169-.075-.165-.091.034-.14.097-.107.163.093Z"/><path fill="#deaa8c" d="m328.464 214.71-.412.386.412-.385ZM343.377 218.33l-.404-.396ZM350.229 225.211l-.402-.418ZM338.936 215.505l-.416-.39.416.39ZM342.972 217.934l-.415-.4.415.4ZM349.829 224.795l-.399-.407ZM349.427 224.384l-.391-.396ZM342.16 217.512l-.391-.385ZM324.027 217.131l-.416.4ZM346.2 220.752l-.4-.398ZM346.604 221.156l-.4-.399ZM349.018 223.6l-.404-.419ZM341.763 217.121l-.412-.395.412.395ZM348.617 223.184l-.403-.408ZM324.816 216.723l-.394.388.394-.388ZM347.813 222.37l-.4-.403.4.402ZM348.215 222.777l-.4-.406ZM345.797 220.35l-.402-.4ZM347.007 221.56l-.399-.4ZM340.95 216.704l-.394-.384ZM347.41 221.964l-.399-.4ZM325.236 216.324l-.416.396ZM351.037 226.417l-.398-.416ZM340.552 216.317l-.419-.395.42.395ZM351.444 227.21l-.389-.397ZM326.03 215.918l-.398.387.399-.387ZM339.743 215.91l-.413-.393.413.392Z"/><path fill="#f5c5a9" d="M358.284 247.34c-.058-.187-.058-.456-.185-.547a74.028 74.028 0 0 0-2.617-1.759 1.001 1.001 0 0 0-.389-.058 2.547 2.547 0 0 1 1.147-1.23l4.882.007-2.838 3.586Z"/><path fill="#f5c4a8" d="M357.5 242.145q-.18.2-.361.398l.36-.398Z"/><path fill="#fbfbfb" d="M222.008 234.747a4.916 4.916 0 0 1 .327-.773 22.985 22.985 0 0 1 9.23-8.187c.52-.257.757-.126.832.406.038.265.045.535.077.802a8.588 8.588 0 0 0 7.15 7.46 13.075 13.075 0 0 0 6.365-.331 8.997 8.997 0 0 0 6.268-6.267c.19-.567.32-1.154.477-1.733a20.934 20.934 0 0 1 7.907 5.082 5.418 5.418 0 0 1-1.748 1.292 29.525 29.525 0 0 1-11.24 3.585 97.7 97.7 0 0 1-15.7.34 57.544 57.544 0 0 1-8.767-1.24 7.712 7.712 0 0 1-1.178-.436Z"/><path fill="#f5c4a8" d="M226.807 226.401a.372.372 0 0 1-.129-.52c.237-.403.5-.79.753-1.185a17.005 17.005 0 0 1 5.828-5.688 10.712 10.712 0 0 1 4.547-1.474 7.396 7.396 0 0 0 1.587-.218 3.204 3.204 0 0 1 1.384-.153 25.341 25.341 0 0 1 6.606 1.559 30 30 0 0 1 6.959 4.33 13.482 13.482 0 0 1 2.4 2.115c.142.192-.001.367-.177.488-1.785-.763-3.554-1.566-5.358-2.281-4.498-1.783-9.16-1.793-13.87-1.192a23.425 23.425 0 0 0-10.53 4.219Z"/><path fill="#f6f7f7" d="M245.027 228.44a2.024 2.024 0 0 1-2.039 2.012 2.07 2.07 0 0 1-2.11-2.157 2.044 2.044 0 0 1 2.253-1.998 2.002 2.002 0 0 1 1.896 2.143Z"/><path fill="#c4c8c8" d="M237.742 228.106a.74.74 0 0 1 .674.565c.124.341-.26.806-.65.826a.713.713 0 0 1-.726-.558c-.118-.348.265-.804.702-.833Z"/><path fill="#f5c4a8" d="m258.64 242.14-.017.404a1.733 1.733 0 0 1-.123-.295c-.006-.023.09-.072.14-.11Z"/></svg>