<svg xmlns="http://www.w3.org/2000/svg" data-name="Layer 1" viewBox="0 0 512 512"><path fill="#3c3641" d="M345.228 420.415c2.196.608 4.255 1.58 6.378 2.384q6.739 2.549 13.453 5.163a140.08 140.08 0 0 1 5.96 2.457q13.957 6.187 27.893 12.423a68.245 68.245 0 0 1 10.189 5.463c1.838 1.23 3.637 2.521 5.476 3.75q6.393 4.27 12.812 8.502c3.873 2.54 7.415 5.51 11.031 8.385 5.753 4.572 11.788 8.753 17.86 12.882 2.566 1.744 5.325 3.17 8.033 4.678a135.037 135.037 0 0 1 17.13 11.228c1.642 1.274 3.201 2.656 4.798 3.989v9.883a5.435 5.435 0 0 1-2.431.174q-111.664.017-223.324.011c-1.19-.362-.988-1.422-.909-2.207.541-5.34.075-10.734.881-16.056a10.907 10.907 0 0 0 .21-2.638c-.209-2.217.856-3.497 2.799-4.412 3.722-1.752 7.62-3.049 11.418-4.602a3.563 3.563 0 0 0 1.355-.631 3.175 3.175 0 0 0 .806-2.271c-.066-2.655.192-5.319-.289-7.963a10.427 10.427 0 0 1-.07-3.034c.916-7.97-.201-15.934-.018-23.9a5.335 5.335 0 0 0-.028-1.516c-.796-2.858.776-4.334 3.037-5.546 4.915-2.635 9.64-5.606 14.31-8.637 7.803-5.063 14.21-11.4 17.396-20.457.298-.85.276-2.34 1.938-2.025 3.338 1.633 6.666 3.288 10.02 4.89a70.926 70.926 0 0 0 4.51 1.944c2.875 1.137 5.636 2.514 8.41 3.869 2.265 1.106 4.602 2.05 6.954 2.957a5.47 5.47 0 0 1 1.704.757c-.738 3.216-2.269 6.137-3.45 9.185-2.985 7.696-7.84 14.219-12.98 20.578a111.01 111.01 0 0 1-9.97 10.654c-7.324 6.959-15.287 12.997-24.875 16.574-.594.222-1.142.524-1.713.786 2.48-1.13 4.988-2.19 7.467-3.32 5.7-2.595 10.446-6.564 15.232-10.48a89.425 89.425 0 0 0 9.276-8.953c6.534-7.147 12.589-14.675 16.668-23.56 1.706-3.718 2.983-7.62 4.653-11.358Z"/><path fill="#928f95" d="M260.077 511.556c.822.015 1.644.044 2.466.044q111.85.003 223.698.002c0 .126.05.302-.014.366s-.24.014-.366.014H185.966l-.065-.373a1.422 1.422 0 0 1 .623-.41 13.195 13.195 0 0 1 3.023-.212l66.86-.002c.76 0 1.518.013 2.276.085a1.989 1.989 0 0 1 1.394.486Z"/><path fill="#2f2934" d="M.108 511.596c-.036-.63-.104-1.26-.104-1.89q-.008-31.253 0-62.508c0-.694.072-1.388.11-2.082l9.24-3.404c5.035-1.859 10.045-3.79 15.11-5.566 12.401-4.348 24.611-9.188 36.8-14.091 4.277-1.72 8.627-3.257 12.928-4.92 5.478-2.116 10.925-4.316 16.415-6.402 3.954-1.502 7.978-2.82 11.934-4.32 5.848-2.22 11.561-4.766 17.3-7.249 2.615-1.13 5.085-2.543 7.61-3.849 2.805-1.451 5.654-2.818 8.464-4.258 2.305-1.182 4.581-2.419 6.874-3.624a3.129 3.129 0 0 1 .534-.17 59.917 59.917 0 0 1 2.609 8.625c2.197 8.267 6.356 15.51 11.302 22.336a147.621 147.621 0 0 0 17.885 20.046c5.467 5.215 10.84 10.562 17.033 14.956-3.066-2.189-5.856-4.706-8.69-7.184-3.576-3.125-6.876-6.535-10.36-9.752-3.058-2.823-5.719-6.062-8.53-9.143a95.15 95.15 0 0 1-8.308-10.301c-4.19-6.116-7.854-12.5-9.949-19.692-.965-3.312-1.696-6.696-2.961-9.918a4.469 4.469 0 0 1 1.515-1.083 16.97 16.97 0 0 0 5.384-5.224 98.636 98.636 0 0 0 7.978-14.37c2.004-4.419 3.963-8.858 5.941-13.288.231-.517.436-1.048.699-1.549a1.006 1.006 0 0 1 .93-.548.916.916 0 0 1 .63.864c-.26 3.17 1.31 5.861 2.299 8.689a67.146 67.146 0 0 0 6.068 13.401 99.055 99.055 0 0 0 13.204 18.254c8.291 9.02 17.156 17.357 27.545 23.955a123.935 123.935 0 0 0 27.132 13.245c3.57 1.254 7.088 2.651 10.673 3.866a4.36 4.36 0 0 1 2.289 1.253c.186 1.45-.43 2.319-1.615 3.267-5.158 4.13-11.738 5.254-17.327 8.46a73.215 73.215 0 0 0-12.078 8.497c-3.107 2.74-4.922 6.542-7.032 10.064a95.06 95.06 0 0 0-5.092 10.169c-2.822 6.316-6.977 11.877-10.231 17.952-1.968 3.673-3.702 7.508-6.4 10.733a25.87 25.87 0 0 1-9.911 7.706l.03.103c-.823-.017-1.645-.048-2.467-.048Q93.047 511.6 2.576 511.6c-.823 0-1.646-.003-2.468-.005Z"/><path fill="#f7bc9a" d="M215.23 416.577a56.577 56.577 0 0 1-7.517-5.099 171.127 171.127 0 0 1-20.46-19.173 101.699 101.699 0 0 1-12.518-17.343 3.046 3.046 0 0 1-.191-.53 12.16 12.16 0 0 1-.91-5.924c.492-9.077-1.252-17.907-2.927-26.748a56.429 56.429 0 0 1-1.246-13.02c.099-2.227-.407-4.406-.413-6.631a69.254 69.254 0 0 1 .668-10.603 10.639 10.639 0 0 0-.02-2.652c-.06-.61-.26-1.37.455-1.68.584-.253 1.072.266 1.483.648a18.396 18.396 0 0 0 10.24 4.597 27.578 27.578 0 0 0 9.235-.185c-3.492-.071-6.107-1.716-8.473-3.745-8.085-6.935-11.45-15.995-11.658-26.421-.212-10.572 1.505-20.948 3.255-31.314 1.212-7.182 2.431-14.365 3.884-21.504.202-.995.278-2.066 1.564-2.328 2.927.427 5.356 2.13 8.046 3.169 3.279 1.267 6.3 3.227 9.907 3.606.6.063 1.216.36 1.143 1.032-.233 2.152-.033 4.393-1.173 6.379-.757.235-1.328-.221-1.944-.527a13.7 13.7 0 0 0-6.089-1.834 15.516 15.516 0 0 1 6.197 2.011 2.632 2.632 0 0 1 1.701 2.855 2.285 2.285 0 0 1-.284 1.106 2.43 2.43 0 0 1-1.22.696 3.205 3.205 0 0 1-.794.115 9.784 9.784 0 0 0-1.475.25 4.681 4.681 0 0 1-.697.14 7.049 7.049 0 0 0-.877.216 2.918 2.918 0 0 1-.418.113 7.827 7.827 0 0 0-.788.162c-.104.042-.213.08-.317.123a.943.943 0 0 0-.234.168c.01-.004.038.124.048.116a.735.735 0 0 0 .287-.044 3.457 3.457 0 0 1 .331-.1c.253-.076.491-.178.738-.264a5.137 5.137 0 0 1 .64-.15 8.986 8.986 0 0 0 .885-.25 6.408 6.408 0 0 1 .718-.143 8.392 8.392 0 0 0 1.241-.271 4.043 4.043 0 0 1 1.359-.018 1.431 1.431 0 0 1 .48.268c.881 2.954.59 4.18-1.704 5.952-5.133 3.965-8.742 9.14-11.943 14.654a54.818 54.818 0 0 1 10.372-13.25 13.49 13.49 0 0 1 1.96-1.498c.696-.433 1.408-.655 1.963.246.086.241.029-.071.078.176 1.3 6.563 5.697 9.429 11.966 10.334a148.495 148.495 0 0 0 23.249 1.91c3.356-.046 6.714-.055 10.07.002a86.652 86.652 0 0 0 16.266-.956c1.186.298.819 1.1.512 1.786a28.137 28.137 0 0 1-2.427 4.072c-2.382 3.57-5.135 6.929-6.246 11.224-.348 1.348-1.507 2.146-2.576 2.955a128.104 128.104 0 0 0-13.755 11.356c-2.744 2.751-4.595 6.164-6.986 9.173.948-1.323 1.935-2.618 2.837-3.972a20.976 20.976 0 0 1 7.173-6.357 54.022 54.022 0 0 1 11.31-4.875 3.156 3.156 0 0 1 3.616.817c2.534 2.69 5.838 2.342 9.074 2.055 1.699-.151 3.382-.458 5.082-.644 5.268-.576 9.824 1.277 14.17 3.948a16.706 16.706 0 0 0 5.644 2.64 8.07 8.07 0 0 0 2.067.248c1.063-.081 2.521.088 2.933-.89.42-.997-1.072-1.342-1.738-1.908-3.694-3.143-5.646-7.235-6.708-11.852a85.488 85.488 0 0 1-2.177-15.38c-.381-8.45-.073-16.974-2.158-25.292-.6-2.396-1.248-4.778-1.878-7.165-.202-.768-.623-1.592.253-2.256a60.663 60.663 0 0 1 11.914-.137c1.575.084 3.152.193 4.73.258a2.058 2.058 0 0 1 2.275 2.037 74.07 74.07 0 0 0 4.078 18.857 35.662 35.662 0 0 0 1.425 7.784 7.69 7.69 0 0 1 .536 2.394c-.114 4.177 1.86 7.424 4.7 10.212a31.346 31.346 0 0 1 7.137 9.735c.785 1.797 1.744 3.515 1.196 5.608 1.784-2.46 1.93-2.518 4.835-1.372 3.726 1.47 6.506 4.329 9.7 6.587a16.684 16.684 0 0 1 5.58 6.345 118.295 118.295 0 0 0-9.782-14.259c-2.853-3.395-5.866-6.694-10.394-7.958a4.023 4.023 0 0 1-1.669-1.207c-2.66-2.622-5.168-5.388-7.684-8.146-3.016-3.306-4.147-7.452-5.06-11.674-.141-.652.168-1.13.983-.937 1.63 1.22 2.624 3.064 4.323 4.242a9.673 9.673 0 0 0 5.607 2.082c4.563-.066 9.102.43 13.657.437a129.96 129.96 0 0 0 29.34-3.555 8.028 8.028 0 0 1 2.796-.447 1.516 1.516 0 0 1 .59.255c1.148 2.65 1.226 5.536 1.738 8.319.902 4.91 1.92 9.816 1.782 14.863-.296 10.852-3.252 20.587-11.61 28.1-.188.17.018-.065-.13.137-.53.718-1.82 1.193-1.279 2.28.492.988 1.712.916 2.727.96a3.588 3.588 0 0 0 .568-.04c3.142-.363 3.494-.173 3.582 2.95.329 11.71-.927 23.113-6.475 33.726a83.276 83.276 0 0 0-3.915 8.39 60.072 60.072 0 0 1-4.03 5.69 373.656 373.656 0 0 1-5.344 7.082 58.012 58.012 0 0 1-2.77 3.338c-1.304 1.452-2.719 2.802-3.938 4.334a7.351 7.351 0 0 1-.98.869 37.143 37.143 0 0 1-8.912 2.548 27.886 27.886 0 0 0-8.463 2.69 61.268 61.268 0 0 1-20.712 5.136c-10.49.819-20.98-.262-31.475-.098a25.742 25.742 0 0 1-12.592-3.204q-5.756-3.112-11.217-6.757c-3.994-2.673-7.838-5.644-12.376-7.35-6.083-2.287-11.558-5.711-17.219-8.798a67.818 67.818 0 0 1-15.122-11.656c-.9-.89-1.8-1.78-2.681-2.69 1.437 1.511 2.995 2.907 4.296 4.548a26.124 26.124 0 0 1 3.321 5.511c.886 1.96 2.045 3.783 2.99 5.719.946 1.941 1.587 3.997 2.396 5.99 2.96 7.289 4.66 14.984 7.199 22.398 2.265 6.616 3.847 13.537 7.65 19.569.574.908.504.953.016 1.783Z"/><path fill="#f7bc9a" d="M200.345 96.861a8.484 8.484 0 0 1 2.191-1.088c4.064-1.577 8.157-3.085 12.186-4.746 4.094-1.687 8.252-3.189 12.437-4.616a80.21 80.21 0 0 1 11.528-3.033 22.814 22.814 0 0 1 4.698-.532c2.278.063 4.53-.54 6.81-.312 2.699.27 5.416.23 8.113.595 1.748.237 3.518.352 5.245.713 2.47.516 4.937 1.063 7.368 1.73 2.8.77 5.598 1.544 8.361 2.45a49.4 49.4 0 0 1 14.176 7.531c3.999 2.985 7.88 6.127 11.805 9.209a13.871 13.871 0 0 1 1.118 1.027 58.155 58.155 0 0 0 5.017 4.34 10.466 10.466 0 0 1 .82.787c3.503 4.734 5.893 10.176 9.282 14.955 5.267 7.428 8.788 15.606 11.635 24.175 5.287 15.913 10.27 31.912 14.464 48.152 1.86 7.204 4.98 13.92 8.173 20.603.437.915 1.295 1.834.422 2.964-1.102.489-2.116 0-3.152-.273a3.28 3.28 0 0 1-.675-.345c-4.54-3.356-9.616-4.59-15.265-4.83-8.105-.345-16.198-.087-24.294-.233-2.241-.04-2.854.619-3.092 2.905a7.449 7.449 0 0 1-.407 2.981 2.998 2.998 0 0 1-2.016.924c-1.496.256-2.964.685-4.457.908-3.516.527-5.393 2.632-5.86 5.997-.373 2.69-.56 3.205-3.911 2.936-5.166-.414-10.352-.27-15.508-.736-1.282.02-1.889-.727-2.295-1.86a43.929 43.929 0 0 0-2.566-5.498 16.628 16.628 0 0 0-11.466-8.872c-2.35-1.334-5.008-1.213-7.555-1.548-7.394-.971-14.834-1.079-22.28-1.31-4.677-.146-9.322.094-13.98.078a13.403 13.403 0 0 0-5.694 1.16 32.714 32.714 0 0 0-8.554 5.175 7.691 7.691 0 0 0-2.042 2.687c-1.43 2.697-1.092 5.671-1.335 8.553-.31 2.287-1.164 2.917-3.465 2.362a41.018 41.018 0 0 1-7.04-2.8c-2.538-1.137-5.101-2.224-7.648-3.346-.966-.426-2.057-.732-2.502-1.877-.214-2.246.436-4.393.827-6.557a130.556 130.556 0 0 0 2.385-30.015c-.275-5.3-.73-10.596-1.243-15.877-1.598-16.498-.16-32.599 5.936-48.126a154.11 154.11 0 0 1 10.792-22.578 52.685 52.685 0 0 0 2.513-4.889Z"/><path fill="#eaab86" d="M215.23 416.577c.26-.209.167-.446.038-.67-.63-1.094-1.231-2.206-1.91-3.27a16.77 16.77 0 0 1-1.841-4.138c-1.198-3.93-2.71-7.744-4.022-11.63-.726-2.149-1.313-4.345-1.955-6.522-.553-1.874-1.09-3.753-1.643-5.628-.447-1.513-.841-3.045-1.372-4.528-1.107-3.09-2.358-6.13-3.414-9.236a34.85 34.85 0 0 0-2.803-6.216c-1.357-2.35-2.28-4.929-3.818-7.175a30.775 30.775 0 0 0-4.537-5.32 9.632 9.632 0 0 1-1.83-2.396.346.346 0 0 1 .113-.315.338.338 0 0 1 .326.032c.967 1 1.91 2.023 2.88 3.02a90.132 90.132 0 0 0 8.252 7.225c1.231.992 2.59 1.802 3.772 2.852a8.587 8.587 0 0 0 1.572 1.053c1.772.975 3.578 1.89 5.34 2.882 1.87 1.053 3.704 2.17 5.558 3.252a10.745 10.745 0 0 0 1.496.814c2.18.841 4.311 1.807 6.443 2.748a47.388 47.388 0 0 1 10.198 5.78 66.732 66.732 0 0 0 6.183 4.028c2.58 1.587 5.18 3.145 7.818 4.635a18.886 18.886 0 0 0 4.398 1.722c.79.213 1.591.389 2.387.584a29.941 29.941 0 0 0 7.283.96c5.638-.022 11.276-.008 16.914-.005.757 0 1.506.155 2.248.219a44.738 44.738 0 0 0 8.894-.031 4.884 4.884 0 0 1 .925-.167 26.058 26.058 0 0 0 5.08-.445 36.847 36.847 0 0 0 4.449-.846c2.024-.464 4.069-.887 6.04-1.527 2.037-.662 3.991-1.575 5.99-2.357a37.758 37.758 0 0 1 6.01-2.278 34.01 34.01 0 0 1 2.788-.446 29.767 29.767 0 0 0 5.666-1.466c.78-.255 1.556-.525 2.336-.78a.544.544 0 0 1 .648.246c-1.29 1.461-2.56 2.938-3.872 4.379a107.874 107.874 0 0 0-7.016 8.642 37.24 37.24 0 0 0-3.323 5.483 10.757 10.757 0 0 0-1.019 5.124 2.148 2.148 0 0 0 .422 1.026c-.303.055-.628.038-.778.413-.445 1.117-.935 2.216-1.359 3.34-2.25 5.972-6.162 10.684-10.973 14.773a76.718 76.718 0 0 1-10.138 7.01c-3.573 2.163-7.097 4.408-10.76 6.422-.332.183-.643.404-.972.595a2.588 2.588 0 0 0-1.342 2.84c.221 2.325.13 4.68.202 7.021.065 2.15.218 4.298.249 6.449.052 3.734.08 7.467-.138 11.202a46.724 46.724 0 0 0 .08 6.07c.186 2.587.14 5.188.276 7.779a1.45 1.45 0 0 1-1.31 1.695c-.792.604-1.216.14-1.517-.553a6.234 6.234 0 0 1-.459-1.95c-.823-7.482-2.475-14.818-3.978-22.178-1.124-5.508-2.347-10.998-3.145-16.564-.187-1.303-.713-1.884-2-2.002-2.934-.27-5.607-1.465-8.331-2.47a3.41 3.41 0 0 1-1.4-.934c-1.53-.597-3.042-1.245-4.593-1.782-4.723-1.636-9.42-3.34-14.069-5.177a116.022 116.022 0 0 1-20.753-10.621c-.313-.204-.59-.46-.885-.692ZM179.87 227.253a1.123 1.123 0 0 0-1.105 1.093 48.382 48.382 0 0 1-1.026 5.561c-.432 2.477-.854 4.955-1.292 7.43-.329 1.856-.693 3.706-1.011 5.563-.436 2.54-.84 5.085-1.263 7.627-.176 1.053-.391 2.1-.55 3.157-.213 1.428-.388 2.863-.582 4.294q-.317 2.333-.64 4.665a1.83 1.83 0 0 0-.077.37c.152 1.78-.56 3.49-.428 5.27a1.916 1.916 0 0 1-.034.755 13.012 13.012 0 0 0-.337 4.326c-.023 1.837.062 3.676-.02 5.51a29.826 29.826 0 0 0 1.406 9.114 36.606 36.606 0 0 0 3 7.562 19.573 19.573 0 0 0 3.849 5.36q1.32 1.229 2.55 2.553a12.856 12.856 0 0 0 3.981 2.854c.4.19.806.373 1.186.6a5.054 5.054 0 0 0 4.366.5c.288-.095.66-.182.772.246.098.379-.219.57-.492.714a7.127 7.127 0 0 1-3.09.79 51.814 51.814 0 0 1-6.076-.014 19.004 19.004 0 0 1-6.038-1.452 47.716 47.716 0 0 1-2.568-1.196 10.521 10.521 0 0 1-3.292-2.513 1.41 1.41 0 0 0-.882-.61 1.037 1.037 0 0 0-.086.959 6.428 6.428 0 0 1 .031 3.91.988.988 0 0 0-.051.182c-.152 1.756-.362 3.51-.434 5.269-.075 1.833-.019 3.672-.014 5.508a7.315 7.315 0 0 0 .263 2.438 4.847 4.847 0 0 1 .109 1.505c.011 1.52-.005 3.04.008 4.56a14 14 0 0 0 .276 3.194 33.197 33.197 0 0 1 .428 3.363c.436 3.309 1.177 6.558 1.738 9.84.36 2.105.666 4.223 1.04 6.32.29 1.617.102 3.28.626 4.863a4.993 4.993 0 0 1 .068 1.51c.005 3.103.002 6.206.006 9.31a9.37 9.37 0 0 0 .336 3.376 2.906 2.906 0 0 1 .023.943 32.407 32.407 0 0 1-3.57-6.65c-1.487-3.689-2.896-7.409-4.311-11.126-.268-.704-.404-1.457-.611-2.185a3.381 3.381 0 0 1-.053-2.23 1.088 1.088 0 0 0-.198-1.066.8.8 0 0 0 .352-.637c-.007-1.01.05-2.027-.057-3.027-.254-2.381-.785-4.717-1.228-7.069-.912-4.835-2.192-9.58-3.317-14.364a56.587 56.587 0 0 1-1.072-6.139 20.86 20.86 0 0 0-.454-2.796c-.533-2.022-.621-4.11-1-6.153-.447-2.414-.829-4.839-1.239-7.26a1.904 1.904 0 0 1-.47-.999c-.946-11.546-.326-23.113-.39-34.67a34.066 34.066 0 0 1 .564-6.586c.09-.162.176-.42.346-.424 2.746-.071 2.86-2.115 3.137-4.091.844-6.012 1.587-12.037 2.585-18.027.34-2.045.038-4.162.455-6.228a44.174 44.174 0 0 1 3.208-8.913 2.158 2.158 0 0 1 1.416-1.429 3.589 3.589 0 0 1 2.172.419c2.531 1.088 5.114 2.056 7.604 3.235.57.27 1.407.317 1.456 1.236Z"/><path fill="#f7bc9a" d="m157.859 261.08-.024 3.61a4.838 4.838 0 0 1-.223 1.87 4.322 4.322 0 0 0-.149 1.691q-.005 14.723 0 29.445a4.22 4.22 0 0 0 .066 1.321 12.09 12.09 0 0 1 .286 3.95c-.282.344-.467.751-.738 1.102a17.255 17.255 0 0 1-1.07 1.781 6.52 6.52 0 0 1-6.496 2.597 6.742 6.742 0 0 1-3.521-1.26 14.93 14.93 0 0 1-2.89-2.997 80.423 80.423 0 0 1-5.287-8.539c-.86-1.687-1.847-3.31-2.796-4.95a56.965 56.965 0 0 1-4.18-9.323 62.058 62.058 0 0 1-2.46-8.548 25.27 25.27 0 0 1-.6-4.305c-.032-1.068-.237-2.13-.303-3.199a32.57 32.57 0 0 1 .882-9.017q1.033-4.715 1.65-9.497a16.307 16.307 0 0 0-.012-4.355 60.965 60.965 0 0 1-.274-7.57c.979-4.024 3.653-6.868 6.746-9.318 3.806-3.014 7.81-2.219 10.952 2.017a40.84 40.84 0 0 0 3.478 4.48c.993 1.47 1.08 3.234 1.582 4.864a7.358 7.358 0 0 1 .126.82 5.214 5.214 0 0 0 .247 1.058c.09.267.164.537.236.81a106.76 106.76 0 0 1 3.016 11.326 20.903 20.903 0 0 1 .609 5.423c.03.176.05.355.072.532a4.282 4.282 0 0 0 .208.745c.076.153.14.312.204.47.205.992.839 1.89.663 2.966Z"/><path fill="#aeaeae" d="M356.312 221.424a7.978 7.978 0 0 0-.328-1.082c-.95-2.067-1.893-4.138-2.891-6.181a95.094 95.094 0 0 1-3.951-9.43c-1.268-3.505-2.196-7.103-3.14-10.7-.704-2.683-1.479-5.346-2.207-8.022-1.574-5.785-3.5-11.465-5.162-17.221-1.841-6.374-4.012-12.634-6.116-18.918-1.261-3.77-2.668-7.492-4.105-11.199a39.553 39.553 0 0 0-3.191-6.026c-2.119-3.514-4.575-6.816-6.572-10.408-.766-1.38-1.599-2.723-2.34-4.116a22.006 22.006 0 0 0-3.607-5.305 4.66 4.66 0 0 1-.793-1.277c-.119-.248.091-.468.308-.623a4.594 4.594 0 0 1 .941.099 70.748 70.748 0 0 1 9.251 3.375 3.081 3.081 0 0 1 .455.327 200.103 200.103 0 0 0 7.207 21.58c2.857 7.32 6.526 14.263 9.671 21.449a276.326 276.326 0 0 1 11.174 30.638c1.675 5.518 2.52 11.23 4.01 16.79a8.034 8.034 0 0 0 .612 1.933c-1.301-4.033-1.962-8.019-2.865-11.943-2.948-12.815-7.556-25.051-12.759-37.083-4.767-11.024-10.382-21.69-13.962-33.216l-2.42-7.793c-.2-.653-.566-1.314.05-1.948a9.633 9.633 0 0 1 3.18 1.567 56.18 56.18 0 0 1 9.403 8.298 180.654 180.654 0 0 0 12.383 37.615c2.585 5.556 5.084 11.16 7.335 16.734a2.327 2.327 0 0 1 .06-.716.802.802 0 0 1 .379-.423 1.853 1.853 0 0 1 .281 1.084c.023.695.083 1.393.05 2.086-.124 2.725.358 5.417.424 8.134.038 1.567.39 3.124.577 4.689a14.603 14.603 0 0 1 .097 1.703c.004 1.581.042 3.165-.037 4.743a37.23 37.23 0 0 0 .971 10.15 19.851 19.851 0 0 0 .621 3.534c-.33.876.338 1.574.432 2.379-.036 1.804.954 3.56.241 5.393-1.287.13-2.6.404-3.667-.67ZM155.586 129.626c.524-.988 1.532-1.47 2.326-2.162 1.7-1.48 3.503-2.843 5.263-4.254.407.612.142 1.21-.025 1.817a142.055 142.055 0 0 0-3.96 23.702 194.61 194.61 0 0 0-1.162 21.947c.091 7.268.993 14.502.95 21.777a1.908 1.908 0 0 0 .024.379c-.018-8.78-1.193-17.522-.943-26.305a235.852 235.852 0 0 1 2.515-28.671 111.682 111.682 0 0 1 3.266-15.166 19.446 19.446 0 0 1 2.896-2.407c2.19-1.798 4.444-3.518 6.667-5.276a2.665 2.665 0 0 1 1.111-.687c.569.672.162 1.307-.074 1.948-4.149 11.242-6.662 22.904-8.706 34.667a107.632 107.632 0 0 0-1.274 14.885c-.526 15.936-.271 31.877-.383 47.816a17.22 17.22 0 0 1-.614 4.293 1.125 1.125 0 0 1-1.482.46 82.533 82.533 0 0 1-8.05-3.212 1.435 1.435 0 0 1-.62-.694c-1.02-3.257-.586-6.654-.86-9.976-.301-3.639-.393-7.318-.572-10.973-.363-7.385-.75-14.763-.687-22.16a181.709 181.709 0 0 1 2.177-26.202c.798-5.172 1.57-10.351 2.217-15.546Z"/><path fill="#aeaeae" d="M175.682 113.245a72.034 72.034 0 0 1 6.222-5.125c1.858-1.386 3.801-2.658 5.744-3.924a26.933 26.933 0 0 1 2.656-1.407.69.69 0 0 1 .976.26c.498.715.018 1.33-.217 1.957a107.631 107.631 0 0 1-8.33 17.419 49.99 49.99 0 0 0-7.345 24.458c-.184 6.63-.372 13.267-.667 19.896a7.526 7.526 0 0 0 .568 3.723c1.719 3.476 1.34 7.045.39 10.566a20.805 20.805 0 0 0-.493 7.53c.364 3.713.502 7.444 1 11.143a13.218 13.218 0 0 1-.378 4.335 57.28 57.28 0 0 1-6.377 16.769c-2.107.315-3.682-.76-5.2-1.995-.792-1.241-.398-2.584-.302-3.888.29-3.918.181-7.84.188-11.762.013-8.293-.139-16.59.04-24.878.211-9.72.071-19.474 1.84-29.1a230.263 230.263 0 0 1 7.228-29.621c.703-2.165 1.674-4.224 2.457-6.356Z"/><path fill="#eaab86" d="M169.17 220.771c1.336-2.931 2.645-5.874 3.79-8.887a38.33 38.33 0 0 0 2.45-8.721 12.596 12.596 0 0 0-.01-4.87 6.132 6.132 0 0 1-.066-1.324 10.21 10.21 0 0 0-.31-3.196 3.175 3.175 0 0 1-.069-.942 44.336 44.336 0 0 0-.294-3.765 30.96 30.96 0 0 1-.04-5.877 33.012 33.012 0 0 1 .902-3.857 21.46 21.46 0 0 0 .51-3.546 9.203 9.203 0 0 0-.667-3.504c-.133-.355-.281-.704-.42-1.057a10.452 10.452 0 0 1-.791-4.439c.075-1.453.025-2.912.037-4.369a8.216 8.216 0 0 1 .23-2.255 6.412 6.412 0 0 0 .13-1.693c.021-2.343.016-4.686.034-7.03a12.072 12.072 0 0 1 .294-3.765 1.952 1.952 0 0 0 .043-.754 33.522 33.522 0 0 1 .472-5.843 34.332 34.332 0 0 1 1.558-7.382c.306-.959.767-1.869 1.167-2.797.824-1.915 1.623-3.841 2.49-5.736a32.184 32.184 0 0 1 2.861-5.128 41.54 41.54 0 0 0 4.047-7.285c.629-1.446 1.113-2.954 1.668-4.432a42.444 42.444 0 0 1 1.981-4.715 2.047 2.047 0 0 0 .113-.553 2.548 2.548 0 0 0 .992-.842 20.971 20.971 0 0 1 8.073-5.346.568.568 0 0 1 .251.8c-.396.793-.757 1.604-1.188 2.378-1.626 2.925-3.274 5.838-4.912 8.756-.155.276-.315.55-.443.839q-1.43 3.199-2.846 6.404a118.203 118.203 0 0 1-1.651 3.62 106.185 106.185 0 0 0-4.661 12.611 59.91 59.91 0 0 0-1.957 8.075 64.722 64.722 0 0 0-1.063 6.507 29.573 29.573 0 0 0-.477 5.267 2.57 2.57 0 0 1-.021.758c-.745 3.575-.177 7.192-.34 10.785.595 2.174.18 4.411.404 6.6.198 1.948.22 3.906.433 5.839.139 1.254.154 2.516.322 3.756.254 1.883.16 3.798.437 5.647a40.067 40.067 0 0 1 .283 5.474c.037 2.723.019 5.447.007 8.17a9.622 9.622 0 0 1-.322 3.568 1.522 1.522 0 0 0-.048.565 30.888 30.888 0 0 1-.693 5.8c-.222 1.3-.273 2.628-.47 3.933-.283 1.863-.668 3.712-.94 5.576a65.727 65.727 0 0 0-.981 6.527.953.953 0 0 1-.896.173 85.347 85.347 0 0 1-8.864-3.774 1.076 1.076 0 0 1-.54-.744Z"/><path fill="#1e1e1e" d="M169.17 220.771c.494.258.973.55 1.485.767q4.04 1.714 8.094 3.392a5.108 5.108 0 0 0 .72.185 36.483 36.483 0 0 0 4.267 2.008c3.048 1.377 6.113 2.719 9.165 4.088a21.182 21.182 0 0 0 3.382 1.21 7.656 7.656 0 0 0 2.068.18.783.783 0 0 0 .802-.66c.088-.365.112-.745.164-1.119.94-5.198 3.305-7.582 8.54-8.663.985-.204 1.977-.381 2.95-.656 9.106-1.006 18.197-.085 27.292.17.252.007.504.06.757.054 6.714-.125 13.405.33 20.092.796 2.753.363 5.541.427 8.287.908 3.812.667 6.626 2.378 7.367 6.53.26 1.456 1.29 1.917 2.698 1.554 3.16.11 6.322.202 9.481.333 2.34.097 4.676.244 7.014.37.442.023.884.064 1.327.075.743.019.933-.101.997-.807a16.114 16.114 0 0 1 .817-3.696 13.098 13.098 0 0 1 .477-1.238 4.42 4.42 0 0 1 2.546-2.409 30.043 30.043 0 0 1 5.11-1.41 23.459 23.459 0 0 0 4.087-.818 4.166 4.166 0 0 1 2.667-.837c8.513-.411 16.99-1.644 25.54-1.212 4.603.232 9.195.655 13.804.782a8.226 8.226 0 0 1 2.012.513 11.753 11.753 0 0 0 3.132.263l3.742.496c4.143-.439 7.855 2.199 8.808 5.096a20.71 20.71 0 0 1 .766 3.134c.088.534.046 1.274.924 1.106.778-.15.961-.738.825-1.454a6.222 6.222 0 0 0-1.209-2.554 53.463 53.463 0 0 0-6.977-7.237c-1.024-.94-2.09-1.837-3.062-2.834a4.318 4.318 0 0 1-.503-.557c-.103-.125-.209-.25-.316-.374-.148-.191-.3-.379-.442-.574-.512-.703-.475-.814.44-1.35a4.573 4.573 0 0 1 .658.369 74.98 74.98 0 0 1 11.227 10.473 10.664 10.664 0 0 1 2.358 4.696c.359 1.726-.019 2.462-1.603 3.163-.058.026-.124.036-.178.066-.709.388-1.788.247-2.156.992a6.975 6.975 0 0 0-.173 2.237c-.306 3.087-.223 6.198-.64 9.28a28.242 28.242 0 0 1-1.605 6.814c-1.169 2.911-2.888 5.339-5.94 6.553-.108.043-.184.166-.275.252a2.4 2.4 0 0 1-1.013.72c-.668.47-1.45.285-2.183.382-2.714.591-5.42 1.222-8.144 1.766a93.145 93.145 0 0 1-11.809 1.749c-1.45.1-2.894.28-4.343.402a91.639 91.639 0 0 1-13.456.086c-1.89-.117-3.793-.01-5.69-.005a16.452 16.452 0 0 1-4.698-.513 11.1 11.1 0 0 1-4.011-2.07 26.2 26.2 0 0 1-4.103-4.44c-1.043-.6-1.176-1.702-1.496-2.7l-1.227-3.576a66.665 66.665 0 0 1-2.876-13.504c-.109-.874-.05-1.768-.079-2.652-.022-.707-.153-.844-.883-.963a5.913 5.913 0 0 0-.565-.066c-5.301-.344-10.607-.578-15.92-.59a12.978 12.978 0 0 0-1.315.127c-2.445.384-2.762 1.972-3.058 4.21a45.849 45.849 0 0 1-10.638 23.643c-.995 1.193-2.102 2.388-3.862 2.466a38.687 38.687 0 0 1-9.196 1.219c-7.664.183-15.328.066-22.99-.088a99.026 99.026 0 0 1-14.173-1.305c-1.81-.3-3.63-.55-5.431-.893a23.176 23.176 0 0 1-2.925-.8c-3.897-1.29-6.103-4.116-7.136-7.971-.195-.731-.3-1.487-.447-2.232-.662-.737-.135-1.547-.115-2.315.047-1.846-.2-3.69-.014-5.535.142-.921-.296-1.888.215-2.782.532-1.307.414-2.723.68-4.075.157-.797.21-1.614.309-2.421-.686-.591-1.559-.248-2.328-.462a30.17 30.17 0 0 1-4.256-1.548q-5.435-2.431-10.876-4.846c-.341-.152-.705-.255-1.058-.381a30.407 30.407 0 0 0-4.26-1.922c-2.191-.92-4.41-1.774-6.618-2.656a20.308 20.308 0 0 1-4.346-1.529 8.96 8.96 0 0 0-2.005-.8c-2.848-1.163-5.756-2.166-8.602-3.33a18.028 18.028 0 0 0-2.065-.75c-2.373-.75-4.558-2.169-7.185-1.994a3.481 3.481 0 0 0-1.325.859c-1.56.971-1.771.938-2.256-.344a9.09 9.09 0 0 1 3.321-2.764c1.225-.707 2.44-.292 3.62.098 1.303.43 2.6.885 3.862 1.43a3.77 3.77 0 0 1 1.663 1.105l9.47 3.593c.68-.18 1.024.43 1.534.652Z"/><path fill="#aeaeae" d="M152.117 214.01c-1.244-.428-2.495-.84-3.73-1.29a9.21 9.21 0 0 0-3.858-.696 2.068 2.068 0 0 0 .39-1.238 15.386 15.386 0 0 0-.225-3.023 3.637 3.637 0 0 1-.108-.749c-.151-2.714-.258-5.43-.451-8.14-.243-3.402-.232-6.82-.666-10.21a1.302 1.302 0 0 1-.014-.19c.074-3.863-.57-7.694-.506-11.559.065-3.861.08-7.724.117-11.586.483-2.045.234-4.156.594-6.222.302-1.736.306-3.522.492-5.28a38.111 38.111 0 0 1 10.602-23.155c.702.6.487 1.372.387 2.117-.845 6.313-1.881 12.6-2.688 18.917-.599 4.695-.887 9.421-1.079 14.151-.558 13.782.5 27.51 1.289 41.25.105 1.825.232 3.656.242 5.488.004.616.14 1.314-.788 1.415Z"/><path fill="#eaab86" d="M360.02 259.591a1.179 1.179 0 0 1 .961-.374c.907 3.744 1.602 7.525 2.16 11.34a88.426 88.426 0 0 1 .622 17.416 71.624 71.624 0 0 1-1.312 11.088c-.494 2.345-.778 4.734-1.195 7.095-.572 3.233-1.203 6.455-1.765 9.689-.367 2.114-.666 4.24-.975 6.363a105.579 105.579 0 0 1-3.8 18.147 87.02 87.02 0 0 1-3.995 9.634 73.533 73.533 0 0 1-4.656 8.696c-.275.424-.581.828-.873 1.24a.508.508 0 0 1-.19-.658c.563-1.268 1.137-2.531 1.704-3.798a143.706 143.706 0 0 0 6.35-15.378 34.032 34.032 0 0 0 .965-4.603c.252-1.487.23-3.001.611-4.478a12.182 12.182 0 0 0 .098-2.644 8.178 8.178 0 0 1 .293-2.999 2.581 2.581 0 0 0 .078-.939c.006-2.15-.024-4.301.015-6.451.018-.969-.438-1.837-.467-2.792-.008-.259-.304-.372-.586-.29a9.147 9.147 0 0 1-2.95.6 7.996 7.996 0 0 1-2.548-.653 1.477 1.477 0 0 1-.707-.602.855.855 0 0 1 .014-1.202c.204-.24.435-.46.658-.684.58-.582 1.138-1.19 1.749-1.738a34.228 34.228 0 0 0 4.913-5.737 27.967 27.967 0 0 0 4.767-11.221 29.606 29.606 0 0 0 .87-6.341c.68-2.424.317-4.902.325-7.353a27.715 27.715 0 0 0-.508-4.297c-.29-1.86-.642-3.71-.97-5.564-.196-1.112-.437-2.219-.587-3.337-.283-2.116-.872-4.184-.965-6.328.051-.123.138-.24.24-.222 1.156.188 1.172.185 1.656-.625Z"/><path fill="#aeaeae" d="M336.872 125.793a42.684 42.684 0 0 1 4.065 5.204 82.203 82.203 0 0 1 6.855 11.984c1.217 2.57 2.369 5.156 3.34 7.833a82.733 82.733 0 0 1 3.675 13.872c.55 3.105.925 6.23 1.356 9.349a40.037 40.037 0 0 1 .158 4.165l-.123.09c-.724-.016-.915-.605-1.132-1.114-4.965-11.627-10.647-22.956-14.395-35.087-1.496-4.842-2.635-9.771-3.9-14.67-.138-.536-.348-1.111.1-1.626Z"/><path fill="#eaab86" d="M141.208 214.788c.123.268.159.597.482.73a.944.944 0 0 0 .998-.238c.236-.184.493-.34.74-.51a1.419 1.419 0 0 1 1.488-.234c1.258 1.476 1.615 3.388 2.285 5.114a68.406 68.406 0 0 1 3.433 10.428c.153.718.597 1.44-.029 2.148a10.998 10.998 0 0 1-2.997-3.604 12.162 12.162 0 0 0-3.487-3.416 5.584 5.584 0 0 0-6.255-.053 8.796 8.796 0 0 0-2.246 1.724c-1.223 1.358-2.732 2.462-3.663 4.078-.503.875-.95 1.783-1.43 2.673a3.075 3.075 0 0 1-.807 1.259c.001-2.088-.094-4.182.028-6.264a20.65 20.65 0 0 1 1.795-7.132 7.77 7.77 0 0 1 2.294-2.988 16.693 16.693 0 0 1 7.37-3.715Z"/><path fill="#999" d="M164.678 218.902a2.218 2.218 0 0 1-1.535-.652 10.649 10.649 0 0 1 .307-2.815 6.267 6.267 0 0 0 .084-1.887q.01-17.48.015-34.959a9.28 9.28 0 0 1 .275-3.007 5.597 5.597 0 0 0 .087-1.697q.013-5.225.013-10.45a5.11 5.11 0 0 1 .234-2.06 1.366 1.366 0 0 0 .114-.554 42.77 42.77 0 0 1 .378-5.655c.17-1.628.394-3.242.67-4.852q.432-2.51.86-5.02c.635-3.727 1.57-7.387 2.462-11.058.416-1.712.793-3.434 1.227-5.142a88.525 88.525 0 0 1 4.529-14.035 2.896 2.896 0 0 0 .116-.739 3.226 3.226 0 0 1 1.169-1.075.528.528 0 0 1 .266.638c-.345.947-.684 1.898-1.069 2.83a90.816 90.816 0 0 0-4.072 12.978c-.572 2.323-1.15 4.645-1.688 6.975-.721 3.124-1.455 6.245-2.093 9.386a60.62 60.62 0 0 0-1.114 6.875 29.158 29.158 0 0 0-.478 5.261 1.694 1.694 0 0 1-.014.568c-.622 2.428-.27 4.904-.362 7.357a6.315 6.315 0 0 1-.237 2.059 5.78 5.78 0 0 0-.132 2.07q-.012 20.12-.015 40.238a31.754 31.754 0 0 1-.253 3.19c-.175 1.727-.48 3.524.256 5.232ZM323.583 115.124a4.194 4.194 0 0 0 .083.938c1.487 4.627 2.885 9.286 4.524 13.859 1.34 3.738 3 7.36 4.464 11.055.864 2.181 2.06 4.202 2.972 6.351 1.43 3.372 3.185 6.593 4.513 10.015.751 1.935 1.782 3.76 2.494 5.727.902 2.491 1.949 4.93 2.854 7.42 1.466 4.032 2.937 8.066 4.278 12.141a120.02 120.02 0 0 1 3.46 12.76c.688 3.263 1.49 6.502 2.256 9.748.16.674.39 1.33.568 2a5.088 5.088 0 0 1 .153.92.328.328 0 0 1-.311.388.424.424 0 0 1-.323-.126 4.88 4.88 0 0 1-.805-1.704c-.638-2.952-1.432-5.866-2.017-8.834a95.713 95.713 0 0 0-2.64-10.435c-.992-3.128-1.942-6.27-3.018-9.369-1.491-4.29-2.98-8.588-4.673-12.8-.962-2.396-2.018-4.767-3.064-7.134-1.763-3.991-3.733-7.88-5.547-11.843-2.389-5.218-4.533-10.543-6.555-15.922-1.8-4.792-3.089-9.739-4.729-14.576a.78.78 0 0 1 .344-.986 1.026 1.026 0 0 1 .719.407ZM152.117 214.01a3.165 3.165 0 0 0 .305-2.896 21.183 21.183 0 0 1-.285-3.95 21.287 21.287 0 0 0-.28-3.57 21.397 21.397 0 0 1-.104-3.782 7.696 7.696 0 0 0-.251-2.436 4.934 4.934 0 0 1-.117-1.501c-.016-1.391-.006-2.782-.014-4.173a7.073 7.073 0 0 0-.23-2.25 5 5 0 0 1-.135-1.498c-.017-1.707 0-3.414-.016-5.121a10.932 10.932 0 0 0-.303-3.568 4.214 4.214 0 0 1-.062-1.319c-.005-2.276-.009-4.552 0-6.828a9.368 9.368 0 0 1 .29-3.19 4.152 4.152 0 0 0 .074-1.317c.008-1.518.002-3.035.011-4.553a5.499 5.499 0 0 1 .248-2.244 1.181 1.181 0 0 0 .102-.554c-.194-2.094.379-4.133.431-6.213a27.317 27.317 0 0 1 .444-3.74c.277-1.671.52-3.341.71-5.028.323-2.865.891-5.702 1.265-8.563.218-1.675.75-3.321.554-5.044a2.38 2.38 0 0 1 .832-1.046 2.353 2.353 0 0 1 .236 2.34c-.387 1.41-.331 2.864-.586 4.287-.253 1.415-.426 2.85-.716 4.265-.202.983-.214 1.988-.405 2.986-.413 2.152-.435 4.382-.897 6.52-.349 1.613-.096 3.277-.641 4.854a4.597 4.597 0 0 0-.06 1.319 4.751 4.751 0 0 1-.053 1.32 13.97 13.97 0 0 0-.327 4.132 10.686 10.686 0 0 1-.3 3.378 4.074 4.074 0 0 0-.073 1.317q-.005 7.68-.001 15.36a6.64 6.64 0 0 0 .224 2.06 5.213 5.213 0 0 1 .14 1.498c.019 1.58.005 3.16.016 4.74a7.484 7.484 0 0 0 .264 2.623 4.016 4.016 0 0 1 .103 1.314c.013 1.39.007 2.78.012 4.171a3.873 3.873 0 0 0 .036 1.133 16.462 16.462 0 0 1 .342 4.7 8.911 8.911 0 0 0 .283 2.81 5.07 5.07 0 0 1 .091 1.505 21.039 21.039 0 0 0 .363 5.454 3.841 3.841 0 0 1 .037.945 3.025 3.025 0 0 1-1.557-.647ZM163.84 122.69c.2.16.393.327.328.624a11.189 11.189 0 0 1-.303 1.284c-1.254 3.583-1.603 7.373-2.527 11.03-.03 2.276-.874 4.45-.848 6.733-.547 1.57-.173 3.267-.68 4.851a5.563 5.563 0 0 0-.07 1.51 4.977 4.977 0 0 1-.215 1.873 1.26 1.26 0 0 0-.128.55c.163 2.156-.43 4.262-.424 6.409a11.77 11.77 0 0 1-.305 3.76 5.067 5.067 0 0 0-.063 1.51q-.006 5.697 0 11.393a15.592 15.592 0 0 0 .274 3.385 16.877 16.877 0 0 1 .101 3.215 8.996 8.996 0 0 0 .303 3.19 2.69 2.69 0 0 1 .07.941q.01 4.747.002 9.494a3.681 3.681 0 0 1-.156.914c-.016.062-.198.091-.308.11a.165.165 0 0 1-.131-.095 4.893 4.893 0 0 1-.156-.913c-.015-1.646 0-3.292-.012-4.937a10.503 10.503 0 0 0-.296-3.382 5.245 5.245 0 0 1-.076-1.509 9.178 9.178 0 0 0-.299-3.002 4.093 4.093 0 0 1-.077-1.319c-.009-1.772-.003-3.544-.013-5.317a8.074 8.074 0 0 0-.28-2.814 4.04 4.04 0 0 1-.083-1.317q-.012-2.184-.001-4.368a7.45 7.45 0 0 1 .268-2.625 4.026 4.026 0 0 0 .094-1.317c.012-1.392.005-2.785.013-4.177a5.808 5.808 0 0 1 .275-2.432.92.92 0 0 0 .07-.37 49.828 49.828 0 0 1 .37-5.274c.214-2.125.517-4.241.703-6.364.132-1.506.422-2.988.518-4.5a39.47 39.47 0 0 1 .757-5.028c.543-2.776 1.035-5.565 1.816-8.29.277-.968.55-1.938.824-2.906l.665-.52Z"/><path fill="#302a35" d="M345.228 420.415c.19 1.02-.4 1.832-.74 2.703-1.1 2.822-2.146 5.67-3.367 8.439a52.138 52.138 0 0 1-4.249 7.825 89.04 89.04 0 0 1-6.806 9.31c-1.444 1.66-2.74 3.45-4.116 5.17a12.117 12.117 0 0 1-.919.962c-2.013 2.017-4.042 4.02-6.04 6.051-1.642 1.67-3.492 3.088-5.267 4.602a112.992 112.992 0 0 1-6.21 4.945 45.767 45.767 0 0 1-9.71 5.485c-1.634.676-3.227 1.45-4.85 2.152-.633.274-1.297.482-1.954.697-.083.027-.304-.088-.304-.137 0-.172.017-.449.119-.498.79-.384 1.599-.734 2.409-1.076a66.315 66.315 0 0 0 13.25-6.9c2.042-1.474 3.938-3.15 5.99-4.61 1.395-.994 2.447-2.378 3.928-3.257a3.918 3.918 0 0 0 .692-.648c2.33-2.328 4.695-4.622 6.972-7 1.217-1.271 2.237-2.728 3.425-4.028 1.28-1.402 2.372-2.945 3.55-4.424a55.532 55.532 0 0 0 5.038-7.082c.841-1.482 1.747-2.928 2.573-4.418a89.632 89.632 0 0 0 4.295-9.903c.546-1.345 1.063-2.702 1.611-4.046.067-.163.246-.281.372-.42a.252.252 0 0 1 .308.106Z"/><path fill="#999" d="M336.872 125.793c.89 3.6 1.699 7.22 2.693 10.791.912 3.274 1.958 6.515 3.062 9.73a141.335 141.335 0 0 0 5.259 13.358c1.266 2.744 2.404 5.547 3.622 8.314.71 1.615 1.477 3.206 2.195 4.818q.923 2.07 1.786 4.167a3.824 3.824 0 0 0 .71 1.32v2.994c-.585-1.355-1.028-2.374-1.464-3.396-1.065-2.492-2.114-4.99-3.193-7.475-.528-1.214-1.133-2.39-1.634-3.622-.76-1.867-1.705-3.66-2.513-5.51-1.11-2.54-2.24-5.077-3.224-7.667-1.344-3.534-2.592-7.105-3.82-10.681-1.27-3.695-2.112-7.512-3.09-11.289-.489-1.887-.954-3.78-1.434-5.67a.806.806 0 0 1 .338-.986 1.776 1.776 0 0 1 .707.804Z"/><path fill="#f9dfd0" d="M157.077 304.069a1.038 1.038 0 0 1 .738-1.102l-.028.764-.71.338Z"/><path fill="#2f2934" d="m274.865 478.906.383 1.791c.152.704.153.703 1.111.804.136.15.224.33-.025.426-1.705.657-3.427 1.27-5.12 1.956a67.496 67.496 0 0 0-8.025 3.361c-.385.217-.8.386-1.165.632a1.627 1.627 0 0 0-.795 1.426c.01.633.002 1.266-.005 1.898a7.344 7.344 0 0 1-.261 2.436 5.11 5.11 0 0 0-.115 1.502 7.454 7.454 0 0 1-.247 2.249 4.86 4.86 0 0 0-.13 1.5c-.014 1.898 0 3.796-.01 5.694a7.727 7.727 0 0 1-.282 2.812 3.975 3.975 0 0 0-.09 1.316c-.013.95-.01 1.898-.012 2.847q-.569 0-1.137-.002c-1.04-.51-.976-1.567-1.15-2.459-1.244-6.326-2.257-12.695-3.537-19.015-.289-1.426-.69-2.825-.95-4.255-.325-1.782.066-2.524 1.783-2.96q8.917-2.26 17.735-4.871c.923-.275 1.774-.313 2.044.912Z"/><path fill="#3c3641" d="M274.865 478.906c-.398-.365-.662-.854-1.412-.612-6.117 1.968-12.33 3.596-18.558 5.168-1.18.297-1.439.701-1.21 1.882.072.37.228.722.305 1.091.64 3.075 1.29 6.148 1.896 9.23.52 2.648 1.092 5.293 1.442 7.966.31 2.375.991 4.673 1.271 7.047a3.704 3.704 0 0 0 .341.877c-.63.015-1.262.045-1.893.045q-34.6.003-69.2 0c-.63 0-1.261-.033-1.892-.05 1.383-.99 2.76-1.99 4.151-2.966a27.552 27.552 0 0 0 8.693-10.068c1.075-2.071 2.32-4.055 3.395-6.127a86.02 86.02 0 0 1 3.193-5.59c1.259-2.04 2.522-4.078 3.732-6.147a72.964 72.964 0 0 0 3.827-7.622c1.015-2.319 2.167-4.567 3.374-6.79 1.508-2.776 3.199-5.443 4.954-8.06a16.945 16.945 0 0 1 4.006-4.481c2.445-1.776 4.774-3.714 7.326-5.346a64.978 64.978 0 0 1 9.358-4.921c2.61-1.123 5.36-1.902 7.863-3.28a14.847 14.847 0 0 0 2.826-1.887c.495-.445.849-1.141 1.72-.924.198.05.297-.19.365-.37l.79-2.122a15.328 15.328 0 0 1 3.395 1.13 21.358 21.358 0 0 0 7.883 1.814c.635-.001.88.204.88.733a46.558 46.558 0 0 0 1.333 8.778c1.343 6.933 2.83 13.84 4.176 20.772.661 3.403 1.142 6.842 1.696 10.265a2.709 2.709 0 0 1-.026.565Z"/><path fill="#27212c" d="M143.354 387.236c.298.101.627.177.73.53.528 1.816 1.105 3.62 1.56 5.455a60.473 60.473 0 0 0 6.012 15.5 88.998 88.998 0 0 0 7.273 11.062c1.989 2.527 4.056 4.979 6.19 7.389 1.595 1.801 3.31 3.476 4.926 5.249a24.156 24.156 0 0 0 2.63 2.971c2.994 2.36 5.42 5.314 8.258 7.824 1.468 1.3 2.822 2.72 4.324 3.966a60.961 60.961 0 0 0 7.435 5.825c.272.163.575.29.69.613a.439.439 0 0 1-.034.347.397.397 0 0 1-.313.163 1.767 1.767 0 0 1-.69-.236c-.98-.69-1.967-1.373-2.902-2.12-1.476-1.177-2.914-2.404-4.368-3.61a1.237 1.237 0 0 1-.14-.128c-1.764-1.997-3.966-3.52-5.833-5.414-2.573-2.609-5.516-4.845-7.932-7.611-2.117-2.424-4.51-4.597-6.461-7.167a5.025 5.025 0 0 0-.526-.548c-1.591-1.54-2.875-3.344-4.328-5a72.253 72.253 0 0 1-6.078-8.438 61.59 61.59 0 0 1-7.86-16.545c-.783-2.726-1.588-5.446-2.345-8.18a13.216 13.216 0 0 1-.249-1.87Z"/><path fill="#a27779" d="M292.398 344.369c-1.646 0-3.293.006-4.94-.002a69.629 69.629 0 0 1-8.485-.684c-1.376-.176-2.762-.211-4.145-.397a118.937 118.937 0 0 1-8.387-1.426c-3.4-.707-6.782-1.47-10.123-2.426a38.526 38.526 0 0 1-10.034-4.415c-1.656-1.045-3.285-2.13-4.847-3.322a32.254 32.254 0 0 1-5.616-5.88c-.664-.843-1.272-1.731-1.884-2.614-.585-.843-.52-1.177.352-1.65 1.67-.905 3.397-1.68 5.15-2.42a53.23 53.23 0 0 1 10.746-2.959c2.36-.455 4.756-.583 7.113-1.02a7.637 7.637 0 0 1 1.327-.05c2.85-.02 5.7-.03 8.549-.056a8.92 8.92 0 0 0 2.64-.198 1.508 1.508 0 0 1 .75-.046 28.178 28.178 0 0 0 5.678.243c2.342.06 4.697-.078 7.025.121q3.786.325 7.572.32c3.989-.003 7.978-.008 11.967-.066 1.321-.019 2.639-.224 3.96-.308a17.536 17.536 0 0 0 3.961-.315 3.166 3.166 0 0 1 .945-.067c2.092.042 4.145-.402 6.23-.508 1.315-.067 2.634-.24 3.962-.246a5.68 5.68 0 0 1 1.678.265 2.576 2.576 0 0 1 1.945 2.847 8.396 8.396 0 0 1-.713 2.347c-2.364 5.18-4.904 10.271-7.732 15.218a14.569 14.569 0 0 1-5.862 5.784 37.967 37.967 0 0 1-6.56 2.97 19.028 19.028 0 0 1-5.763.98c-2.153-.012-4.306-.002-6.459-.002Z"/><path fill="#eaab86" d="M259.611 263.69c2.902-1.628 4.826-4.204 6.622-6.886a53.326 53.326 0 0 0 5.93-12.451 34.54 34.54 0 0 0 1.671-8.333c.268-3.116-.09-2.573 2.963-2.712a1.778 1.778 0 0 1 .372.062c.387 1.46.754 2.924 1.165 4.376a68.084 68.084 0 0 1 1.914 8.847c.188 1.304.467 2.595.668 3.897a11.787 11.787 0 0 1 .073 1.515 7.634 7.634 0 0 0 .224 2.063 6.105 6.105 0 0 1 .15 1.688c.015 2.342.002 4.685.013 7.027a14.89 14.89 0 0 0 .277 3.385 12.405 12.405 0 0 1 .09 3.026 50.68 50.68 0 0 0 .665 6.749 65.95 65.95 0 0 0 1.318 6.661 25.4 25.4 0 0 0 2.149 6.444 14.547 14.547 0 0 0 2.605 3.704 17.822 17.822 0 0 0 4.038 3.414 1.274 1.274 0 0 1 .412.38.505.505 0 0 1-.06.689 2.247 2.247 0 0 1-.79.503 9.843 9.843 0 0 1-5.191.414c-2.302-.484-4.164-1.738-6.146-2.84-2.588-1.44-5.137-2.994-8.106-3.605a7.39 7.39 0 0 0-1.496-.18c-1.52 0-3.04.03-4.558-.01-1.212-.032-2.34.573-3.56.412-1.725.585-3.51.291-5.27.36a4.968 4.968 0 0 1-2.23-.326 8.523 8.523 0 0 1-3.382-2.326 1.533 1.533 0 0 0-1.78-.655 42.179 42.179 0 0 0-6.248 2.17c-.987.418-1.976.836-2.95 1.287a33.785 33.785 0 0 0-7.46 4.795 10.895 10.895 0 0 0-1.795 1.944c-1.34 1.831-2.74 3.618-3.926 5.56a2.13 2.13 0 0 1-.533.53c-.058.046-.213-.013-.314-.052-.039-.015-.069-.105-.07-.16a2.404 2.404 0 0 1 .579-1.375c.973-1.396 1.974-2.772 2.969-4.154a4.107 4.107 0 0 0 .47-.591c1.393-3.034 3.926-5.127 6.316-7.244a112.503 112.503 0 0 1 9.914-7.858c.824-.579 1.604-1.223 2.373-1.874a3.823 3.823 0 0 0 1.296-2.25 14.62 14.62 0 0 1 2.321-5.152c1.398-2.1 2.746-4.231 4.254-6.262a33.425 33.425 0 0 0 2.23-3.955.471.471 0 0 0-.176-.652Z"/><path fill="#ebab86" d="M300.034 254.593a12.145 12.145 0 0 1 1.496 2.701c-.2.165-.396.36-.338.634a28.573 28.573 0 0 0 4.16 10.479 4.51 4.51 0 0 0 .59.737c2.295 2.175 4.145 4.766 6.489 6.898a23.728 23.728 0 0 0 2.376 2.42 19.441 19.441 0 0 0 3.148 1.268 11.937 11.937 0 0 1 3.461 2.261c1.427 1.346 2.851 2.704 4.15 4.17a43.14 43.14 0 0 1 3.347 4.328c2.13 3.128 4.19 6.304 6.243 9.483.65 1.005 1.194 2.078 1.775 3.126.146.264.364.623-.039.792-.34.142-.557-.199-.724-.47-.363-.59-.717-1.187-1.073-1.782a22.252 22.252 0 0 1-1.243-2.12 5.387 5.387 0 0 0-2.398-2.592 33.356 33.356 0 0 1-3.683-2.951c-1.566-1.162-3.09-2.384-4.682-3.513a17.876 17.876 0 0 0-5.18-2.275c-.664-.206-1.03.001-1.273.735a9.583 9.583 0 0 1-.965 1.836.666.666 0 0 1-.483.19c-.234.01-.31-.212-.323-.395a2.56 2.56 0 0 1 .009-1.125 3.704 3.704 0 0 0-.247-3.107 32.843 32.843 0 0 0-3.455-6.522 29.326 29.326 0 0 0-4.038-4.506 17.095 17.095 0 0 1-3.44-4.253 10.68 10.68 0 0 1-1.797-6.082c.097-1.683-.589-3.211-.901-4.812-.265-1.356-.657-2.687-.934-4.042a8.03 8.03 0 0 1-.028-1.51Z"/><path fill="#eaab86" d="M324.886 370.55c-.305-.11-.46-.24-.413-.445a1.06 1.06 0 0 1 .267-.484 7.435 7.435 0 0 0 1.704-3.34 47.376 47.376 0 0 0 1.186-4.758c.197-1.107.23-2.248.489-3.352.373-1.593.257-3.257.713-4.838a2.11 2.11 0 0 0 .043-.566 47.207 47.207 0 0 1 1.07-8.014c.308-1.729.598-3.464.802-5.207a20.877 20.877 0 0 1 1.913-6.103c.723-1.612 1.439-3.221 2.06-4.876a16.232 16.232 0 0 1 .921-1.869c.228-.43.65-.642.888-.464.337.253.169.553.034.837a12.17 12.17 0 0 0-.723 1.543c-.782 2.526-1.525 5.065-2.278 7.6a1.47 1.47 0 0 0-.098.555 23.093 23.093 0 0 1-.462 5.257 57.166 57.166 0 0 1-.934 7.466c-.3 1.21-.35 2.483-.534 3.724-.129.87-.25 1.745-.452 2.6-.854 3.609-1.699 7.22-2.627 10.811a5.502 5.502 0 0 1-2.96 3.74 3.335 3.335 0 0 1-.61.184ZM225.036 330.135c.234-.08.35.076.458.232a15.517 15.517 0 0 1 2.308 5.35 52.88 52.88 0 0 1 1.166 6.68 34.13 34.13 0 0 0 3.495 12.099.797.797 0 0 1 .086.169c.127.553.993 1.203.212 1.62-.585.312-1.07-.527-1.398-1.028a29.751 29.751 0 0 1-4.299-9.84c.103-1.402-.438-2.726-.466-4.126-.026-1.248-.492-2.478-.337-3.751.15-1.224-.373-2.356-.448-3.557a8.06 8.06 0 0 0-.778-2.319 1.92 1.92 0 0 1-.231-1.273c.028-.1.154-.173.232-.256Z"/><path fill="#dc9d78" d="m197.295 243.635.018 7.984a1.5 1.5 0 0 0-1.085.243c-.888.807-1.882 1.477-2.768 2.299a51.578 51.578 0 0 0-7.24 8.733c-.786 1.142-1.447 2.37-2.158 3.564-.194.325-.342.68-.55.997a.579.579 0 0 1-.622.33c-.249-.053-.382-.445-.212-.8a21.551 21.551 0 0 1 1.203-2.368 69.303 69.303 0 0 1 5.858-8.14 25.969 25.969 0 0 1 4.37-4.199c.77-.55 1.492-1.165 2.232-1.754a1.566 1.566 0 0 0 .638-1.313c-.019-1.077-.022-2.154-.032-3.23-.08-.168-.19-.201-.336-.077l-1.507.019c-.319.328-.838.014-1.151.36l-.755.017c-.206.223-.56.13-.764.356l-.753.026c-.21.22-.571.127-.772.369a3.356 3.356 0 0 1-.367.012.533.533 0 0 1-.76-.008l.005-.38c.196-.224.546-.15.74-.38.31-.336.84-.019 1.14-.382a2.905 2.905 0 0 1 .36-.008c.215-.214.572-.124.777-.36l.748-.018c.447-.39 1.093.05 1.534-.367l.752-.01c.303-.343.863.013 1.134-.417l.026-1.098c.099-.167.198-.175.297 0Z"/><path fill="#ecad88" d="M310.9 291.883a3.946 3.946 0 0 1-1.133-.015c-1.796-.564-3.635-.314-5.455-.329a7.039 7.039 0 0 0-5.106 2.098 41.254 41.254 0 0 1-1.675 1.526c-.055.048-.256.002-.33-.065-.074-.069-.14-.275-.098-.323a22.7 22.7 0 0 1 1.657-1.808 7.709 7.709 0 0 1 4.506-2.195c.753-.073 1.482-.626 2.215-.355 1.643.608 3.405.054 5.04.629a3.181 3.181 0 0 0 2.035-.196.536.536 0 0 1 .487.17c.13.264-.074.431-.304.576a3.064 3.064 0 0 1-1.84.287Z"/><path fill="#dc9d79" d="M197.295 243.635h-.297c-.033-1.68.29-1.555-1.452-2.443a15.141 15.141 0 0 0-5.267-1.9 3.153 3.153 0 0 0-1.093.028c-.327.076-.661-.04-.68-.434-.018-.391.34-.52.64-.54a6.765 6.765 0 0 1 1.876.014 10.614 10.614 0 0 1 2.695.779c1.217.635 2.454 1.234 3.682 1.848l-.104 2.648Z"/><path fill="#d79c78" d="M360.02 259.591c-.346.585.003 1.07.222 1.576.11.251.083.507-.19.62a.546.546 0 0 1-.662-.197c-.217-.301-.38-.64-.592-.945a.679.679 0 0 0-.674-.207 1.224 1.224 0 0 1-.34-.12 6.414 6.414 0 0 1 2.236-.727Z"/><path fill="#dd9d79" d="M195.086 245.16c-.408.552-1.004.324-1.534.367.414-.528 1.002-.33 1.534-.367ZM191.668 245.913c-.273.448-.722.37-1.141.381.278-.434.722-.37 1.14-.38ZM193.953 246.283c.283-.44.73-.356 1.151-.36-.29.422-.73.363-1.151.36ZM196.972 244.733c-.243.506-.71.403-1.134.417.272-.426.734-.336 1.134-.417ZM190.909 247.05a.779.779 0 0 1 .772-.368.814.814 0 0 1-.772.369ZM189.782 247.055l.76.007c-.257.354-.51.4-.76-.007ZM192.804 245.545a.778.778 0 0 1-.778.36.812.812 0 0 1 .778-.36ZM190.526 246.295a.763.763 0 0 1-.74.38.742.742 0 0 1 .74-.38ZM192.434 246.656a.782.782 0 0 1 .763-.356.782.782 0 0 1-.763.356Z"/><path fill="#dc9d79" d="M196.611 245.904c.18-.272.283-.208.337.076a1.353 1.353 0 0 0-.337-.076Z"/><path fill="#aeaeae" d="M259.306 223.054c-.756-.004-1.517.046-2.267-.022-5.665-.514-11.352-.521-17.027-.784-5.552-.258-11.11-.195-16.66-.524a60.29 60.29 0 0 0-9.277.109c-1.189.113-2.39.098-3.586.142a46.502 46.502 0 0 1-7.408.598 2.827 2.827 0 0 1-2.258-.639 3.144 3.144 0 0 1 1.384-2.554 34.64 34.64 0 0 1 10.886-6.384 6.59 6.59 0 0 1 2.768-.55c.884.042 1.772.008 2.658-.008a51.028 51.028 0 0 0 4.149-.237 20.438 20.438 0 0 1 6.045.117 9.053 9.053 0 0 0 1.697.12c2.911.02 5.823.015 8.735.038a17.398 17.398 0 0 1 3.58.266 12.131 12.131 0 0 0 3.028.093 49.864 49.864 0 0 1 5.27.501c1.941.123 3.874.415 5.808.659 1.682.212 3.408.305 4.778 1.512a1.813 1.813 0 0 1 .775 1.627c-.366 2.305-.972 4.51-3.078 5.92ZM353.18 221.161c-2.65.068-5.29-.05-7.938-.226-4.849-.322-9.706-.52-14.571-.494-3.163.017-6.297.33-9.438.626-1.759.166-3.524.257-5.287.38q-3.396.236-6.79.468l-.044-2.84a4.683 4.683 0 0 1 .258-1.48c.614-1.965.776-2.105 2.75-2.103q10.42.008 20.838.02a13.051 13.051 0 0 1 3.193.265 9.802 9.802 0 0 0 2.451.095 29.356 29.356 0 0 1 6.163.759 9.571 9.571 0 0 1 2.665.937 47.56 47.56 0 0 1 5.75 3.593Z"/><path fill="#eaab86" d="M259.306 223.054a20.098 20.098 0 0 0 2.246-4.095 4.209 4.209 0 0 0 .057-3.452 3.207 3.207 0 0 1 1.124.077 30.634 30.634 0 0 1 4.911 2.385 18.822 18.822 0 0 1 5.446 6.4 37.387 37.387 0 0 1 2.89 6.336c.253.742.78.706 1.32.81a3.582 3.582 0 0 1-1.661.232c-1.326.069-1.49.187-1.579-1.334a6.172 6.172 0 0 0-4.705-5.909 27 27 0 0 0-5.741-.995c-1.437-.141-2.872-.303-4.308-.455Z"/><path fill="#e9aa85" d="m200.823 221.934 9.665.041a2.82 2.82 0 0 1-1.432.404c-.74.152-1.483.298-2.217.481a9.476 9.476 0 0 0-6.843 6.217 5.443 5.443 0 0 1-.68 1.745 13.454 13.454 0 0 1 .255-4.08 9.493 9.493 0 0 0 .075-2.422 2.514 2.514 0 0 1 1.177-2.386Z"/><path fill="#dc9d79" d="M290.905 199.415a13.771 13.771 0 0 1 .37-4.513 2.14 2.14 0 0 1 .28-.683.4.4 0 0 1 .482-.196.376.376 0 0 1 .282.42 27.964 27.964 0 0 1-.498 2.766 5.545 5.545 0 0 0-.15 2.246 39.506 39.506 0 0 0 1.607 7.529c.417 1.187.812 2.381 1.2 3.577a2.333 2.333 0 0 1 .1.73c-.002.083-.143.207-.242.237a.495.495 0 0 1-.35-.056 1.22 1.22 0 0 1-.476-.78c-.665-2.032-1.372-4.051-2.004-6.094a12.946 12.946 0 0 1-.6-5.183Z"/><path fill="#de9f7a" d="M296.202 210.446a7.82 7.82 0 0 0-.6-3.45.526.526 0 0 1 .178-.473.483.483 0 0 1 .665.136 1.811 1.811 0 0 1 .36.651c.336 1.837.911 3.663.229 5.551-.146.403-.112.869-.223 1.29a.558.558 0 0 1-.405.335.521.521 0 0 1-.507-.464.698.698 0 0 1-.023-.368 8.517 8.517 0 0 0 .326-3.208Z"/><path fill="#aeaeae" d="M164.702 220.803a17.171 17.171 0 0 1 4.29 1.873 1.216 1.216 0 0 0-1.11.883c-.533 1.21-1.095 2.407-1.594 3.631a28.237 28.237 0 0 0-1.717 5.58 13.516 13.516 0 0 0-.318 4.64 3.032 3.032 0 0 1-.016 1.129c-.542 2.386-.57 4.862-1.324 7.214-.344 1.075.028 2.276-.458 3.35-.035 3.535-.977 6.952-1.33 10.444a1.868 1.868 0 0 1-.553 1.111 1.73 1.73 0 0 1-2.346.506 1.514 1.514 0 0 0-.367-.083c-.685-.889-.736-2.016-1.136-3.011 1.462-5.026 3.051-10.014 4.069-15.162a143.54 143.54 0 0 0 2.224-15.523c.152-1.759.384-3.508.435-5.278.02-.688.021-1.657 1.25-1.304Z"/><path fill="#eaab86" d="M142.111 241.732a5.01 5.01 0 0 1 4.38 2.218 6.951 6.951 0 0 1 1.466 4.034 2.618 2.618 0 0 0 .018.755c.623 1.751-.214 3.484-.039 5.226-.56 1.597-.289 3.255-.37 4.888a7.076 7.076 0 0 0 .421 2.599 34.608 34.608 0 0 0 1.998 4.908 63.492 63.492 0 0 1 2.214 4.818 5.775 5.775 0 0 1 .217 4.94 6.461 6.461 0 0 1-3.726 3.266c-1.833.702-3.367-.054-4.791-.975a7.97 7.97 0 0 1-2.464-2.59 57.849 57.849 0 0 1-5.52-12.227 23.52 23.52 0 0 1-1.288-7.793 28.163 28.163 0 0 1 .71-6.553 17.754 17.754 0 0 1 3.03-6.037 4.714 4.714 0 0 1 3.744-1.477Z"/><path fill="#aeaeae" d="M154.026 216.648a76.008 76.008 0 0 1 8.782 3.391 1.7 1.7 0 0 1 .71 1.815 138.76 138.76 0 0 1-6.034 33.55c-.199.617-.205 1.43-1.135 1.529-.105-.6-.485-1.17-.124-1.822a1.218 1.218 0 0 0 .033-.738 66.15 66.15 0 0 0-.586-2.941 93.423 93.423 0 0 0-3.079-11.627 1.375 1.375 0 0 1-.029-.374c.27-1.788.395-3.59.527-5.392a98.615 98.615 0 0 0 .073-15.228c-.06-.753-.404-1.841.862-2.163Z"/><path fill="#eaab86" d="M139.6 286.745a12.124 12.124 0 0 1 .01-1.23 3.332 3.332 0 0 1 .24-.904 1.322 1.322 0 0 1 1.3-.925 1.537 1.537 0 0 1 1.368.876 5.227 5.227 0 0 1 .453 1.436 6.879 6.879 0 0 0 1 2.43c.237.444.562.84.793 1.284a7.817 7.817 0 0 0 3.655 3.16 1.428 1.428 0 0 0 1.736-.306 10.018 10.018 0 0 0 1.15-1.492 1.264 1.264 0 0 1 1.096-.636 1.506 1.506 0 0 1 1.178 1.103 6.274 6.274 0 0 1-.592 4.219 8.054 8.054 0 0 1-4.891 3.907 2.256 2.256 0 0 1-1.621-.128 9.196 9.196 0 0 1-3.658-3.213 14.355 14.355 0 0 1-2.882-6.691 12.673 12.673 0 0 1-.334-2.89Z"/><path fill="#aeaeae" d="M150.605 232.226a11.967 11.967 0 0 0-.69-2.74c-.67-3.5-2.26-6.697-3.274-10.083a7.377 7.377 0 0 0-.57-1.2 5.988 5.988 0 0 1-.85-2.684 2.192 2.192 0 0 0-.272-.703c.008-.398-.506-.531-.48-.94.15-.094.304-.274.45-.27a5.541 5.541 0 0 1 1.47.168 40.291 40.291 0 0 1 5.752 2.14c1.019.611 1.064 1.648 1.12 2.653a123.805 123.805 0 0 1-.214 16.59c-.056.713.23 1.721-.9 2.016a16.455 16.455 0 0 1-.774-2.664c-.25-.763-.511-1.522-.768-2.283Z"/><path fill="#999" d="M156.35 256.933a3.36 3.36 0 0 0 .36-.643 134.124 134.124 0 0 0 3.813-15.001c.311-1.731.73-3.443 1.016-5.178.226-1.362.212-2.771.51-4.114.4-1.795.16-3.645.634-5.428a8.594 8.594 0 0 0 .096-1.889 7.77 7.77 0 0 1 .276-2.622 2.557 2.557 0 0 0-.247-2.019 2.969 2.969 0 0 1 1.894.764c-.385.099-.729.248-.75.718-.018.442-.018.885-.03 1.328a10.657 10.657 0 0 1-.304 3.381 4.405 4.405 0 0 0-.075 1.32 6.159 6.159 0 0 1-.256 2.247 2.565 2.565 0 0 0-.116.934c-.006 1.772-.498 3.487-.644 5.23-.164 1.957-.685 3.838-.936 5.773a46.781 46.781 0 0 1-1.1 4.972 103.25 103.25 0 0 1-2.95 10.167c-.174.489-.284.975-.818 1.197a1.468 1.468 0 0 1-.05-.353q-.151-.193-.293-.395Z"/><path fill="#989999" d="M152.147 237.173a1.136 1.136 0 0 0 .363-1.023c-.11-2.767.546-5.49.413-8.27-.13-2.702-.05-5.416-.021-8.124a9.682 9.682 0 0 0-.76-3.842 3.354 3.354 0 0 1 1.884.734 1.135 1.135 0 0 0-.361 1.027c.097 1.882-.273 3.791.333 5.643-.067 2.198.306 4.41-.25 6.595a4.821 4.821 0 0 0-.076 1.508 58.104 58.104 0 0 1-.41 6.967 1.165 1.165 0 0 1-.698 1.043l-.068-.73c-.201-.213-.121-.537-.302-.758Z"/><path fill="#aeaeae" d="M152.194 237.943a.772.772 0 0 1 .302.758.716.716 0 0 1-.302-.758ZM156.38 257.322l.294.395-.294-.395Z"/><path fill="#fdfdfd" d="M359.31 216.246a.352.352 0 0 1 .334.113.856.856 0 0 1 .377.284 81.692 81.692 0 0 1 9.854 9.42 8.865 8.865 0 0 1 2.07 3.99c.202 1.023.126 1.209-.82 1.58-.465.181-.95.31-1.405.456a1.584 1.584 0 0 1-.427-1.255 15.474 15.474 0 0 0-.84-3.49 6.592 6.592 0 0 0-4.194-4.32 28.081 28.081 0 0 0-4.206-1.104 2.137 2.137 0 0 1-.424-1.018c-.095-1.553-.211-3.104-.32-4.656Z"/><path fill="#eac0a7" d="M199.223 240.509a10.977 10.977 0 0 1 .462-4.096c.522-.386.806-.023 1.06.356a10.15 10.15 0 0 1 .589 1.186c2.37 4.805 3.642 4.331 6.92 3.22a1.187 1.187 0 0 1 .744.012c.395 1.585-1.098 2.166-1.773 3.14-.684.986-1.67 1.773-2.133 2.555 1.56-1.864 3.294-4.007 5.22-5.982a4.671 4.671 0 0 1 1.682-1.189c2.44-1.56 4.433-.61 6.261 1.134a20.562 20.562 0 0 0 15.349 5.695c4.903-.122 9.843.463 14.668-1.028 1.942-.6 3.752-1.482 5.638-2.194.525-.199 1.145-.555 1.58-.032.522.624-.018 1.178-.415 1.657a7.524 7.524 0 0 0-1.11 1.75c-1.637 2.291-4.043 3.758-6.14 5.54-1.126.954-1.92 2.408-3.53 2.766-8.558 3.787-20.098 4.037-27.908 2.063a48.732 48.732 0 0 0 25.701-1.131c.444.558.444.558-.25 1.509 6.971-5.869 13.57-11.67 20.332-17.63-1.448.868-1.98 2.545-3.643 2.76-.87-1.769-2.704-2.2-4.236-3.05a14.994 14.994 0 0 1-1.526-.892c-.281-.182-.567-.357-.844-.545-.696-.605-1.476-1.103-2.18-1.697-.2-.152-.403-.301-.61-.443-.557-.379-1.053-.84-1.634-1.185a7.002 7.002 0 0 0-1.687-1.006 5.137 5.137 0 0 1-.47-.222c-.563-.395-1.43-.515-1.36-1.488.297-.604.9-.646 1.444-.745 3.959-.722 7.232-2.787 10.315-5.233a6.25 6.25 0 0 1 5.202-1.083l.686.06c4.021.562 5.515 1.978 6.33 5.902.208 1.001.054 1.728-1.006 2.062-.485.289-.986.554-1.45.874a1.894 1.894 0 0 0-.787 1.035.708.708 0 0 0 .29.824.58.58 0 0 0 .7-.024c.415-.261.59-.849 1.184-.871 1.613-.498 1.635.666 1.696 1.683a35.662 35.662 0 0 1-2.614 15.87 49.174 49.174 0 0 1-2.813 5.75 12.262 12.262 0 0 1-2.463 2.86 6.207 6.207 0 0 1-3.384 1.604 52.846 52.846 0 0 1-6.415.689c-7.534.26-15.068.088-22.6-.057a118.137 118.137 0 0 1-19.797-2.114 22.825 22.825 0 0 1-3.816-1.113 8.492 8.492 0 0 1-4.793-4.853 5.29 5.29 0 0 1-.641-2.36c-.059-1.372-.792-2.852.76-3.948.496-.351-.11-.14-.16-.173-.74-.475-1.095-2.234-.532-2.819.47-.489 1.099-.32 1.674-.32-1.007-.207-2.218-.389-1.854-1.791.421-1.622 1.724-.08 2.416-.51-2.186-.273-2.53-.659-2.329-2.732Z"/><path fill="#e1b499" d="M255.898 226.51a22.695 22.695 0 0 1-4.154 2.868 16.728 16.728 0 0 1-7.016 2.496.923.923 0 0 0-.617.385 1.053 1.053 0 0 1-.578.238c-4.244-.365-8.396-.214-12.4 1.57a28.4 28.4 0 0 1-6.664 2.055c-1.874.167-3.685.713-5.545.95a5.024 5.024 0 0 0-1.878.61c.764.638 1.682.457 2.434.752 1.697.638 3.323 1.432 4.972 2.18a20.447 20.447 0 0 0 7.158 1.33 29.171 29.171 0 0 1 4.273.563c1.977.448 3.98.123 5.966.213 1.785.012 3.57 0 5.352.006a6.45 6.45 0 0 0 2.174-.188 4.704 4.704 0 0 1 .912-.147c1.909-.063 3.818-.105 5.727-.018a4.607 4.607 0 0 1 1.452.19.908.908 0 0 1 .427.357c-.8 1.944-2.466 2.92-4.238 3.777a.313.313 0 0 1-.12-.473 10.706 10.706 0 0 1 1.633-2.08c.189-.173.315-.413.119-.656-.138-.17-.339-.11-.517-.032-.985.426-2.003.789-2.947 1.291a26.446 26.446 0 0 1-6.123 1.905 17.969 17.969 0 0 1-4.696.416 408.413 408.413 0 0 0-9.306-.005 17.786 17.786 0 0 1-6.966-1.533c-.176-.071-.333-.191-.51-.251a14.352 14.352 0 0 1-6.427-4.198 2.15 2.15 0 0 0-.44-.359 12.76 12.76 0 0 0-2.227-1.422c-.895-.353-1.59.614-2.47.694a6.764 6.764 0 0 0-.916.208 3.028 3.028 0 0 1 1.224-2.247c2.694-2.5 4.966-5.395 6.82-7.258-2.08 2.591-5.337 5.507-8.147 8.844-.638.757-1.16 1.882-2.465 1.825-1.1.223-2.115.703-3.238.91a3.14 3.14 0 0 1-3.305-1.218 13.562 13.562 0 0 1-1.735-2.909c-.205-.457-.374-.932-.58-1.389-.117-.257-.381-.302-.63-.347a3.054 3.054 0 0 1 .057-.746c.527-1.578.091-1.489 2.014-1.6 1.448-.083 2.893-.22 4.339-.345a2.123 2.123 0 0 0 .72-.178.578.578 0 0 0 .356-.606.628.628 0 0 0-.438-.56 5.093 5.093 0 0 0-1.31-.095c-1.26.064-2.518.189-3.778.246-.775.036-.969-.189-.79-.861a14.17 14.17 0 0 1 1.44-3.69 7.266 7.266 0 0 1 4.188-3.343 24.693 24.693 0 0 1 5.567-1.06 88.436 88.436 0 0 1 13.429-.06c2.88.364 5.792.08 8.676.48q6.386.883 12.777 1.74c2.15.288 4.297.153 6.444.228.868.03 1.793-.147 2.521.547Z"/><path fill="#eac0a7" d="M357.43 258.546a22.137 22.137 0 0 1-4.913 1.351c-3.222.65-6.454 1.282-9.708 1.735a106.1 106.1 0 0 1-21.76 1.13c-2.205-.147-4.427-.056-6.642-.056a14.968 14.968 0 0 1-4.325-.443 9.712 9.712 0 0 1-3.356-1.703 18.139 18.139 0 0 1-5.225-6.889 40.07 40.07 0 0 1-1.917-5.552 66.283 66.283 0 0 1-2.088-11.175 14.28 14.28 0 0 1-.015-2.084c.02-.487.26-.658.768-.579.999.157 1.992.346 2.99.509a2.378 2.378 0 0 1 1.913 1.047.68.68 0 0 0 1.007.11.896.896 0 0 0 .23-1.037 2.122 2.122 0 0 0-1.491-1.348c-.787-.23-1.596-.389-2.4-.55-.62-.126-1.25-.194-1.872-.312-.95-.181-1.007-.241-.884-1.254.1-.815.237-1.628.413-2.43a4.857 4.857 0 0 1 2.918-3.51 11.938 11.938 0 0 1 2.33-.798 35.75 35.75 0 0 1 5.232-.876c.363-.207.517.003.622.31-.352 1.77-1.457 3.205-2.154 4.822-.276.639-.567 1.272-.793 1.93-.16.463-.473.981.008 1.405.453.4.976.133 1.429-.061a43.173 43.173 0 0 1 6.404-2.35c1.558-.394 3.128-1.078 4.799-.446.332 1.187-.627 1.659-1.274 2.304-1.154.528-2.3 1.078-3.486 1.535-1.114.33-1.909 1.343-3.12 1.468a.965.965 0 0 1-.487-.2c-.228-.612.338-.958.48-1.41-1.045 1.294-1.928 2.747-3.025 4.038-.517-.067-.779.31-1.073.632a5.45 5.45 0 0 1-.532.506c-.61.45-1.193.937-1.816 1.365-1.128.775-.016.877.342 1.21.073 1.41-.98 2.323-1.527 3.46-.07.147-.077.143.445.344.938.8 1.137 1.979 1.572 3.036-.096.627.023.748 1.014 1.017a18.774 18.774 0 0 0 10.695 7.333c3.578.927 7.218.733 10.883.59 5.413-.214 10.497-1.929 15.716-3.02.672.243.628.72.338 1.207a16.145 16.145 0 0 1-.975 1.528c.826-1.127 1.749-2.686 2.808-4.15.515-.712.993-1.483 2.002-1.573a4.75 4.75 0 0 1 3.033 1.156c.29.631-.189 1.013-.468 1.435.573-.354.666-1.338 1.605-1.272a19.612 19.612 0 0 1 4.93 4.879c.367.497.847.987.4 1.686Z"/><path fill="#f0f0f0" d="M361.184 223.845a10.491 10.491 0 0 1 3.24.987 4.204 4.204 0 0 1 2.031 1.915 11.845 11.845 0 0 1 1.311 5.279.602.602 0 0 1-.52.666c-.557.11-1.117.198-1.675.301a6.684 6.684 0 0 0-1.101.234.76.76 0 0 0-.583.856.78.78 0 0 0 .826.615c.376-.026.747-.107 1.123-.149 2.099-.235 2.106-.233 1.97 1.78-.194 2.834-.175 5.679-.523 8.506a28.021 28.021 0 0 1-1.637 7.172 11.869 11.869 0 0 1-2.034 3.395 5.763 5.763 0 0 1-2.754 1.905c-.977.057-.922-.756-.924-1.29-.012-4.32-.835-8.585-.828-12.898a1.767 1.767 0 0 1 .534-1.734c.733-.63-.21-.738-.28-1.11-.373-1.291-.11-2.62-.26-3.922-.089-1.167 1.252-1.45 1.474-2.376-.404.436-.824 1.125-1.296-.005-.269-2.591-.141-5.2-.432-7.79.349-1.207.071-3.048 2.338-2.337Z"/><path fill="#aeaeae" d="M361.184 223.845c-.187.019-.374.039-.562.057-.806.08-.846.077-.92.844a3.17 3.17 0 0 1-.43 1.43c-1.055.831-2.317.646-3.48.549a127.724 127.724 0 0 0-17.827-.022c-4.484.25-8.992.082-13.49.04-3.795-.035-7.562.649-11.365.393a7.596 7.596 0 0 1-2.438-.3c-1.138-.466-1.99-1.149-1.575-2.582l-.461-.422a17.15 17.15 0 0 1 4.838-.66c4.604-.21 9.184-.71 13.777-1.046a82.964 82.964 0 0 1 9.087-.017c1.45.053 2.899.136 4.35.19 3.971.15 7.935.45 11.913.54 2.64.058 5.274.439 7.91.697a2.31 2.31 0 0 1 .673.309Z"/><path fill="#e0b399" d="M263.157 258.147a7.512 7.512 0 0 1 .797-2.5 47.094 47.094 0 0 0 2.527-6.3 51.184 51.184 0 0 0 1.283-5.68 57.717 57.717 0 0 0 .286-7.722c.027-.823-.034-.824-1.162-1.102a11.52 11.52 0 0 1 4.724-1.144c.51-.045.725.148.704.633a32.18 32.18 0 0 1-.222 3.213 45.76 45.76 0 0 1-5.932 16.274 29.573 29.573 0 0 1-2.454 3.826 4.658 4.658 0 0 1-.55.502Z"/><path fill="#acadad" d="M255.898 226.51c-1.576.007-3.153-.014-4.728.027a38.472 38.472 0 0 1-7.482-.692c-1.295-.22-2.615-.29-3.918-.47-1.862-.254-3.733-.474-5.573-.841a33.644 33.644 0 0 0-6.92-.681c-.61.006-1.276.181-1.797-.337 3.086.03 6.179-.055 9.257.124 3.652.211 7.31.148 10.959.353 3.208.18 6.425.163 9.625.514 1.125.123 2.267.09 3.399.159a4.941 4.941 0 0 1 2.22.315 4.22 4.22 0 0 1-.745.06 3.514 3.514 0 0 0-2.807.735c-.429.375-1.114.243-1.49.734Z"/><path fill="#e1b499" d="M359.29 242.46a1.189 1.189 0 0 1 .376 1.02c.133 2.2.15 4.416.44 6.596a55.946 55.946 0 0 1 .362 6.415.95.95 0 0 0 .39.817 4.749 4.749 0 0 1-2.286.861 1.895 1.895 0 0 1-1.387-1.925c.233-3.575-.727-7.121-.268-10.702a3.912 3.912 0 0 1 2.373-3.082Z"/><path fill="#e0b398" d="M266.95 233.005a1.522 1.522 0 0 0 .535-1.972c-.368-.86-.632-1.765-.958-2.644a7.194 7.194 0 0 0-2.093-2.617 1.806 1.806 0 0 0-1.224-.382c-.542-.035-1.148.177-1.583-.35a26.254 26.254 0 0 1 6.544.754 8.434 8.434 0 0 1 .894.299c2.553.857 3.385 2.495 3.44 5.037.012.568-.13.738-.762.874-1.595.344-3.195.669-4.792 1Z"/><path fill="#d9a98e" d="M199.223 240.509c.204 1.78.546 2.139 2.274 2.347.25.03.504.01.756.017 1.126.036 1.395.12 1.219.39-.297.456-.764.375-1.188.371a6.484 6.484 0 0 1-2.25-.17c-.342-.125-.62-.043-.705.358-.07.33-.03.696.279.83a4.233 4.233 0 0 0 1.807.5 3.461 3.461 0 0 1 .752.06.388.388 0 0 1 .344.382.542.542 0 0 1-.442.533 1.647 1.647 0 0 1-.547-.04c-.309-.048-.614-.14-.924-.16-1.096-.065-1.29.128-1.33 1.273-.01.31-.002.621-.002.923.718.356 1.255-.116 1.838-.192a.49.49 0 0 1 .568.38.383.383 0 0 1-.23.457c-.458.205-.932.372-1.39.575a1.217 1.217 0 0 0-.774 1.19c-.006.756-.02 1.512-.03 2.269a2.627 2.627 0 0 1-.348-1.625c-.07-3.197-.103-6.393.06-9.588a1.978 1.978 0 0 1 .263-1.08Z"/><path fill="#d7a88e" d="m357.398 256.543 1.174 1.626a1.493 1.493 0 0 1-1.142.377 7.683 7.683 0 0 0-2.085-3.058 20.836 20.836 0 0 0-3.002-2.852c-.17-.122-.204-.436-.3-.66l.218-.18c2.165.085 4.781 2.504 5.137 4.747Z"/><path fill="#cce6e5" d="M144.47 213.877c.783.262.786.27.479.939l-1.52-.046a1.808 1.808 0 0 1 1.04-.893Z"/><path fill="#aeaeae" d="M360.02 216.643c-.213.022-.353-.054-.376-.284.236-.052.34.071.377.284Z"/><path fill="#302a35" d="M247.845 479.334a7.521 7.521 0 0 1-2.284-.421c-1.608-.285-3.208-.617-4.81-.931a34.921 34.921 0 0 1-5.895-2.026c-3.232-1.258-6.404-2.669-9.61-3.995-1.515-.627-3.051-1.2-4.571-1.812a6.219 6.219 0 0 1-.987-.532.349.349 0 0 1-.05-.333.48.48 0 0 1 .308-.177.668.668 0 0 1 .37.025c2.977 1.22 5.945 2.461 8.926 3.67 2.337.946 4.678 1.889 7.041 2.768a25.003 25.003 0 0 0 4.649 1.582 54.298 54.298 0 0 0 5.747 1.032 16.283 16.283 0 0 1 2.583.508c.087.019.157.177.207.284.065.139-.004.247-.17.261-.376.033-.753.052-1.454.097Z"/><path fill="#fff" d="M317.914 321.967a34.833 34.833 0 0 1-6.266 6.05 10.93 10.93 0 0 1-4.095 1.917 26.605 26.605 0 0 1-4.483.764c-2.895.286-5.783.64-8.674.966-1.256.143-2.512.3-3.77.433a91.91 91.91 0 0 1-16.308.427 75.237 75.237 0 0 1-6.781-.8c-1.882-.31-3.782-.33-5.668-.548-2.386-.277-4.8-.299-7.193-.536a29.254 29.254 0 0 1-8.184-1.486 14.529 14.529 0 0 1-5.444-3.35c-.42-2.169.085-2.902 2.09-2.904a31.276 31.276 0 0 1 4.326.08c3.286.178 6.58.268 9.857.56 2.72.244 5.436.261 8.158.29a56.159 56.159 0 0 0 10.19-.982 41.423 41.423 0 0 1 11.907-.274c4.457.512 8.913 1.21 13.432.86a38.71 38.71 0 0 0 10.61-1.88c1.957-.723 3.943-1.364 5.916-2.042 1.182.655.734 1.562.38 2.455Z"/><path fill="#eeb99b" d="m247.464 322.98-3.594.043c-.38.004-.76-.015-1.137.007-.783.045-1.016.22-1.22.94-.172.606-.311 1.221-.465 1.833-1.218-.447-1.977-1.518-3.007-2.223a.585.585 0 0 1-.182-.494c.058-.284.335-.333.595-.336 2.016-.018 4.033-.038 6.05-.049.693-.004 1.386.019 2.08.025a1.213 1.213 0 0 1 .88.254Z"/><path fill="#edba9e" d="M317.914 321.967c-.113-.82.225-1.71-.381-2.454l2.61-.971c-.109 1.08-.644 1.883-2.23 3.425Z"/><path fill="#d8a98e" d="M242.606 256.185c-1.451.413-2.89.876-4.355 1.23a29.814 29.814 0 0 1-8.01 1.06 84.479 84.479 0 0 0-5.876 0 32.522 32.522 0 0 1-7.646-.985c-1.23-.25-2.447-.56-3.664-.864a2.05 2.05 0 0 1-.638-.35c-.029-.02.036-.286.099-.306a1.347 1.347 0 0 1 .714-.115 48.376 48.376 0 0 0 5.71 1.224 27.606 27.606 0 0 0 5.227.625c1.77-.032 3.539-.007 5.308-.004a33.735 33.735 0 0 0 13.406-2.691c.342-.146.64-.395.974-.565a.472.472 0 0 1 .644.2 1.834 1.834 0 0 1-1.893 1.54Z"/><path fill="#fbfaf8" d="m242.606 256.185 1.893-1.542a8.736 8.736 0 0 0 .881-.678c2.134-2.107 4.524-3.912 6.822-5.827a6.336 6.336 0 0 0 1.453-1.442 36.693 36.693 0 0 0 4.138-3.745c.108-.423.343-.654.81-.537a10.943 10.943 0 0 0 1.834-1.612c.427-.373.82-.784 1.253-1.15.433-.365.943-.443.96-.187.026.366-.233.572-.46.778-1.859 1.699-3.71 3.406-5.595 5.077-1.46 1.293-2.96 2.538-4.445 3.802-1.484 1.264-2.98 2.515-4.455 3.79q-2.07 1.79-4.104 3.624a9 9 0 0 1-2.165 1.488c-.113.054-.322-.094-.486-.148a1.214 1.214 0 0 1 .126-.342c.425-.548 1.243-.65 1.54-1.35Z"/><path fill="#fbf9f7" d="M209.174 241.366a10.986 10.986 0 0 0 2.276-2.245c.796-.982 1.676-1.877 2.537-2.793q2.973-3.164 5.952-6.321a10.234 10.234 0 0 1 .977-.88c.053-.042.249.008.306.077a.483.483 0 0 1 .07.342.745.745 0 0 1-.153.338 8.018 8.018 0 0 1-.498.567c-2.2 2.335-4.394 4.678-6.61 6.999a20.206 20.206 0 0 0-2.288 2.752 26.79 26.79 0 0 0-3.408 3.511c-1.161 1.405-2.379 2.763-3.576 4.138a2.015 2.015 0 0 1-.422.373.388.388 0 0 1-.33.045.362.362 0 0 1-.088-.504 3.222 3.222 0 0 1 .42-.618q2.316-2.733 4.64-5.46a2.263 2.263 0 0 0 .195-.321Z"/><path fill="#fbf8f5" d="M249.909 256.072a.529.529 0 0 1-.153-.084.185.185 0 0 1-.049-.15.922.922 0 0 1 .173-.328q5.034-5.022 10.08-10.034a.616.616 0 0 1 .32-.184.417.417 0 0 1 .326.117.372.372 0 0 1 .054.335 3.007 3.007 0 0 1-.448.604 88.9 88.9 0 0 1-1.597 1.621c-1.838 1.827-3.664 3.668-5.527 5.47-.906.875-1.884 1.676-2.836 2.503a1.083 1.083 0 0 1-.343.13Z"/><path fill="#433837" d="m258.603 242.414-.81.537.003-.18a2.236 2.236 0 0 1-.322-.363 5.238 5.238 0 0 1-.24-.429c-.906-1.056-2.537-1.055-3.323-2.283-.022-.327.168-.478.455-.55 1.17.576 2.35 1.135 3.509 1.731a1.209 1.209 0 0 1 .728 1.537Z"/><path fill="#4b3938" d="M249.843 236.008a14.963 14.963 0 0 1 2.438 1.843.63.63 0 0 1-.379.319 1.436 1.436 0 0 1-.512-.012 3.28 3.28 0 0 1-.704-.313 4.094 4.094 0 0 1-1.374-1.128 1.025 1.025 0 0 1-.062-.511l.118-.235a.402.402 0 0 1 .475.037Z"/><path fill="#603432" d="m243.681 232.298.43-.039 1.578 1.09a.728.728 0 0 1-.495.54 2.183 2.183 0 0 1-1.932-1.041.506.506 0 0 1 .42-.55Z"/><path fill="#4b3735" d="M247.614 234.438a5.969 5.969 0 0 1 1.834 1.26.199.199 0 0 1 .08.225q-.044.11-.086.11a.631.631 0 0 1-.398.217 1.667 1.667 0 0 1-.86-.357q-.3-.192-.595-.394a1.015 1.015 0 0 1-.533-.778c.11-.245.254-.423.558-.283Z"/><path fill="#5c4f4d" d="m247.614 234.438-.451.417c-.849.286-1.327-.136-1.65-.86.014-.313.219-.454.486-.538a3.158 3.158 0 0 1 1.615.98Z"/><path fill="#372828" d="m254.366 239.147-.43.369c-.834.34-1.225-.179-1.563-.804.018-.315.105-.552.5-.438Z"/><path fill="#464241" d="m252.873 238.274-.383.396c-.604.208-.812-.155-.933-.646l.723-.173a.731.731 0 0 1 .593.423Z"/><path fill="#3d2322" d="m246 233.457-.451.387a.275.275 0 0 1-.338-.164l.478-.332a.435.435 0 0 1 .31.109Z"/><path fill="#4d413f" d="M249.442 236.032q0-.167.006-.334l.395.31-.401.024Z"/><path fill="#1e1e1e" d="m243.681 232.298-.248.39c-.894.528-1.843-.22-2.864.162.776 1.613 1.487 3.26 1.093 5.118a6.873 6.873 0 0 1-2.88 4.464 3.328 3.328 0 0 1-.77.417 3.637 3.637 0 0 1-2.347.065c-2.694-.277-5.393-.52-8.081-.846a9.003 9.003 0 0 1-3.573-1.18c-.12-.375.095-.785-.128-1.15a3.044 3.044 0 0 1-.227-2.963 2.626 2.626 0 0 1 .715-1.078 49.805 49.805 0 0 0 7.528-2.448 22.104 22.104 0 0 1 9.615-1.514 4.472 4.472 0 0 1 2.167.563Z"/><path fill="#faf7f5" d="M205.636 241.26c-.063-.15-.166-.273-.142-.361a1.274 1.274 0 0 1 .26-.489q1.619-1.856 3.257-3.695 2.842-3.177 5.702-6.338a4.86 4.86 0 0 1 .704-.624.401.401 0 0 1 .346-.007.307.307 0 0 1 .088.485c-.494.654-.98 1.32-1.534 1.922-2.096 2.279-4.224 4.53-6.325 6.803-.642.695-1.229 1.44-1.864 2.141-.102.112-.327.112-.492.162Z"/><path fill="#50423d" d="m257.793 242.087.004.438c-.452.347-1.059-.044-1.508.315a53.704 53.704 0 0 0-6.117.061c-.206-.504-1.183.167-1.126-.74a12.724 12.724 0 0 1 8.747-.074Z"/><path fill="#583431" d="M248.977 242.423c.418.11.938-.034 1.196.478l-.56.003a6.47 6.47 0 0 1-2.091.154h-5.637c-.984 0-1.968.013-2.951-.006-.399-.008-.922.129-.928-.558a.488.488 0 0 1 .421-.315c3.043-.494 6.107-.22 9.162-.229a1.922 1.922 0 0 1 1.388.473Z"/><path fill="#4b3a39" d="M224.371 235.697c-.052.387.067.827-.343 1.103a13.221 13.221 0 0 1-4.223.666 1.841 1.841 0 0 1-1.235-.733 37.374 37.374 0 0 1 5.801-1.036Z"/><path fill="#4b3936" d="M224.373 239.85c.337.2.419.433.084.709-.143.117-.297.22-.446.33l-4.713-2.087a.845.845 0 0 1 .45-.644c1.824-.21 3.028 1.278 4.625 1.691Z"/><path fill="#3f3633" d="m219.783 238.352-.485.45c-.928-.17-1.858-.33-2.782-.518a.493.493 0 0 1-.408-.547.712.712 0 0 1 .298-.452 3.65 3.65 0 0 1 2.164-.552c.42.097.901-.014 1.237.368a.755.755 0 0 1-.567.408 4.29 4.29 0 0 1-.911.07 2.243 2.243 0 0 0-.392.096c.03.118.112.01.165.035a1.926 1.926 0 0 1 .43.08c.301.081.606.138.9.242a.77.77 0 0 1 .351.32Z"/><path fill="#212624" d="M238.006 242.494a1.119 1.119 0 0 0 .992.412l2.81.038c.145.056.194.115.149.177a.186.186 0 0 1-.14.095 32.412 32.412 0 0 1-4.896.014 2.027 2.027 0 0 1-1.256-.316c.788-.098 1.626.085 2.34-.42Z"/><path fill="#2c433d" d="M241.817 243.216a.89.89 0 0 0-.008-.272l5.737-.074q.165.085.118.183c-.033.067-.067.101-.102.101a42.408 42.408 0 0 1-5.745.062Z"/><path fill="#50423d" d="M247.562 243.154a1.168 1.168 0 0 1-.016-.284l2.066.035a3.18 3.18 0 0 1-2.05.249Z"/><path fill="#232e2b" d="M256.289 242.84c.422-.493.992-.276 1.508-.315a5.766 5.766 0 0 0-.001.247 2.5 2.5 0 0 1-1.507.068Z"/><path fill="#e1b499" d="M309.097 224.254c.661 1.912 1.08 2.251 2.95 2.267 2.21.018 4.42.003 6.63.001a2.576 2.576 0 0 0 .754-.028 16.6 16.6 0 0 1 5.074-.334c4.61-.026 9.22-.01 13.829-.019a8.045 8.045 0 0 0 2.623-.253 4.872 4.872 0 0 1 1.5-.105q4.452-.013 8.904-.005a6.773 6.773 0 0 1 2.058.228 5.414 5.414 0 0 0 1.498.135c1.452.024 2.904.025 4.356.035a43.96 43.96 0 0 1 .396 8.336c-.304 1.027-.64 2.017-2.027 1.874-1.08-1.524-.612-3.28-.752-5.028-1.514 2.82-3.147 5.493-5.758 7.374-2.619 1.886-3.428 1.868-6.067-.04a12.102 12.102 0 0 1-1.796-1.378c-.727-1.764-2.528-2.183-3.93-3.076a15.797 15.797 0 0 0-4.695-1.954 5.255 5.255 0 0 1-.54-.134 7.238 7.238 0 0 0-1.395-.26c-4.029-.751-8.01-1.842-12.165-1.64-.863-.37-.568-.986-.288-1.629-.4.433-.695.915-1.316.936a21.832 21.832 0 0 0-5.16.915 66.14 66.14 0 0 0-6.843 2.658.863.863 0 0 1-1.033-.142c-.39-.359-.703-.765-.467-1.321a43.555 43.555 0 0 1 3.66-7.413Z"/><path fill="#e2b59a" d="M344.145 253.927c-1.033.26-2.086.459-3.095.79a57.171 57.171 0 0 1-8.046 1.907c-1.383.243-2.785.084-4.114.37a27.363 27.363 0 0 1-7.34.274 19.384 19.384 0 0 1-9.478-2.756c-1.233-.776-2.34-1.691-3.492-2.548a7.608 7.608 0 0 1-2.528-3.43q-.126-.365.254-.43a3.262 3.262 0 0 1 1.963 1.406c3.888 4.73 9.09 6.485 14.979 6.51a60.922 60.922 0 0 0 19.234-3.072c.785-.256 1.634-.87 2.472-.05.124.651-.128 1.009-.809 1.029Z"/><path fill="#efefef" d="M318.94 229.557c.423-.544.84-1.092 1.271-1.63.222-.277.457-.755.86-.438.386.304-.042.674-.19.988-.233.499-.78.843-.73 1.484-.017.088-.035.175-.051.263a2.201 2.201 0 0 1-.278.457c-1.274 1.572-2.52 3.166-3.797 4.736a2.919 2.919 0 0 1-1.42 1.198c-1.81.731-2.328 2.61-3.483 3.926a1.003 1.003 0 0 1-.5.194c-.46.008-.92-.04-1.382-.028a6.218 6.218 0 0 1-2.519-.26c-.724-.657-.061-1.122.264-1.585a23.561 23.561 0 0 0 1.69-2.446c.527.07.776-.344 1.095-.638a8.55 8.55 0 0 1 1.405-.94c.137-.085.279-.163.422-.238.221-.1.438-.21.653-.326a4.226 4.226 0 0 1 1.798-.763 1.013 1.013 0 0 1 .443.154.859.859 0 0 1 .198.586c-.038.211-.015.274.134.02a9.829 9.829 0 0 1 2.614-2.791Z"/><path fill="#fcfaf8" d="M344.145 253.927a1.5 1.5 0 0 0 .69-.805c.922-2.601 2.952-4.444 4.515-6.607.194-.288.402-.565.62-.834.74-1.064 1.66-1.979 2.452-2.999a8.358 8.358 0 0 1 .634-.837c1.628-1.737 2.745-3.928 4.738-5.34a13.288 13.288 0 0 0 1.875-1.993c.447-.505.887-1.017 1.345-1.512.184-.199.421-.279.63-.024a.366.366 0 0 1-.017.497c-.77.871-1.547 1.735-2.322 2.601.062 1.057-.858 1.582-1.28 2.377a5.043 5.043 0 0 1-.329.385c-.054.064-.113.124-.167.188-.668.86-1.383 1.681-2.044 2.546a9.417 9.417 0 0 1-.97 1.19c-.908 1.021-1.742 2.103-2.56 3.196a5.242 5.242 0 0 1-.487.604c-1.053 1.124-1.859 2.444-2.85 3.617a1.724 1.724 0 0 1-.8.614 7.797 7.797 0 0 0-1.609 1.843c-.875 1.31-1.796 2.589-2.713 3.87a6.036 6.036 0 0 1-.755.846c-.124.119-.373.265-.48.215-.35-.164-.09-.394.016-.589a20.224 20.224 0 0 0 1.868-3.05Z"/><path fill="#f7f6f4" d="M309.014 236.41a11.764 11.764 0 0 1-2.565 3.739l.005.256a3.734 3.734 0 0 1-.539 1.416c-.545.713-.92 1.535-1.434 2.27a1.74 1.74 0 0 1-.708.652c-.229.29-.45.585-.69.865-.122.142-.297.27-.488.167-.27-.146-.242-.39-.112-.623q1.176-2.102 2.36-4.2a1.156 1.156 0 0 1 .38-1.859 7.709 7.709 0 0 0 1.314-1.01c.163-.18.35-.337.51-.52a1.304 1.304 0 0 1 .562-.414c1.06-1.472 2.109-2.95 3.185-4.41a4.347 4.347 0 0 1 .817-.758c.054-.043.252.02.324.093a.385.385 0 0 1 .085.33 2.788 2.788 0 0 1-.294.48q-.546.872-1.09 1.745c.1.765-.664.929-.979 1.405a.926.926 0 0 1-.643.376Z"/><path fill="#fbf9f7" d="M359.29 242.46c-.56.947-1.521 1.61-1.909 2.68a24.705 24.705 0 0 1-5.335 6.834l-.003.001c-.497.644-1 1.284-1.486 1.935-.222.298-.482.827-.82.59-.545-.382.08-.74.268-1.08.274-.493.591-.962.89-1.44a1.882 1.882 0 0 1 .287-.975c.953-1.44 2.04-2.776 3.121-4.119.193-.288.4-.565.617-.834.807-1.007 1.53-2.08 2.342-3.082a5.4 5.4 0 0 1 .337-.373c.105-.127.218-.248.326-.371.535-.6.841-1.45 1.764-1.629.134-.132.272-.26.4-.398.133-.143.283-.296.477-.163a.479.479 0 0 1 .142.666c-.443.608-.941 1.175-1.418 1.758Z"/><path fill="#fbf7f4" d="m310.613 240.577.418.025.154.215c.119 1.286-.925 2.023-1.42 3.021-1.264 1.418-1.906 3.349-3.618 4.397a.999.999 0 0 0-.095.299c-.586.286-.696.992-1.193 1.355a.332.332 0 0 1-.48-.017.368.368 0 0 1-.07-.324c.321-.585.667-1.157 1.005-1.734l.018-.241a1.753 1.753 0 0 1 .113-.475 2.899 2.899 0 0 1 .237-.436c.777-1.198 1.631-2.341 2.445-3.513a13.229 13.229 0 0 1 1.788-2.23 1.796 1.796 0 0 1 .44-.288l.258-.054Z"/><path fill="#372e2d" d="m314.363 234.471.08-.713c-.064-.263-.364-.225-.504-.392a.332.332 0 0 1 .1-.4 11.95 11.95 0 0 1 3.398-1.486l-2.609 3.426c-.365.08-.546-.037-.465-.435Z"/><path fill="#4b4441" d="M306.95 237.955c-.33.826-1.141 1.114-1.778 1.6-.304.23-.253.391.04.688.305.31-.231.467-.368.709-.125-.013-.25-.019-.372-.04-.447-.082-1.122.347-1.283-.34-.127-.544.494-.81.88-1.093.754-.553 1.542-1.06 2.316-1.585a.382.382 0 0 1 .565.06Z"/><path fill="#dbad93" d="M351.352 251.274a.882.882 0 0 1-.457.705c-.765-.249-1.523-.52-2.297-.736a1.28 1.28 0 0 1-.78-.451.944.944 0 0 1 .452-.692c1.308-.345 2.454-.264 3.082 1.174Z"/><path fill="#e3b79c" d="M305.746 247.116a1.015 1.015 0 0 1-.083.323q-.169.192-.347.375h-.002c-.886-.836-1.013-2.054-1.54-3.07a.861.861 0 0 1 .395-.734c1.49.546 1.515 1.835 1.577 3.106Z"/><path fill="#4f3b39" d="m314.039 232.967.02.434q.18.172.076.26a.26.26 0 0 1-.173.067l-1.719.837a1.077 1.077 0 0 0-.471.294l-.087.097-.13-.004c-.385.19-.498-.02-.526-.356a10.755 10.755 0 0 1 3.01-1.63Z"/><path fill="#4e413f" d="m311.03 234.596.525.356a6.3 6.3 0 0 1-1.616 1.125.298.298 0 0 1-.483-.045c.187-.642.77-.952 1.181-1.404l.392-.032Z"/><path fill="#b2897f" d="M307.609 237.15a.46.46 0 0 1-.341.406q-.28.276-.473-.066c.207-.268.342-.707.814-.34Z"/><path fill="#70524e" d="m306.795 237.49.473.066c-.04.186-.103.353-.318.399l-.564-.06q.204-.203.41-.405Z"/><path fill="#e2b69c" d="m359.69 240.597-1.55 1.896c-.109.142-.268.238-.365.39l.001.004c-1.694-1.253-.862-2.737-.383-4.188l.002-.004a2.023 2.023 0 0 0 .355-.43 15.122 15.122 0 0 1 1.555-2.19c.382.229.374.61.376.982.005 1.18.006 2.36.008 3.54Z"/><path fill="#eac0a7" d="M352.046 251.974a12.075 12.075 0 0 1 2.007-2.741 29.941 29.941 0 0 1 3.328-4.093c.003 1.39 0 2.781.011 4.172a13.02 13.02 0 0 0 .255 2.621 15.137 15.137 0 0 1 .056 4.152c-.011.159-.2.306-.305.458-.746-1.657-2.183-2.715-3.444-3.916a2.523 2.523 0 0 0-1.908-.653Z"/><path fill="#efefef" d="M248.977 242.423c-3.001.045-6.002.1-9.003.126-.531.005-1.14.204-1.546-.37a7.006 7.006 0 0 0 2.275-2.741 6.003 6.003 0 0 0-.128-5.48c-.226-.512-.722-.88-.822-1.594a8.854 8.854 0 0 1 3.679.322 4.73 4.73 0 0 0 1.78.994l.337.164a4.383 4.383 0 0 0 1.614 1.011l.735.456q.203.148.408.293a1.176 1.176 0 0 0 .675.47.785.785 0 0 1 .445.355 4.728 4.728 0 0 0 1.504 1.154c.147.1.283.216.43.316a.155.155 0 0 0 .197.125 1.445 1.445 0 0 0 .933.646 3.13 3.13 0 0 0 1.446.846 16.744 16.744 0 0 0 3.046 1.69c.357.202.845.31.81.881-1.005-.03-2.014-.011-3.015-.1a19.45 19.45 0 0 0-5.8.436Z"/><path fill="#4d413f" d="M249.426 236.43a.533.533 0 0 1-.444-.357l.46-.04Z"/><path fill="#464241" d="M251.36 237.9a.469.469 0 0 1-.43-.317Z"/><path fill="#4d413f" d="M248.306 235.604a.427.427 0 0 1-.408-.293Z"/><path fill="#fafafa" d="M227.702 237.871c.016-.213.018-.465.055-.711a1.759 1.759 0 0 1 1.719-1.666 1.865 1.865 0 0 1 2.117 1.673 2.48 2.48 0 0 1-.762 2.39 1.72 1.72 0 0 1-1.887.452 1.79 1.79 0 0 1-1.196-1.54c-.023-.185-.03-.373-.046-.598Z"/><path fill="#e4e7e7" d="M218.27 237.965a.795.795 0 0 0-.313-.127c-.16-.028-.218-.074-.178-.136.045-.07.09-.107.137-.107l.027-.013c.267-.375.734-.092 1.046-.32l.817-.161c1.088-.194 2.175-.393 3.264-.577.355-.06.742-.172.958.276a2.975 2.975 0 0 0 .345 3.049.32.32 0 0 1-.432.225c-.633-.276-1.24-.61-1.876-.877a7.903 7.903 0 0 0-2.282-.845l-.139-.081-.16.011c-.36-.278-.853-.044-1.214-.317Z"/><path fill="#dde8e8" d="M236.405 239.43a1.055 1.055 0 0 1-1.191.909.786.786 0 0 1-.695-.919c.052-.644.533-1.14 1.035-1.068a1.156 1.156 0 0 1 .85 1.078Z"/><path fill="#4b3936" d="M218.27 237.965a1.532 1.532 0 0 1 1.214.317c-.44.033-.893.109-1.214-.317Z"/><path fill="#a49696" d="M218.989 237.262a1.102 1.102 0 0 1-1.046.32c.252-.425.64-.404 1.046-.32ZM217.916 237.595a.287.287 0 0 1 .04.243c-.192.074-.489.065-.497-.086-.01-.185.254-.228.457-.157Z"/><path fill="#eac0a7" d="M306.147 248.235a52.974 52.974 0 0 1 3.333-4.635 43.578 43.578 0 0 0 16.096 2.917 26.365 26.365 0 0 0 10.297-2.189c3.353-1.4 5.31-4.145 7.172-7.027l.257-.16c.807.076 1.3.734 1.966 1.07a3.083 3.083 0 0 1 .426.372c1.85 1.438 2.578 1.457 4.546.207a17.66 17.66 0 0 0 5.513-6.337c.352-.596.618-1.241.951-1.849a.667.667 0 0 1 .414-.31c.279-.043.251.23.26.396a12.304 12.304 0 0 1 .007 1.324 16.888 16.888 0 0 0 .41 4.49 2.903 2.903 0 0 1-.305.672q-1.819 2.26-3.672 4.491a5.028 5.028 0 0 1-.551.5c-2.149.555-4.389.803-6.114 1.726 1.661-.384 3.443-1.64 5.606-1.037l-2.546 3.104c-.354.005-.759-.045-.99.242-.072.09.361.253.495.456l-4.884 6.464c-.23-.308-.498-.263-.83-.151a78.28 78.28 0 0 1-7.803 2.21 15.265 15.265 0 0 1-3.706.622c-1.863.744-3.913.006-5.78.729-2.01-.072-4.035.284-6.03-.235a4.4 4.4 0 0 0-.934-.113 15.623 15.623 0 0 1-9.273-3.792 12.653 12.653 0 0 1-2.416-2.346 6.563 6.563 0 0 0-1.915-1.81Z"/><path fill="#1e1e1e" d="M314.486 236.497c1.439-1.422 2.52-3.137 3.824-4.669.449-.527.907-1.046 1.361-1.568a.872.872 0 0 0 .475-.298h.005a19.09 19.09 0 0 1 7.332.355c1.863.362 3.712.79 5.567 1.188a.363.363 0 0 1 .007.468 3.869 3.869 0 0 1-.635.46 1.811 1.811 0 0 0-.386 1.23 9.445 9.445 0 0 1-2.8 6.93c-.365.427.387.849.009 1.28a1.605 1.605 0 0 1-.523.27 46.501 46.501 0 0 1-11.05-.363c-1.693-.544-3.455-.125-5.17-.361a1.693 1.693 0 0 1-.593-.25.422.422 0 0 1-.137-.552 1.523 1.523 0 0 1 1.075-.486 8.404 8.404 0 0 1 2.417.124c.182.015.328.234.544.135a2.593 2.593 0 0 1-.493-.2 1.305 1.305 0 0 1-.288-.242 3.026 3.026 0 0 1-.255-.286 1.96 1.96 0 0 1-.207-.328c-.092-.175-.181-.352-.28-.526a3.96 3.96 0 0 1-.206-.369 2.804 2.804 0 0 1-.313-.845c-.006-.527.074-.999.72-1.097Z"/><path fill="#433635" d="M334.584 231.851a2.597 2.597 0 0 1 1.435.324 39.919 39.919 0 0 1 6.625 3.431c.576.35.98.792.658 1.535l-.005.012a4.793 4.793 0 0 1-2.156 1.754c-.212.107-.431.204-.646.306a5.421 5.421 0 0 1-.415.198 6.208 6.208 0 0 1-.63.273 1.649 1.649 0 0 1-.451.067.759.759 0 0 1-.716-.466.507.507 0 0 1 .163-.388 3.308 3.308 0 0 1 .543-.34 4.078 4.078 0 0 1 .373-.182c.185-.092.369-.187.55-.29.12-.079.243-.151.364-.227.185-.138.355-.29.525-.447.84-.66.795-1.22-.19-1.662-1.492-.672-2.819-1.66-4.365-2.24-.675-.254-1.503-.366-1.84-1.184a.605.605 0 0 1 .178-.474ZM332.986 231.933l.064-.428a1.346 1.346 0 0 1 1.224.278.917.917 0 0 1-.414.602.89.89 0 0 1-.732-.013.417.417 0 0 1-.142-.439Z"/><path fill="#1e1e1e" d="m333.807 232.181.467-.398a.368.368 0 0 1 .31.068l-.012.467a.57.57 0 0 1-.765-.137Z"/><path fill="#fcfdfd" d="M314.486 236.497a2.467 2.467 0 0 0-.39 1.37c.162.251.1.59.321.819l.018.039c.233.168.13.55.43.675l.01.012a.523.523 0 0 0 .35.373l.032.029c-.383 1.194-1.366.319-2.017.584-.38.001-.76-.004-1.14.006a1.393 1.393 0 0 0-.509.19l-.238.135-.268-.052-.054-.075a1.76 1.76 0 0 1 .294-1.243c.765-.981 1.491-1.993 2.263-2.97.308-.388.641-.288.898.108Z"/><path fill="#351e1e" d="M306.449 240.149a11.717 11.717 0 0 1 3.014.107.355.355 0 0 1-.116.539 3.27 3.27 0 0 1-2.816-.028.369.369 0 0 1-.08-.556Z"/><path fill="#7f8888" d="M314.363 234.471c.113.19.202.405.465.435-.048.113-.067.262-.151.33a2.474 2.474 0 0 1-.474.249 1.58 1.58 0 0 1-.1-.53 1.653 1.653 0 0 1 .26-.484Z"/><path fill="#777d7d" d="m309.456 236.032.482.045c-.217.363-.456.666-.924.333q.22-.19.442-.378Z"/><path fill="#6f2f2f" d="M309.523 240.604q-.023-.175-.06-.348c.43-.058.878-.185 1.15.321l-.151-.03a.58.58 0 0 1-.939.057Z"/><path fill="#689595" d="M313.962 233.728q.05-.163.097-.327a1.342 1.342 0 0 1 .507.095c.11.073.03.22-.122.262l-.482-.03Z"/><path fill="#e1b499" d="M320.146 229.962a.403.403 0 0 1-.474.297c.087-.21.222-.347.474-.297Z"/><path fill="#4e413f" d="m311.772 234.86.472-.295a.521.521 0 0 1-.472.294Z"/><path fill="#eac0a8" d="M357.393 238.699v3.184a1.14 1.14 0 0 0 .383 1.004 19.44 19.44 0 0 1-2.653 3.41 3.753 3.753 0 0 1-3.52-.441 14.435 14.435 0 0 1 2.701-3.37c-.018-.607 1.934.312.86-1.112a14.058 14.058 0 0 1 2.229-2.675Z"/><path fill="#eac1a8" d="M351.352 251.274a8.818 8.818 0 0 0-3.082-1.174 22.544 22.544 0 0 1 2.977-3.861c1.163.15 2.421-.112 3.407.795l-3.302 4.24Z"/><path fill="#d8aa8f" d="M352.759 242.856c-1.461.36-2.92.728-4.384 1.077a5.442 5.442 0 0 0-2.028.979.397.397 0 0 1-.637-.114.533.533 0 0 1 .176-.674 5.906 5.906 0 0 1 .647-.39 16.248 16.248 0 0 1 4.81-1.61c.428-.09.86-.166 1.287-.258a.622.622 0 0 1 .636.301l-.507.689Z"/><path fill="#d9aa90" d="M354.654 247.034a8.89 8.89 0 0 1-3.406-.795l.356-.383a11.748 11.748 0 0 1 3.519.441l-.469.737Z"/><path fill="#daac91" d="M355.164 241.374c.305.003.612-.014.915.013.319.028.635.154.66.511.025.371-.305.528-.602.552-.608.049-1.221.028-1.832.035l.859-1.11Z"/><path fill="#dbad93" d="M349.718 246.658c-.367.003-.735.027-1.1 0-.228-.018-.524-.033-.52-.377.003-.288.253-.39.466-.494.582-.287 1.157-.438 1.648.173q-.246.35-.494.698Z"/><path fill="#eac0a8" d="m357.75 238.264-.355.431ZM305.746 247.116a10.277 10.277 0 0 1-.892-2.035 1.653 1.653 0 0 0-.685-1.071 6.81 6.81 0 0 1 1.478-2.35 17.778 17.778 0 0 1 2.763 1.623 20.466 20.466 0 0 1-2.664 3.833Z"/><path fill="#dab399" d="M308.41 243.283a4.33 4.33 0 0 1-2.358-.844 1.05 1.05 0 0 1-.405-.78c.2-.52.234-1.133.804-1.448a.497.497 0 0 0 .06.336c1.158.687 2.527-.206 3.684.491a18.06 18.06 0 0 1-1.785 2.245Z"/><path fill="#eac0a8" d="m357.775 242.883.365-.39Z"/><path fill="#e1b499" d="M311.085 240.677a1.217 1.217 0 0 1 .337-.068.78.78 0 0 1 .36.376.338.338 0 0 0 .297.04c1.79.401 3.627-.111 5.417.287a92.417 92.417 0 0 0 9.848.48c.63-.023 1.26-.062 1.891-.094a1.834 1.834 0 0 1 1.028-.417 6.29 6.29 0 0 0 1.6-.219 4.25 4.25 0 0 1 .78-.137 7.105 7.105 0 0 0 1.759-.196 4.177 4.177 0 0 1 .484-.117 5.97 5.97 0 0 0 1.188-.294 5.5 5.5 0 0 1 .469-.166 9.886 9.886 0 0 1 2.63-.668l.38-.143a2.61 2.61 0 0 0 .392-.232l.372-.16a1.307 1.307 0 0 0 .369-.226 23.063 23.063 0 0 0 2.611-1.57 4.097 4.097 0 0 1-.24.9 14.158 14.158 0 0 1-7.98 7.139 31.902 31.902 0 0 1-6.197 1.559 36.762 36.762 0 0 1-4.706.3 6.222 6.222 0 0 1-2.433-.271 3.568 3.568 0 0 0-1.125-.102 36.636 36.636 0 0 1-10.656-2.33c-.355-.125-.426-.43-.48-.748.406-1.045 1.411-1.761 1.605-2.923Z"/><path fill="#4a6e65" d="m310.195 241.038-2.905-.133a.83.83 0 0 1-.778-.358l3.01.057.94-.057a.552.552 0 0 1-.267.491Z"/><path fill="#eac0a7" d="m305.316 247.814.347-.375-.347.375Z"/><path fill="#eff0f0" d="m333.807 232.181.765.137a49.319 49.319 0 0 1 6.04 2.908 7.732 7.732 0 0 1 1.911 1.292c-.486.718-1.314.95-1.871 1.5q-.214.124-.418.263l-.351.144a1.821 1.821 0 0 0-.394.24l-.37.143a2.878 2.878 0 0 0-.411.23.292.292 0 0 0-.304.1c-.658.908-1.789.869-2.668 1.334a19.207 19.207 0 0 0-1.878.48c-.38.022-.76.016-1.14.025a2.796 2.796 0 0 0-1.14.287 4.391 4.391 0 0 1-3.256-.503 8.987 8.987 0 0 0 3.31-7.579c-.011-.187-.034-.373-.037-.56-.008-.683-.001-.686.932-.62a3.36 3.36 0 0 1 .387.145Z"/><path fill="#f6f8f8" d="M322.462 233.63a1.999 1.999 0 0 1-1.073 1.855 1.762 1.762 0 0 1-2.504-.865 2.145 2.145 0 0 1-.064-1.468c.32-1.142 1.018-1.76 1.946-1.684a2.09 2.09 0 0 1 1.695 2.162Z"/><path fill="#f3f5f5" d="M326.658 237.804a.96.96 0 0 1-1.084 1.003 1.162 1.162 0 0 1-1.105-1.254 1.24 1.24 0 0 1 1.14-1.252c.674.044 1.1.653 1.05 1.503Z"/><path fill="#494e45" d="M317.496 241.312a20.376 20.376 0 0 1-5.417-.287 30.793 30.793 0 0 1 4.586-.044 1.19 1.19 0 0 1 .831.33Z"/><path fill="#652222" d="M328.322 240.761a1.407 1.407 0 0 0 1.062.246c.81-.04 1.62-.083 2.43-.125a2.875 2.875 0 0 1 .644-.081.485.485 0 0 1 .347.234.335.335 0 0 1-.222.333l-.47.004a4.064 4.064 0 0 1-1.61.166 3.296 3.296 0 0 1-1.287-.121 3.86 3.86 0 0 1-.744-.097c-.283-.092-.412-.289-.15-.559Z"/><path fill="#e3dede" d="M312.863 240.27c.474-.034.947-.08 1.422-.098a1.25 1.25 0 0 0 .972-.359l.738.4a.274.274 0 0 1-.06.364l-2.98-.034q-.177-.042-.16-.15c.014-.082.036-.123.068-.123Z"/><path fill="#494e45" d="M312.863 240.27a1.459 1.459 0 0 0 .092.273l-1.075.147-.233-.063a.33.33 0 0 1 .25-.345l.966-.012Z"/><path fill="#2a3f39" d="m329.216 241.417 1.192-.068q.177.106.12.215c-.039.072-.078.109-.117.109l-1.176.025a.681.681 0 0 0-.019-.281Z"/><path fill="#e3dede" d="M314.865 239.4a.545.545 0 0 1-.43-.675.734.734 0 0 1 .43.675Z"/><path fill="#e1b499" d="M332.914 232.147c-.176.072-.34.113-.39-.146l.463-.067a.346.346 0 0 1-.073.213Z"/><path fill="#e3dede" d="M314.417 238.686a.63.63 0 0 1-.32-.82.855.855 0 0 1 .32.82ZM315.224 239.785a.359.359 0 0 1-.35-.374.359.359 0 0 1 .35.374Z"/><path fill="#494e45" d="M311.781 240.985c-.273.021-.331-.163-.36-.376l-.015-.032a.257.257 0 0 1 .346-.018l.127.131a.753.753 0 0 0-.098.295ZM315.935 240.577a.764.764 0 0 0 .06-.365l.244.224Z"/><path fill="#4b3c39" d="M335.702 240.185a13.25 13.25 0 0 1 2.702-1.047.949.949 0 0 0 .77.346 8.722 8.722 0 0 1-2.723 1.092c-.185-.255-.602-.065-.75-.391ZM340.234 238.28a.434.434 0 0 1 .418-.262ZM339.945 239.11l-.392.232ZM338.708 239.039l.412-.23ZM340.686 238.723l-.37.227.37-.227ZM339.489 238.666l.394-.241Z"/><path fill="#e3dede" d="m311.752 240.559-.174-.004-.172.022a.43.43 0 0 1 .492-.295.586.586 0 0 1-.146.277Z"/><path fill="#4c2e2e" d="M335.702 240.185c.294.046.597.074.75.39l-.119.066-.135-.008c-.38.26-.907-.012-1.26.35l-.111.055-.124-.017a1.22 1.22 0 0 1-.832.073.323.323 0 0 1-.124-.315q.038-.17.087-.17a5.053 5.053 0 0 1 1.868-.424Z"/><path fill="#544843" d="m333.79 240.939.912.082a3.174 3.174 0 0 1-2.118.346c.03-.133.062-.266.094-.399a.988.988 0 0 1 1.112-.03ZM330.41 241.673a3.154 3.154 0 0 1-.002-.323l1.704.023a2.139 2.139 0 0 1-1.701.3Z"/><path fill="#4b3c39" d="M334.938 240.982c.325-.458.795-.394 1.26-.35a1.565 1.565 0 0 1-1.26.35Z"/><path fill="#642121" d="m333.79 240.939-1.112.03.01.01-.146-.108.096-.156 1.196-.105a2.944 2.944 0 0 1-.044.329Z"/><path fill="#544843" d="M332.638 240.715a.57.57 0 0 1 .05.264l-.875-.096a.9.9 0 0 1 .825-.168Z"/></svg>